%TF.GenerationSoftware,KiCad,Pcbnew,(6.0.9)*%
%TF.CreationDate,2023-02-22T10:58:03-06:00*%
%TF.ProjectId,shooting,73686f6f-7469-46e6-972e-6b696361645f,rev?*%
%TF.SameCoordinates,Original*%
%TF.FileFunction,Profile,NP*%
%FSLAX46Y46*%
G04 Gerber Fmt 4.6, Leading zero omitted, Abs format (unit mm)*
G04 Created by KiCad (PCBNEW (6.0.9)) date 2023-02-22 10:58:03*
%MOMM*%
%LPD*%
G01*
G04 APERTURE LIST*
%TA.AperFunction,Profile*%
%ADD10C,0.100000*%
%TD*%
G04 APERTURE END LIST*
D10*
X124460000Y-123444000D02*
G75*
G03*
X128016000Y-127000000I3556000J0D01*
G01*
X89916000Y-65532000D02*
X89916000Y-87630000D01*
X122428000Y-90932000D02*
X93218000Y-90932000D01*
X124460000Y-119634000D02*
X124460000Y-123444000D01*
X124460000Y-92964000D02*
G75*
G03*
X122428000Y-90932000I-2032000J0D01*
G01*
X137120000Y-119042000D02*
X134940000Y-123272000D01*
X129130000Y-124942000D01*
X129100000Y-124942000D01*
X129110000Y-124922000D01*
X130740000Y-122822000D01*
X130740000Y-122842000D01*
X129890000Y-124392000D01*
X134740000Y-122982000D01*
X136710000Y-119122000D01*
X134090000Y-116662000D01*
X129950000Y-118092000D01*
X129940000Y-118082000D01*
X134140000Y-116372000D01*
X137120000Y-119042000D01*
X93472000Y-61976000D02*
X142494000Y-61976000D01*
X89916000Y-87630000D02*
G75*
G03*
X93218000Y-90932000I3302000J0D01*
G01*
X146050000Y-65532000D02*
G75*
G03*
X142494000Y-61976000I-3556000J0D01*
G01*
X124460000Y-92964000D02*
X124460000Y-119634000D01*
X128016000Y-127000000D02*
X142494000Y-127000000D01*
X146050000Y-65532000D02*
X146050000Y-123444000D01*
X93472000Y-61976000D02*
G75*
G03*
X89916000Y-65532000I0J-3556000D01*
G01*
X142494000Y-127000000D02*
G75*
G03*
X146050000Y-123444000I0J3556000D01*
G01*
M02*
