M48
; DRILL file {KiCad (6.0.9)} date Wed Feb 22 10:52:19 2023
; FORMAT={-:-/ absolute / metric / decimal}
; #@! TF.CreationDate,2023-02-22T10:52:19-06:00
; #@! TF.GenerationSoftware,Kicad,Pcbnew,(6.0.9)
; #@! TF.FileFunction,Plated,1,2,PTH
FMAT,2
METRIC
; #@! TA.AperFunction,Plated,PTH,ComponentDrill
T1C0.950
; #@! TA.AperFunction,Plated,PTH,ComponentDrill
T2C1.020
; #@! TA.AperFunction,Plated,PTH,ComponentDrill
T3C1.520
%
G90
G05
T1
X102.716Y-72.03
X105.216Y-72.03
X107.716Y-72.03
X110.216Y-72.03
X112.716Y-72.03
X115.216Y-72.03
X122.655Y-72.03
X125.155Y-72.03
X127.655Y-72.03
X130.155Y-72.03
X132.655Y-72.03
X135.155Y-72.03
X135.255Y-79.375
X135.255Y-81.875
X135.255Y-84.375
X135.255Y-86.875
X135.255Y-89.375
X135.255Y-91.875
X135.255Y-98.552
X135.255Y-101.052
X135.255Y-103.552
X135.255Y-106.052
X135.255Y-108.552
X135.255Y-111.052
T2
X141.213Y-70.391
X141.213Y-72.931
X141.213Y-75.471
X141.213Y-78.011
X141.213Y-80.551
X141.213Y-83.091
X141.213Y-85.631
X141.213Y-88.171
X141.213Y-90.711
X141.213Y-93.251
X141.213Y-95.791
X141.213Y-98.331
X141.213Y-100.871
X141.213Y-103.411
X141.213Y-105.951
X141.213Y-108.491
X141.213Y-111.031
X141.213Y-113.571
X141.213Y-116.111
X141.213Y-118.651
X143.753Y-70.391
X143.753Y-72.931
X143.753Y-75.471
X143.753Y-78.011
X143.753Y-80.551
X143.753Y-83.091
X143.753Y-85.631
X143.753Y-88.171
X143.753Y-90.711
X143.753Y-93.251
X143.753Y-95.791
X143.753Y-98.331
X143.753Y-100.871
X143.753Y-103.411
X143.753Y-105.951
X143.753Y-108.491
X143.753Y-111.031
X143.753Y-113.571
X143.753Y-116.111
X143.753Y-118.651
T3
X94.869Y-79.756
X94.869Y-84.836
T0
M30
