%TF.GenerationSoftware,KiCad,Pcbnew,(6.0.9)*%
%TF.CreationDate,2023-02-22T10:58:03-06:00*%
%TF.ProjectId,shooting,73686f6f-7469-46e6-972e-6b696361645f,rev?*%
%TF.SameCoordinates,Original*%
%TF.FileFunction,Copper,L1,Top*%
%TF.FilePolarity,Positive*%
%FSLAX46Y46*%
G04 Gerber Fmt 4.6, Leading zero omitted, Abs format (unit mm)*
G04 Created by KiCad (PCBNEW (6.0.9)) date 2023-02-22 10:58:03*
%MOMM*%
%LPD*%
G01*
G04 APERTURE LIST*
G04 Aperture macros list*
%AMRoundRect*
0 Rectangle with rounded corners*
0 $1 Rounding radius*
0 $2 $3 $4 $5 $6 $7 $8 $9 X,Y pos of 4 corners*
0 Add a 4 corners polygon primitive as box body*
4,1,4,$2,$3,$4,$5,$6,$7,$8,$9,$2,$3,0*
0 Add four circle primitives for the rounded corners*
1,1,$1+$1,$2,$3*
1,1,$1+$1,$4,$5*
1,1,$1+$1,$6,$7*
1,1,$1+$1,$8,$9*
0 Add four rect primitives between the rounded corners*
20,1,$1+$1,$2,$3,$4,$5,0*
20,1,$1+$1,$4,$5,$6,$7,0*
20,1,$1+$1,$6,$7,$8,$9,0*
20,1,$1+$1,$8,$9,$2,$3,0*%
G04 Aperture macros list end*
%TA.AperFunction,ComponentPad*%
%ADD10RoundRect,0.250000X0.600000X0.725000X-0.600000X0.725000X-0.600000X-0.725000X0.600000X-0.725000X0*%
%TD*%
%TA.AperFunction,ComponentPad*%
%ADD11O,1.700000X1.950000*%
%TD*%
%TA.AperFunction,ComponentPad*%
%ADD12R,1.530000X1.530000*%
%TD*%
%TA.AperFunction,ComponentPad*%
%ADD13C,1.530000*%
%TD*%
%TA.AperFunction,ComponentPad*%
%ADD14RoundRect,0.250000X-0.725000X0.600000X-0.725000X-0.600000X0.725000X-0.600000X0.725000X0.600000X0*%
%TD*%
%TA.AperFunction,ComponentPad*%
%ADD15O,1.950000X1.700000*%
%TD*%
%TA.AperFunction,ComponentPad*%
%ADD16R,3.000000X3.000000*%
%TD*%
%TA.AperFunction,ComponentPad*%
%ADD17C,3.000000*%
%TD*%
%TA.AperFunction,Conductor*%
%ADD18C,0.250000*%
%TD*%
%TA.AperFunction,Conductor*%
%ADD19C,0.350000*%
%TD*%
G04 APERTURE END LIST*
D10*
%TO.P,J6,1,Pin_1*%
%TO.N,+5V*%
X135155000Y-72030000D03*
D11*
%TO.P,J6,2,Pin_2*%
%TO.N,GND*%
X132655000Y-72030000D03*
%TO.P,J6,3,Pin_3*%
%TO.N,SDA*%
X130155000Y-72030000D03*
%TO.P,J6,4,Pin_4*%
%TO.N,SCL*%
X127655000Y-72030000D03*
%TO.P,J6,5,Pin_5*%
%TO.N,Interrupt*%
X125155000Y-72030000D03*
%TO.P,J6,6,Pin_6*%
%TO.N,GND*%
X122655000Y-72030000D03*
%TD*%
D10*
%TO.P,J3,1,Pin_1*%
%TO.N,GND*%
X115216000Y-72030000D03*
D11*
%TO.P,J3,2,Pin_2*%
%TO.N,+6V*%
X112716000Y-72030000D03*
%TO.P,J3,3,Pin_3*%
%TO.N,Servo1*%
X110216000Y-72030000D03*
%TO.P,J3,4,Pin_4*%
%TO.N,GND*%
X107716000Y-72030000D03*
%TO.P,J3,5,Pin_5*%
%TO.N,+6V*%
X105216000Y-72030000D03*
%TO.P,J3,6,Pin_6*%
%TO.N,Servo2*%
X102716000Y-72030000D03*
%TD*%
D12*
%TO.P,U1,1,3V3*%
%TO.N,Net-(U1-Pad1)*%
X141213000Y-70391000D03*
D13*
%TO.P,U1,2,5V0*%
%TO.N,+5V*%
X143753000Y-70391000D03*
%TO.P,U1,3,GPIO2/SDA1*%
%TO.N,SDA*%
X141213000Y-72931000D03*
%TO.P,U1,4,5V0*%
%TO.N,+5V*%
X143753000Y-72931000D03*
%TO.P,U1,5,GPIO3/SCL1*%
%TO.N,SCL*%
X141213000Y-75471000D03*
%TO.P,U1,6,GND*%
%TO.N,GND*%
X143753000Y-75471000D03*
%TO.P,U1,7,GPIO4/GPIO_GCLK*%
%TO.N,unconnected-(U1-Pad7)*%
X141213000Y-78011000D03*
%TO.P,U1,8,TXD0/GPIO14*%
%TO.N,unconnected-(U1-Pad8)*%
X143753000Y-78011000D03*
%TO.P,U1,9,GND*%
%TO.N,GND*%
X141213000Y-80551000D03*
%TO.P,U1,10,RXD0/GPIO15*%
%TO.N,unconnected-(U1-Pad10)*%
X143753000Y-80551000D03*
%TO.P,U1,11,GPIO17/GPIO_GEN0*%
%TO.N,Interrupt*%
X141213000Y-83091000D03*
%TO.P,U1,12,GPIO18/GPIO_GEN1*%
%TO.N,Servo1*%
X143753000Y-83091000D03*
%TO.P,U1,13,GPIO27/GPIO_GEN2*%
%TO.N,Servo2*%
X141213000Y-85631000D03*
%TO.P,U1,14,GND*%
%TO.N,GND*%
X143753000Y-85631000D03*
%TO.P,U1,15,GPIO22/GPIO_GEN3*%
%TO.N,Servo3*%
X141213000Y-88171000D03*
%TO.P,U1,16,GPIO23/GPIO_GEN4*%
%TO.N,unconnected-(U1-Pad16)*%
X143753000Y-88171000D03*
%TO.P,U1,17,3V3*%
%TO.N,Net-(U1-Pad1)*%
X141213000Y-90711000D03*
%TO.P,U1,18,GPIO24/GPIO_GEN5*%
%TO.N,unconnected-(U1-Pad18)*%
X143753000Y-90711000D03*
%TO.P,U1,19,GPIO10/SPI_MOSI*%
%TO.N,unconnected-(U1-Pad19)*%
X141213000Y-93251000D03*
%TO.P,U1,20,GND*%
%TO.N,GND*%
X143753000Y-93251000D03*
%TO.P,U1,21,GPIO9/SPI_MISO*%
%TO.N,unconnected-(U1-Pad21)*%
X141213000Y-95791000D03*
%TO.P,U1,22,GPIO25/GPIO_GEN6*%
%TO.N,unconnected-(U1-Pad22)*%
X143753000Y-95791000D03*
%TO.P,U1,23,GPIO11/SPI_SCLK*%
%TO.N,unconnected-(U1-Pad23)*%
X141213000Y-98331000D03*
%TO.P,U1,24,GPIO8/~{SPI_CE0}*%
%TO.N,unconnected-(U1-Pad24)*%
X143753000Y-98331000D03*
%TO.P,U1,25,GND*%
%TO.N,GND*%
X141213000Y-100871000D03*
%TO.P,U1,26,GPIO7/~{SPI_CE1}*%
%TO.N,unconnected-(U1-Pad26)*%
X143753000Y-100871000D03*
%TO.P,U1,27,ID_SD*%
%TO.N,unconnected-(U1-Pad27)*%
X141213000Y-103411000D03*
%TO.P,U1,28,ID_SC*%
%TO.N,unconnected-(U1-Pad28)*%
X143753000Y-103411000D03*
%TO.P,U1,29,GPIO5*%
%TO.N,Servo4*%
X141213000Y-105951000D03*
%TO.P,U1,30,GND*%
%TO.N,GND*%
X143753000Y-105951000D03*
%TO.P,U1,31,GPIO6*%
%TO.N,ESC1*%
X141213000Y-108491000D03*
%TO.P,U1,32,GPIO12*%
%TO.N,unconnected-(U1-Pad32)*%
X143753000Y-108491000D03*
%TO.P,U1,33,GPIO13*%
%TO.N,unconnected-(U1-Pad33)*%
X141213000Y-111031000D03*
%TO.P,U1,34,GND*%
%TO.N,GND*%
X143753000Y-111031000D03*
%TO.P,U1,35,GPIO19*%
%TO.N,unconnected-(U1-Pad35)*%
X141213000Y-113571000D03*
%TO.P,U1,36,GPIO16*%
%TO.N,unconnected-(U1-Pad36)*%
X143753000Y-113571000D03*
%TO.P,U1,37,GPIO26*%
%TO.N,ESC2*%
X141213000Y-116111000D03*
%TO.P,U1,38,GPIO20*%
%TO.N,unconnected-(U1-Pad38)*%
X143753000Y-116111000D03*
%TO.P,U1,39,GND*%
%TO.N,GND*%
X141213000Y-118651000D03*
%TO.P,U1,40,GPIO21*%
%TO.N,unconnected-(U1-Pad40)*%
X143753000Y-118651000D03*
%TD*%
D14*
%TO.P,J5,1,Pin_1*%
%TO.N,GND*%
X135255000Y-98552000D03*
D15*
%TO.P,J5,2,Pin_2*%
%TO.N,+5V*%
X135255000Y-101052000D03*
%TO.P,J5,3,Pin_3*%
%TO.N,ESC1*%
X135255000Y-103552000D03*
%TO.P,J5,4,Pin_4*%
%TO.N,GND*%
X135255000Y-106052000D03*
%TO.P,J5,5,Pin_5*%
%TO.N,+5V*%
X135255000Y-108552000D03*
%TO.P,J5,6,Pin_6*%
%TO.N,ESC2*%
X135255000Y-111052000D03*
%TD*%
D16*
%TO.P,J2,1,Pin_1*%
%TO.N,GND*%
X94869000Y-84836000D03*
D17*
%TO.P,J2,2,Pin_2*%
%TO.N,+6V*%
X94869000Y-79756000D03*
%TD*%
D14*
%TO.P,J4,1,Pin_1*%
%TO.N,GND*%
X135255000Y-79375000D03*
D15*
%TO.P,J4,2,Pin_2*%
%TO.N,+6V*%
X135255000Y-81875000D03*
%TO.P,J4,3,Pin_3*%
%TO.N,Servo3*%
X135255000Y-84375000D03*
%TO.P,J4,4,Pin_4*%
%TO.N,GND*%
X135255000Y-86875000D03*
%TO.P,J4,5,Pin_5*%
%TO.N,+6V*%
X135255000Y-89375000D03*
%TO.P,J4,6,Pin_6*%
%TO.N,Servo4*%
X135255000Y-91875000D03*
%TD*%
D18*
%TO.N,SDA*%
X140448000Y-73696000D02*
X141213000Y-72931000D01*
X130155000Y-72030000D02*
X131821000Y-73696000D01*
X131821000Y-73696000D02*
X140448000Y-73696000D01*
%TO.N,SCL*%
X131096000Y-75471000D02*
X141213000Y-75471000D01*
X127655000Y-72030000D02*
X131096000Y-75471000D01*
%TO.N,Servo1*%
X137795000Y-78359000D02*
X136340000Y-76904000D01*
X124079000Y-75057000D02*
X111633000Y-75057000D01*
X137795000Y-81280000D02*
X137795000Y-78359000D01*
X143753000Y-83091000D02*
X142663000Y-84181000D01*
X125926000Y-76904000D02*
X124079000Y-75057000D01*
X140696000Y-84181000D02*
X137795000Y-81280000D01*
X111633000Y-75057000D02*
X110216000Y-73640000D01*
X110216000Y-73640000D02*
X110216000Y-72030000D01*
X136340000Y-76904000D02*
X125926000Y-76904000D01*
X142663000Y-84181000D02*
X140696000Y-84181000D01*
%TO.N,Servo2*%
X141213000Y-85631000D02*
X136282000Y-80700000D01*
X136282000Y-80700000D02*
X111386000Y-80700000D01*
X111386000Y-80700000D02*
X102716000Y-72030000D01*
%TO.N,Servo3*%
X135255000Y-84375000D02*
X137417000Y-84375000D01*
X137417000Y-84375000D02*
X141213000Y-88171000D01*
%TO.N,Interrupt*%
X137541000Y-76454000D02*
X129579000Y-76454000D01*
X129579000Y-76454000D02*
X125155000Y-72030000D01*
X138557000Y-77470000D02*
X137541000Y-76454000D01*
X141213000Y-83091000D02*
X138557000Y-80435000D01*
X138557000Y-80435000D02*
X138557000Y-77470000D01*
%TO.N,Servo4*%
X139373000Y-91875000D02*
X139954000Y-92456000D01*
X139954000Y-92456000D02*
X139954000Y-104692000D01*
X139954000Y-104692000D02*
X141213000Y-105951000D01*
X135255000Y-91875000D02*
X139373000Y-91875000D01*
%TO.N,ESC1*%
X136274000Y-103552000D02*
X141213000Y-108491000D01*
X135255000Y-103552000D02*
X136274000Y-103552000D01*
%TO.N,ESC2*%
X135255000Y-111052000D02*
X135255000Y-113087000D01*
X138279000Y-116111000D02*
X141213000Y-116111000D01*
X135255000Y-113087000D02*
X138279000Y-116111000D01*
D19*
%TO.N,+6V*%
X102235000Y-69723000D02*
X100203000Y-71755000D01*
X109561000Y-81875000D02*
X132120000Y-81875000D01*
X106045000Y-69723000D02*
X102235000Y-69723000D01*
X132120000Y-86066000D02*
X132120000Y-81875000D01*
X100203000Y-71755000D02*
X100203000Y-79756000D01*
X135255000Y-89375000D02*
X132120000Y-86240000D01*
X112141000Y-69723000D02*
X106045000Y-69723000D01*
X132120000Y-86240000D02*
X132120000Y-86066000D01*
X100203000Y-79756000D02*
X107442000Y-79756000D01*
X112716000Y-72030000D02*
X112716000Y-70298000D01*
X132120000Y-81875000D02*
X135255000Y-81875000D01*
X106045000Y-69723000D02*
X105216000Y-70552000D01*
X112716000Y-70298000D02*
X112141000Y-69723000D01*
X94869000Y-79756000D02*
X100203000Y-79756000D01*
X107442000Y-79756000D02*
X109561000Y-81875000D01*
X105216000Y-70552000D02*
X105216000Y-72030000D01*
%TO.N,+5V*%
X142663000Y-71841000D02*
X143753000Y-72931000D01*
X135255000Y-108552000D02*
X133955000Y-107252000D01*
X144292000Y-91801000D02*
X145034000Y-91059000D01*
X135155000Y-72030000D02*
X135344000Y-71841000D01*
X145034000Y-91059000D02*
X145034000Y-74212000D01*
X133955000Y-91238299D02*
X134643299Y-90550000D01*
X145034000Y-74212000D02*
X143753000Y-72931000D01*
X140761507Y-91801000D02*
X144292000Y-91801000D01*
X133955000Y-99752000D02*
X133955000Y-91238299D01*
X135255000Y-101052000D02*
X133955000Y-99752000D01*
X134643299Y-90550000D02*
X139510507Y-90550000D01*
X133955000Y-107252000D02*
X133955000Y-99752000D01*
X139510507Y-90550000D02*
X140761507Y-91801000D01*
X135344000Y-71841000D02*
X142663000Y-71841000D01*
%TD*%
%TA.AperFunction,Conductor*%
%TO.N,GND*%
G36*
X141957528Y-62346502D02*
G01*
X142004021Y-62400158D01*
X142014125Y-62470432D01*
X141984631Y-62535012D01*
X141924905Y-62573396D01*
X141907895Y-62577136D01*
X141900795Y-62578189D01*
X141900791Y-62578190D01*
X141897729Y-62578644D01*
X141894730Y-62579395D01*
X141894726Y-62579396D01*
X141753649Y-62614734D01*
X141612146Y-62650179D01*
X141609249Y-62651216D01*
X141609241Y-62651218D01*
X141484400Y-62695887D01*
X141334950Y-62749361D01*
X141332167Y-62750677D01*
X141332158Y-62750681D01*
X141071592Y-62873920D01*
X141068810Y-62875236D01*
X141066168Y-62876819D01*
X141066169Y-62876819D01*
X140818939Y-63025002D01*
X140818930Y-63025008D01*
X140816289Y-63026591D01*
X140579820Y-63201969D01*
X140361680Y-63399680D01*
X140163969Y-63617820D01*
X139988591Y-63854289D01*
X139987008Y-63856930D01*
X139987002Y-63856939D01*
X139943661Y-63929250D01*
X139837236Y-64106810D01*
X139835922Y-64109589D01*
X139835920Y-64109592D01*
X139712681Y-64370158D01*
X139712677Y-64370167D01*
X139711361Y-64372950D01*
X139612179Y-64650146D01*
X139576734Y-64791649D01*
X139560327Y-64857152D01*
X139540644Y-64935729D01*
X139497446Y-65226949D01*
X139497294Y-65230035D01*
X139497294Y-65230039D01*
X139483478Y-65511274D01*
X139483000Y-65521000D01*
X139497446Y-65815051D01*
X139540644Y-66106271D01*
X139612179Y-66391854D01*
X139613216Y-66394751D01*
X139613218Y-66394759D01*
X139616989Y-66405298D01*
X139711361Y-66669050D01*
X139712677Y-66671833D01*
X139712681Y-66671842D01*
X139835920Y-66932408D01*
X139837236Y-66935190D01*
X139838819Y-66937831D01*
X139987002Y-67185061D01*
X139987008Y-67185070D01*
X139988591Y-67187711D01*
X140163969Y-67424180D01*
X140361680Y-67642320D01*
X140579820Y-67840031D01*
X140816289Y-68015409D01*
X140818930Y-68016992D01*
X140818939Y-68016998D01*
X141049175Y-68154995D01*
X141068810Y-68166764D01*
X141071589Y-68168078D01*
X141071592Y-68168080D01*
X141332158Y-68291319D01*
X141332167Y-68291323D01*
X141334950Y-68292639D01*
X141484400Y-68346113D01*
X141609241Y-68390782D01*
X141609249Y-68390784D01*
X141612146Y-68391821D01*
X141753649Y-68427266D01*
X141894726Y-68462604D01*
X141894730Y-68462605D01*
X141897729Y-68463356D01*
X141900791Y-68463810D01*
X141900795Y-68463811D01*
X142095210Y-68492649D01*
X142188949Y-68506554D01*
X142192035Y-68506706D01*
X142192039Y-68506706D01*
X142479906Y-68520848D01*
X142483000Y-68521000D01*
X142486094Y-68520848D01*
X142773961Y-68506706D01*
X142773965Y-68506706D01*
X142777051Y-68506554D01*
X142870790Y-68492649D01*
X143065205Y-68463811D01*
X143065209Y-68463810D01*
X143068271Y-68463356D01*
X143071270Y-68462605D01*
X143071274Y-68462604D01*
X143212351Y-68427266D01*
X143353854Y-68391821D01*
X143356751Y-68390784D01*
X143356759Y-68390782D01*
X143481600Y-68346113D01*
X143631050Y-68292639D01*
X143633833Y-68291323D01*
X143633842Y-68291319D01*
X143894408Y-68168080D01*
X143894411Y-68168078D01*
X143897190Y-68166764D01*
X143916825Y-68154995D01*
X144147061Y-68016998D01*
X144147070Y-68016992D01*
X144149711Y-68015409D01*
X144386180Y-67840031D01*
X144604320Y-67642320D01*
X144802031Y-67424180D01*
X144977409Y-67187711D01*
X144978992Y-67185070D01*
X144978998Y-67185061D01*
X145127181Y-66937831D01*
X145128764Y-66935190D01*
X145130080Y-66932408D01*
X145253319Y-66671842D01*
X145253323Y-66671833D01*
X145254639Y-66669050D01*
X145349011Y-66405298D01*
X145352782Y-66394759D01*
X145352784Y-66394751D01*
X145353821Y-66391854D01*
X145425356Y-66106271D01*
X145448864Y-65947791D01*
X145478645Y-65883343D01*
X145538541Y-65845226D01*
X145609537Y-65845542D01*
X145669092Y-65884192D01*
X145698296Y-65948904D01*
X145699500Y-65966279D01*
X145699500Y-73840927D01*
X145679498Y-73909048D01*
X145625842Y-73955541D01*
X145555568Y-73965645D01*
X145490988Y-73936151D01*
X145467170Y-73906681D01*
X145466794Y-73906942D01*
X145463194Y-73901762D01*
X145463087Y-73901629D01*
X145459848Y-73895738D01*
X145453165Y-73887995D01*
X145429956Y-73864786D01*
X145421130Y-73854985D01*
X145402517Y-73831999D01*
X145402515Y-73831997D01*
X145397112Y-73825325D01*
X145382862Y-73815198D01*
X145366757Y-73801587D01*
X144875399Y-73310229D01*
X144841373Y-73247917D01*
X144841955Y-73193618D01*
X144842326Y-73192524D01*
X144844296Y-73178941D01*
X144863530Y-73046282D01*
X144871744Y-72989631D01*
X144873279Y-72931000D01*
X144854520Y-72726845D01*
X144846408Y-72698081D01*
X144800441Y-72535093D01*
X144800439Y-72535088D01*
X144798871Y-72529528D01*
X144708195Y-72345656D01*
X144585530Y-72181387D01*
X144434983Y-72042223D01*
X144261596Y-71932824D01*
X144071176Y-71856854D01*
X144065516Y-71855728D01*
X144065512Y-71855727D01*
X143875769Y-71817985D01*
X143875764Y-71817985D01*
X143870101Y-71816858D01*
X143864326Y-71816782D01*
X143864322Y-71816782D01*
X143761605Y-71815437D01*
X143665104Y-71814174D01*
X143659407Y-71815153D01*
X143659406Y-71815153D01*
X143485545Y-71845028D01*
X143415021Y-71836851D01*
X143375112Y-71809943D01*
X143195220Y-71630051D01*
X143161194Y-71567739D01*
X143166259Y-71496924D01*
X143208806Y-71440088D01*
X143275326Y-71415277D01*
X143334053Y-71425188D01*
X143396355Y-71451955D01*
X143406815Y-71456449D01*
X143456772Y-71467753D01*
X143601137Y-71500420D01*
X143601142Y-71500421D01*
X143606774Y-71501695D01*
X143612545Y-71501922D01*
X143612547Y-71501922D01*
X143674339Y-71504350D01*
X143811631Y-71509744D01*
X143916050Y-71494604D01*
X144008810Y-71481155D01*
X144008815Y-71481154D01*
X144014524Y-71480326D01*
X144019988Y-71478471D01*
X144019993Y-71478470D01*
X144203187Y-71416284D01*
X144203192Y-71416282D01*
X144208659Y-71414426D01*
X144221182Y-71407413D01*
X144382495Y-71317073D01*
X144382499Y-71317070D01*
X144387533Y-71314251D01*
X144391970Y-71310561D01*
X144391974Y-71310558D01*
X144540719Y-71186848D01*
X144545157Y-71183157D01*
X144567390Y-71156425D01*
X144672558Y-71029974D01*
X144672561Y-71029970D01*
X144676251Y-71025533D01*
X144679070Y-71020499D01*
X144679073Y-71020495D01*
X144773603Y-70851700D01*
X144773603Y-70851699D01*
X144776426Y-70846659D01*
X144778282Y-70841192D01*
X144778284Y-70841187D01*
X144840470Y-70657993D01*
X144840471Y-70657988D01*
X144842326Y-70652524D01*
X144843154Y-70646815D01*
X144843155Y-70646810D01*
X144866321Y-70487031D01*
X144871744Y-70449631D01*
X144873279Y-70391000D01*
X144854520Y-70186845D01*
X144844852Y-70152564D01*
X144800441Y-69995093D01*
X144800439Y-69995088D01*
X144798871Y-69989528D01*
X144708195Y-69805656D01*
X144585530Y-69641387D01*
X144494855Y-69557568D01*
X144439223Y-69506142D01*
X144439220Y-69506140D01*
X144434983Y-69502223D01*
X144261596Y-69392824D01*
X144071176Y-69316854D01*
X144065516Y-69315728D01*
X144065512Y-69315727D01*
X143875769Y-69277985D01*
X143875764Y-69277985D01*
X143870101Y-69276858D01*
X143864326Y-69276782D01*
X143864322Y-69276782D01*
X143761605Y-69275437D01*
X143665104Y-69274174D01*
X143659407Y-69275153D01*
X143659406Y-69275153D01*
X143492485Y-69303836D01*
X143463050Y-69308894D01*
X143270707Y-69379853D01*
X143265746Y-69382805D01*
X143265745Y-69382805D01*
X143188087Y-69429007D01*
X143094517Y-69484675D01*
X142940378Y-69619851D01*
X142936811Y-69624376D01*
X142936806Y-69624381D01*
X142817033Y-69776313D01*
X142813455Y-69780852D01*
X142810764Y-69785968D01*
X142810762Y-69785970D01*
X142729205Y-69940985D01*
X142717997Y-69962288D01*
X142657202Y-70158081D01*
X142633105Y-70361675D01*
X142646513Y-70566250D01*
X142657888Y-70611037D01*
X142681762Y-70705039D01*
X142696979Y-70764957D01*
X142782810Y-70951139D01*
X142901133Y-71118563D01*
X142903264Y-71120638D01*
X142931921Y-71184597D01*
X142921316Y-71254797D01*
X142874440Y-71308119D01*
X142806178Y-71327634D01*
X142789557Y-71325562D01*
X142789525Y-71325870D01*
X142775761Y-71324423D01*
X142753784Y-71320112D01*
X142746822Y-71318089D01*
X142746820Y-71318089D01*
X142740488Y-71316249D01*
X142733673Y-71315749D01*
X142732596Y-71315669D01*
X142732583Y-71315669D01*
X142730288Y-71315500D01*
X142697461Y-71315500D01*
X142684290Y-71314810D01*
X142679533Y-71314310D01*
X142646338Y-71310821D01*
X142637872Y-71312253D01*
X142637869Y-71312253D01*
X142629102Y-71313736D01*
X142608090Y-71315500D01*
X142454480Y-71315500D01*
X142386359Y-71295498D01*
X142339866Y-71241842D01*
X142330356Y-71189218D01*
X142328500Y-71189218D01*
X142328500Y-69592782D01*
X142319871Y-69534162D01*
X142319784Y-69533574D01*
X142319784Y-69533573D01*
X142318358Y-69523888D01*
X142266932Y-69419145D01*
X142209311Y-69361624D01*
X142191721Y-69344065D01*
X142191720Y-69344065D01*
X142184350Y-69336707D01*
X142174138Y-69331715D01*
X142129220Y-69309759D01*
X142079518Y-69285464D01*
X142049027Y-69281016D01*
X142015744Y-69276160D01*
X142015740Y-69276160D01*
X142011218Y-69275500D01*
X140414782Y-69275500D01*
X140410232Y-69276170D01*
X140410229Y-69276170D01*
X140355574Y-69284216D01*
X140355573Y-69284216D01*
X140345888Y-69285642D01*
X140308831Y-69303836D01*
X140250493Y-69332478D01*
X140250491Y-69332479D01*
X140241145Y-69337068D01*
X140158707Y-69419650D01*
X140107464Y-69524482D01*
X140097500Y-69592782D01*
X140097500Y-71189218D01*
X140095227Y-71189218D01*
X140082285Y-71249561D01*
X140032230Y-71299910D01*
X139971521Y-71315500D01*
X136472563Y-71315500D01*
X136404442Y-71295498D01*
X136357949Y-71241842D01*
X136347641Y-71205946D01*
X136341122Y-71156425D01*
X136341122Y-71156423D01*
X136340044Y-71148238D01*
X136279536Y-71002159D01*
X136183282Y-70876718D01*
X136057841Y-70780464D01*
X135911762Y-70719956D01*
X135852082Y-70712099D01*
X135798448Y-70705038D01*
X135798447Y-70705038D01*
X135794361Y-70704500D01*
X135155078Y-70704500D01*
X134515640Y-70704501D01*
X134511556Y-70705039D01*
X134511550Y-70705039D01*
X134406425Y-70718878D01*
X134406423Y-70718878D01*
X134398238Y-70719956D01*
X134252159Y-70780464D01*
X134126718Y-70876718D01*
X134030464Y-71002159D01*
X134001834Y-71071278D01*
X133988437Y-71103621D01*
X133943888Y-71158901D01*
X133876525Y-71181322D01*
X133807734Y-71163764D01*
X133767507Y-71125768D01*
X133720148Y-71055422D01*
X133713481Y-71047130D01*
X133561772Y-70888100D01*
X133553814Y-70881059D01*
X133377475Y-70749859D01*
X133368438Y-70744255D01*
X133172516Y-70644643D01*
X133162665Y-70640643D01*
X132952760Y-70575466D01*
X132942376Y-70573183D01*
X132926957Y-70571139D01*
X132912793Y-70573335D01*
X132909000Y-70586522D01*
X132909000Y-72158000D01*
X132888998Y-72226121D01*
X132835342Y-72272614D01*
X132783000Y-72284000D01*
X132527000Y-72284000D01*
X132458879Y-72263998D01*
X132412386Y-72210342D01*
X132401000Y-72158000D01*
X132401000Y-70588808D01*
X132397027Y-70575277D01*
X132386420Y-70573752D01*
X132268579Y-70598477D01*
X132258383Y-70601537D01*
X132053971Y-70682263D01*
X132044439Y-70686994D01*
X131856538Y-70801016D01*
X131847948Y-70807280D01*
X131681948Y-70951327D01*
X131674528Y-70958958D01*
X131535174Y-71128911D01*
X131529150Y-71137678D01*
X131424847Y-71320912D01*
X131373765Y-71370218D01*
X131304135Y-71384080D01*
X131238064Y-71358097D01*
X131202340Y-71314310D01*
X131185535Y-71280234D01*
X131182980Y-71275053D01*
X131170330Y-71258112D01*
X131054420Y-71102891D01*
X131054420Y-71102890D01*
X131050967Y-71098267D01*
X130939911Y-70995608D01*
X130893189Y-70952418D01*
X130893186Y-70952416D01*
X130888949Y-70948499D01*
X130702350Y-70830764D01*
X130497421Y-70749006D01*
X130491761Y-70747880D01*
X130491757Y-70747879D01*
X130286691Y-70707089D01*
X130286688Y-70707089D01*
X130281024Y-70705962D01*
X130275249Y-70705886D01*
X130275245Y-70705886D01*
X130164504Y-70704437D01*
X130060406Y-70703074D01*
X130054709Y-70704053D01*
X130054708Y-70704053D01*
X129848654Y-70739459D01*
X129848653Y-70739459D01*
X129842957Y-70740438D01*
X129635957Y-70816804D01*
X129630996Y-70819756D01*
X129630995Y-70819756D01*
X129516120Y-70888100D01*
X129446341Y-70929614D01*
X129280457Y-71075090D01*
X129143863Y-71248360D01*
X129041131Y-71443620D01*
X129039418Y-71449138D01*
X129039414Y-71449148D01*
X129026392Y-71491084D01*
X128987089Y-71550210D01*
X128922060Y-71578700D01*
X128851951Y-71567510D01*
X128799021Y-71520193D01*
X128784792Y-71487925D01*
X128780565Y-71472936D01*
X128682980Y-71275053D01*
X128670330Y-71258112D01*
X128554420Y-71102891D01*
X128554420Y-71102890D01*
X128550967Y-71098267D01*
X128439911Y-70995608D01*
X128393189Y-70952418D01*
X128393186Y-70952416D01*
X128388949Y-70948499D01*
X128202350Y-70830764D01*
X127997421Y-70749006D01*
X127991761Y-70747880D01*
X127991757Y-70747879D01*
X127786691Y-70707089D01*
X127786688Y-70707089D01*
X127781024Y-70705962D01*
X127775249Y-70705886D01*
X127775245Y-70705886D01*
X127664504Y-70704437D01*
X127560406Y-70703074D01*
X127554709Y-70704053D01*
X127554708Y-70704053D01*
X127348654Y-70739459D01*
X127348653Y-70739459D01*
X127342957Y-70740438D01*
X127135957Y-70816804D01*
X127130996Y-70819756D01*
X127130995Y-70819756D01*
X127016120Y-70888100D01*
X126946341Y-70929614D01*
X126780457Y-71075090D01*
X126643863Y-71248360D01*
X126541131Y-71443620D01*
X126539418Y-71449138D01*
X126539414Y-71449148D01*
X126526392Y-71491084D01*
X126487089Y-71550210D01*
X126422060Y-71578700D01*
X126351951Y-71567510D01*
X126299021Y-71520193D01*
X126284792Y-71487925D01*
X126280565Y-71472936D01*
X126182980Y-71275053D01*
X126170330Y-71258112D01*
X126054420Y-71102891D01*
X126054420Y-71102890D01*
X126050967Y-71098267D01*
X125939911Y-70995608D01*
X125893189Y-70952418D01*
X125893186Y-70952416D01*
X125888949Y-70948499D01*
X125702350Y-70830764D01*
X125497421Y-70749006D01*
X125491761Y-70747880D01*
X125491757Y-70747879D01*
X125286691Y-70707089D01*
X125286688Y-70707089D01*
X125281024Y-70705962D01*
X125275249Y-70705886D01*
X125275245Y-70705886D01*
X125164504Y-70704437D01*
X125060406Y-70703074D01*
X125054709Y-70704053D01*
X125054708Y-70704053D01*
X124848654Y-70739459D01*
X124848653Y-70739459D01*
X124842957Y-70740438D01*
X124635957Y-70816804D01*
X124630996Y-70819756D01*
X124630995Y-70819756D01*
X124516120Y-70888100D01*
X124446341Y-70929614D01*
X124280457Y-71075090D01*
X124143863Y-71248360D01*
X124130712Y-71273356D01*
X124105113Y-71322011D01*
X124055693Y-71372983D01*
X123986561Y-71389146D01*
X123919665Y-71365367D01*
X123878723Y-71315093D01*
X123848065Y-71247034D01*
X123842894Y-71237744D01*
X123720150Y-71055425D01*
X123713481Y-71047130D01*
X123561772Y-70888100D01*
X123553814Y-70881059D01*
X123377475Y-70749859D01*
X123368438Y-70744255D01*
X123172516Y-70644643D01*
X123162665Y-70640643D01*
X122952760Y-70575466D01*
X122942376Y-70573183D01*
X122926957Y-70571139D01*
X122912793Y-70573335D01*
X122909000Y-70586522D01*
X122909000Y-73471192D01*
X122912973Y-73484723D01*
X122923580Y-73486248D01*
X123041421Y-73461523D01*
X123051617Y-73458463D01*
X123256029Y-73377737D01*
X123265561Y-73373006D01*
X123453462Y-73258984D01*
X123462052Y-73252720D01*
X123628052Y-73108673D01*
X123635472Y-73101042D01*
X123774826Y-72931089D01*
X123780850Y-72922322D01*
X123885153Y-72739088D01*
X123936235Y-72689782D01*
X124005865Y-72675920D01*
X124071936Y-72701903D01*
X124107660Y-72745690D01*
X124124465Y-72779766D01*
X124127020Y-72784947D01*
X124130474Y-72789573D01*
X124130475Y-72789574D01*
X124229603Y-72922322D01*
X124259033Y-72961733D01*
X124314353Y-73012870D01*
X124415371Y-73106250D01*
X124421051Y-73111501D01*
X124607650Y-73229236D01*
X124812579Y-73310994D01*
X124818239Y-73312120D01*
X124818243Y-73312121D01*
X125023309Y-73352911D01*
X125023312Y-73352911D01*
X125028976Y-73354038D01*
X125034751Y-73354114D01*
X125034755Y-73354114D01*
X125145496Y-73355563D01*
X125249594Y-73356926D01*
X125255292Y-73355947D01*
X125461346Y-73320541D01*
X125461347Y-73320541D01*
X125467043Y-73319562D01*
X125614219Y-73265266D01*
X125685053Y-73260454D01*
X125746925Y-73294383D01*
X128665946Y-76213405D01*
X128699972Y-76275717D01*
X128694907Y-76346533D01*
X128652360Y-76403368D01*
X128585840Y-76428179D01*
X128576851Y-76428500D01*
X126175149Y-76428500D01*
X126107028Y-76408498D01*
X126086054Y-76391595D01*
X124462872Y-74768414D01*
X124455900Y-74759688D01*
X124455442Y-74760077D01*
X124449626Y-74753243D01*
X124444835Y-74745650D01*
X124407293Y-74712494D01*
X124401606Y-74707148D01*
X124391085Y-74696627D01*
X124383513Y-74690952D01*
X124375682Y-74684576D01*
X124349474Y-74661430D01*
X124349475Y-74661430D01*
X124342745Y-74655487D01*
X124334618Y-74651671D01*
X124329281Y-74648166D01*
X124322463Y-74644070D01*
X124316880Y-74641013D01*
X124309695Y-74635628D01*
X124301290Y-74632477D01*
X124301288Y-74632476D01*
X124268546Y-74620202D01*
X124259226Y-74616275D01*
X124256010Y-74614765D01*
X124219452Y-74597601D01*
X124210582Y-74596220D01*
X124204502Y-74594361D01*
X124196781Y-74592335D01*
X124190568Y-74590969D01*
X124182157Y-74587816D01*
X124155120Y-74585807D01*
X124138324Y-74584559D01*
X124128277Y-74583405D01*
X124120855Y-74582249D01*
X124120853Y-74582249D01*
X124116044Y-74581500D01*
X124101838Y-74581500D01*
X124092501Y-74581154D01*
X124078329Y-74580101D01*
X124046326Y-74577723D01*
X124037550Y-74579596D01*
X124028593Y-74580207D01*
X124028586Y-74580101D01*
X124015333Y-74581500D01*
X111882149Y-74581500D01*
X111814028Y-74561498D01*
X111793054Y-74544595D01*
X110728405Y-73479947D01*
X110694380Y-73417635D01*
X110691500Y-73390852D01*
X110691500Y-73340752D01*
X110711502Y-73272631D01*
X110753077Y-73232467D01*
X110919694Y-73133340D01*
X110919695Y-73133339D01*
X110924659Y-73130386D01*
X111090543Y-72984910D01*
X111227137Y-72811640D01*
X111329869Y-72616380D01*
X111331584Y-72610857D01*
X111331586Y-72610852D01*
X111344608Y-72568916D01*
X111383911Y-72509790D01*
X111448940Y-72481300D01*
X111519049Y-72492490D01*
X111571979Y-72539807D01*
X111586208Y-72572075D01*
X111590435Y-72587064D01*
X111688020Y-72784947D01*
X111691474Y-72789573D01*
X111691475Y-72789574D01*
X111790603Y-72922322D01*
X111820033Y-72961733D01*
X111875353Y-73012870D01*
X111976371Y-73106250D01*
X111982051Y-73111501D01*
X112168650Y-73229236D01*
X112373579Y-73310994D01*
X112379239Y-73312120D01*
X112379243Y-73312121D01*
X112584309Y-73352911D01*
X112584312Y-73352911D01*
X112589976Y-73354038D01*
X112595751Y-73354114D01*
X112595755Y-73354114D01*
X112706496Y-73355563D01*
X112810594Y-73356926D01*
X112816292Y-73355947D01*
X113022346Y-73320541D01*
X113022347Y-73320541D01*
X113028043Y-73319562D01*
X113235043Y-73243196D01*
X113240005Y-73240244D01*
X113419694Y-73133340D01*
X113419695Y-73133339D01*
X113424659Y-73130386D01*
X113590543Y-72984910D01*
X113658917Y-72898177D01*
X113716796Y-72857064D01*
X113787716Y-72853770D01*
X113849159Y-72889341D01*
X113877390Y-72936307D01*
X113922588Y-73071784D01*
X113928761Y-73084962D01*
X114014063Y-73222807D01*
X114023099Y-73234208D01*
X114137829Y-73348739D01*
X114149240Y-73357751D01*
X114287243Y-73442816D01*
X114300424Y-73448963D01*
X114454710Y-73500138D01*
X114468086Y-73503005D01*
X114562438Y-73512672D01*
X114568854Y-73513000D01*
X114943885Y-73513000D01*
X114959124Y-73508525D01*
X114960329Y-73507135D01*
X114962000Y-73499452D01*
X114962000Y-73494884D01*
X115470000Y-73494884D01*
X115474475Y-73510123D01*
X115475865Y-73511328D01*
X115483548Y-73512999D01*
X115863095Y-73512999D01*
X115869614Y-73512662D01*
X115965206Y-73502743D01*
X115978600Y-73499851D01*
X116132784Y-73448412D01*
X116145962Y-73442239D01*
X116283807Y-73356937D01*
X116295208Y-73347901D01*
X116409739Y-73233171D01*
X116418751Y-73221760D01*
X116503816Y-73083757D01*
X116509963Y-73070576D01*
X116561138Y-72916290D01*
X116564005Y-72902914D01*
X116573672Y-72808562D01*
X116574000Y-72802146D01*
X116574000Y-72302115D01*
X116573436Y-72300193D01*
X121304410Y-72300193D01*
X121311124Y-72379325D01*
X121312914Y-72389797D01*
X121368130Y-72602535D01*
X121371665Y-72612575D01*
X121461937Y-72812970D01*
X121467106Y-72822256D01*
X121589850Y-73004575D01*
X121596519Y-73012870D01*
X121748228Y-73171900D01*
X121756186Y-73178941D01*
X121932525Y-73310141D01*
X121941562Y-73315745D01*
X122137484Y-73415357D01*
X122147335Y-73419357D01*
X122357240Y-73484534D01*
X122367624Y-73486817D01*
X122383043Y-73488861D01*
X122397207Y-73486665D01*
X122401000Y-73473478D01*
X122401000Y-72302115D01*
X122396525Y-72286876D01*
X122395135Y-72285671D01*
X122387452Y-72284000D01*
X121321151Y-72284000D01*
X121306473Y-72288310D01*
X121304410Y-72300193D01*
X116573436Y-72300193D01*
X116569525Y-72286876D01*
X116568135Y-72285671D01*
X116560452Y-72284000D01*
X115488115Y-72284000D01*
X115472876Y-72288475D01*
X115471671Y-72289865D01*
X115470000Y-72297548D01*
X115470000Y-73494884D01*
X114962000Y-73494884D01*
X114962000Y-71757885D01*
X115470000Y-71757885D01*
X115474475Y-71773124D01*
X115475865Y-71774329D01*
X115483548Y-71776000D01*
X116555884Y-71776000D01*
X116571123Y-71771525D01*
X116572328Y-71770135D01*
X116573999Y-71762452D01*
X116573999Y-71758174D01*
X121301496Y-71758174D01*
X121302915Y-71771414D01*
X121317550Y-71776000D01*
X122382885Y-71776000D01*
X122398124Y-71771525D01*
X122399329Y-71770135D01*
X122401000Y-71762452D01*
X122401000Y-70588808D01*
X122397027Y-70575277D01*
X122386420Y-70573752D01*
X122268579Y-70598477D01*
X122258383Y-70601537D01*
X122053971Y-70682263D01*
X122044439Y-70686994D01*
X121856538Y-70801016D01*
X121847948Y-70807280D01*
X121681948Y-70951327D01*
X121674528Y-70958958D01*
X121535174Y-71128911D01*
X121529150Y-71137678D01*
X121420424Y-71328682D01*
X121415959Y-71338346D01*
X121340969Y-71544941D01*
X121338198Y-71555208D01*
X121301496Y-71758174D01*
X116573999Y-71758174D01*
X116573999Y-71257905D01*
X116573662Y-71251386D01*
X116563743Y-71155794D01*
X116560851Y-71142400D01*
X116509412Y-70988216D01*
X116503239Y-70975038D01*
X116417937Y-70837193D01*
X116408901Y-70825792D01*
X116294171Y-70711261D01*
X116282760Y-70702249D01*
X116144757Y-70617184D01*
X116131576Y-70611037D01*
X115977290Y-70559862D01*
X115963914Y-70556995D01*
X115869562Y-70547328D01*
X115863145Y-70547000D01*
X115488115Y-70547000D01*
X115472876Y-70551475D01*
X115471671Y-70552865D01*
X115470000Y-70560548D01*
X115470000Y-71757885D01*
X114962000Y-71757885D01*
X114962000Y-70565116D01*
X114957525Y-70549877D01*
X114956135Y-70548672D01*
X114948452Y-70547001D01*
X114568905Y-70547001D01*
X114562386Y-70547338D01*
X114466794Y-70557257D01*
X114453400Y-70560149D01*
X114299216Y-70611588D01*
X114286038Y-70617761D01*
X114148193Y-70703063D01*
X114136792Y-70712099D01*
X114022261Y-70826829D01*
X114013249Y-70838240D01*
X113928184Y-70976243D01*
X113922037Y-70989424D01*
X113877710Y-71123065D01*
X113837279Y-71181424D01*
X113771715Y-71208661D01*
X113701833Y-71196127D01*
X113657159Y-71158786D01*
X113615420Y-71102891D01*
X113615420Y-71102890D01*
X113611967Y-71098267D01*
X113500911Y-70995608D01*
X113454189Y-70952418D01*
X113454186Y-70952416D01*
X113449949Y-70948499D01*
X113300264Y-70854055D01*
X113253326Y-70800790D01*
X113241500Y-70747494D01*
X113241500Y-70312435D01*
X113241611Y-70307159D01*
X113243727Y-70256666D01*
X113244087Y-70248081D01*
X113234662Y-70207895D01*
X113232500Y-70196229D01*
X113228067Y-70163864D01*
X113228066Y-70163862D01*
X113226901Y-70155354D01*
X113221405Y-70142653D01*
X113214373Y-70121390D01*
X113213172Y-70116271D01*
X113213171Y-70116269D01*
X113211210Y-70107907D01*
X113191319Y-70071725D01*
X113186112Y-70061095D01*
X113169720Y-70023217D01*
X113161008Y-70012458D01*
X113148520Y-69993874D01*
X113141847Y-69981737D01*
X113135165Y-69973995D01*
X113111956Y-69950786D01*
X113103130Y-69940985D01*
X113084517Y-69917999D01*
X113084515Y-69917997D01*
X113079112Y-69911325D01*
X113072110Y-69906349D01*
X113072107Y-69906346D01*
X113064865Y-69901199D01*
X113048760Y-69887590D01*
X112522793Y-69361624D01*
X112519140Y-69357814D01*
X112484934Y-69320615D01*
X112479116Y-69314288D01*
X112470417Y-69308894D01*
X112444045Y-69292543D01*
X112434262Y-69285819D01*
X112423951Y-69277992D01*
X112401396Y-69260872D01*
X112393409Y-69257710D01*
X112393406Y-69257708D01*
X112388517Y-69255772D01*
X112368516Y-69245713D01*
X112356750Y-69238418D01*
X112317119Y-69226904D01*
X112305895Y-69223060D01*
X112275516Y-69211033D01*
X112275513Y-69211032D01*
X112267528Y-69207871D01*
X112258991Y-69206974D01*
X112258984Y-69206972D01*
X112253761Y-69206423D01*
X112231784Y-69202112D01*
X112224822Y-69200089D01*
X112224820Y-69200089D01*
X112218488Y-69198249D01*
X112211673Y-69197749D01*
X112210596Y-69197669D01*
X112210583Y-69197669D01*
X112208288Y-69197500D01*
X112175461Y-69197500D01*
X112162290Y-69196810D01*
X112124338Y-69192821D01*
X112115872Y-69194253D01*
X112115869Y-69194253D01*
X112107102Y-69195736D01*
X112086090Y-69197500D01*
X106059435Y-69197500D01*
X106054159Y-69197389D01*
X106041894Y-69196875D01*
X105995081Y-69194913D01*
X105986717Y-69196875D01*
X105986016Y-69196941D01*
X105974160Y-69197500D01*
X102249435Y-69197500D01*
X102244159Y-69197389D01*
X102231894Y-69196875D01*
X102185081Y-69194913D01*
X102144895Y-69204338D01*
X102133229Y-69206500D01*
X102100864Y-69210933D01*
X102100862Y-69210934D01*
X102092354Y-69212099D01*
X102084473Y-69215510D01*
X102084471Y-69215510D01*
X102079653Y-69217595D01*
X102058390Y-69224627D01*
X102053271Y-69225828D01*
X102053269Y-69225829D01*
X102044907Y-69227790D01*
X102008725Y-69247681D01*
X101998095Y-69252888D01*
X101960217Y-69269280D01*
X101953541Y-69274686D01*
X101953539Y-69274687D01*
X101949458Y-69277992D01*
X101930874Y-69290480D01*
X101918737Y-69297153D01*
X101910995Y-69303836D01*
X101887791Y-69327040D01*
X101877991Y-69335865D01*
X101848325Y-69359888D01*
X101838194Y-69374144D01*
X101824587Y-69390244D01*
X99841636Y-71373195D01*
X99837827Y-71376848D01*
X99794288Y-71416884D01*
X99789760Y-71424187D01*
X99789759Y-71424188D01*
X99772543Y-71451955D01*
X99765820Y-71461737D01*
X99740872Y-71494604D01*
X99737710Y-71502591D01*
X99737708Y-71502594D01*
X99735772Y-71507483D01*
X99725713Y-71527484D01*
X99718418Y-71539250D01*
X99710141Y-71567739D01*
X99706905Y-71578877D01*
X99703060Y-71590105D01*
X99691033Y-71620484D01*
X99691032Y-71620487D01*
X99687871Y-71628472D01*
X99686974Y-71637009D01*
X99686972Y-71637016D01*
X99686423Y-71642239D01*
X99682112Y-71664215D01*
X99678249Y-71677512D01*
X99677766Y-71684091D01*
X99677678Y-71685289D01*
X99677500Y-71687712D01*
X99677500Y-71720539D01*
X99676810Y-71733710D01*
X99672821Y-71771662D01*
X99674253Y-71780128D01*
X99674253Y-71780131D01*
X99675736Y-71788898D01*
X99677500Y-71809910D01*
X99677500Y-79104500D01*
X99657498Y-79172621D01*
X99603842Y-79219114D01*
X99551500Y-79230500D01*
X96735463Y-79230500D01*
X96667342Y-79210498D01*
X96620849Y-79156842D01*
X96617251Y-79148111D01*
X96561401Y-78996724D01*
X96559860Y-78992547D01*
X96435420Y-78761920D01*
X96418169Y-78738563D01*
X96290634Y-78565894D01*
X96279726Y-78551126D01*
X96095884Y-78364374D01*
X95982698Y-78277993D01*
X95891107Y-78208093D01*
X95891103Y-78208090D01*
X95887562Y-78205388D01*
X95658917Y-78077340D01*
X95654768Y-78075735D01*
X95654764Y-78075733D01*
X95502947Y-78017000D01*
X95414512Y-77982787D01*
X95410191Y-77981785D01*
X95410183Y-77981783D01*
X95242069Y-77942817D01*
X95159221Y-77923614D01*
X94898141Y-77901002D01*
X94893706Y-77901246D01*
X94893702Y-77901246D01*
X94640921Y-77915157D01*
X94640914Y-77915158D01*
X94636478Y-77915402D01*
X94379456Y-77966527D01*
X94375246Y-77968005D01*
X94375244Y-77968006D01*
X94252816Y-78011000D01*
X94132201Y-78053357D01*
X94128250Y-78055410D01*
X94128244Y-78055412D01*
X94067081Y-78087184D01*
X93899647Y-78174159D01*
X93896032Y-78176742D01*
X93896026Y-78176746D01*
X93690055Y-78323935D01*
X93690051Y-78323938D01*
X93686434Y-78326523D01*
X93496816Y-78507409D01*
X93334578Y-78713208D01*
X93332346Y-78717050D01*
X93332343Y-78717055D01*
X93284909Y-78798719D01*
X93202955Y-78939813D01*
X93201290Y-78943925D01*
X93201287Y-78943930D01*
X93135054Y-79107452D01*
X93104574Y-79182703D01*
X93041399Y-79437032D01*
X93014688Y-79697726D01*
X93014863Y-79702177D01*
X93021106Y-79861053D01*
X93024977Y-79959582D01*
X93072058Y-80217376D01*
X93154994Y-80465965D01*
X93156987Y-80469953D01*
X93234018Y-80624116D01*
X93272128Y-80700387D01*
X93274657Y-80704046D01*
X93398184Y-80882775D01*
X93421124Y-80915967D01*
X93496318Y-80997311D01*
X93592642Y-81101513D01*
X93599010Y-81108402D01*
X93602464Y-81111214D01*
X93798778Y-81271039D01*
X93798782Y-81271042D01*
X93802235Y-81273853D01*
X93806057Y-81276154D01*
X93891592Y-81327650D01*
X94026745Y-81409019D01*
X94064084Y-81424830D01*
X94263962Y-81509468D01*
X94263966Y-81509469D01*
X94268060Y-81511203D01*
X94272352Y-81512341D01*
X94272355Y-81512342D01*
X94347665Y-81532310D01*
X94521365Y-81578366D01*
X94525789Y-81578890D01*
X94525791Y-81578890D01*
X94676572Y-81596736D01*
X94781607Y-81609167D01*
X95043592Y-81602993D01*
X95047986Y-81602262D01*
X95047993Y-81602261D01*
X95297692Y-81560700D01*
X95297696Y-81560699D01*
X95302094Y-81559967D01*
X95505256Y-81495715D01*
X95547709Y-81482289D01*
X95547711Y-81482288D01*
X95551955Y-81480946D01*
X95555966Y-81479020D01*
X95555971Y-81479018D01*
X95784169Y-81369439D01*
X95784170Y-81369438D01*
X95788188Y-81367509D01*
X95896544Y-81295108D01*
X96002380Y-81224391D01*
X96002384Y-81224388D01*
X96006082Y-81221917D01*
X96201287Y-81047076D01*
X96204151Y-81043669D01*
X96367043Y-80849886D01*
X96367045Y-80849884D01*
X96369910Y-80846475D01*
X96508586Y-80624116D01*
X96539600Y-80553965D01*
X96612749Y-80388503D01*
X96614547Y-80384436D01*
X96617688Y-80373300D01*
X96655428Y-80313166D01*
X96719688Y-80282982D01*
X96738957Y-80281500D01*
X100178653Y-80281500D01*
X100187880Y-80281838D01*
X100236307Y-80285394D01*
X100244725Y-80283697D01*
X100248692Y-80283447D01*
X100268195Y-80281500D01*
X107172141Y-80281500D01*
X107240262Y-80301502D01*
X107261236Y-80318405D01*
X109179195Y-82236364D01*
X109182848Y-82240173D01*
X109222884Y-82283712D01*
X109257968Y-82305465D01*
X109267736Y-82312179D01*
X109300605Y-82337128D01*
X109308586Y-82340288D01*
X109308588Y-82340289D01*
X109313474Y-82342223D01*
X109333490Y-82352291D01*
X109345250Y-82359582D01*
X109353494Y-82361977D01*
X109353496Y-82361978D01*
X109384874Y-82371094D01*
X109396103Y-82374939D01*
X109426486Y-82386968D01*
X109426488Y-82386968D01*
X109434473Y-82390130D01*
X109448098Y-82391562D01*
X109448242Y-82391577D01*
X109470222Y-82395890D01*
X109483512Y-82399751D01*
X109490093Y-82400234D01*
X109490097Y-82400235D01*
X109491404Y-82400331D01*
X109491417Y-82400331D01*
X109493712Y-82400500D01*
X109526529Y-82400500D01*
X109539700Y-82401190D01*
X109577662Y-82405180D01*
X109586128Y-82403748D01*
X109586131Y-82403748D01*
X109594904Y-82402264D01*
X109615916Y-82400500D01*
X131468500Y-82400500D01*
X131536621Y-82420502D01*
X131583114Y-82474158D01*
X131594500Y-82526500D01*
X131594500Y-86225565D01*
X131594389Y-86230841D01*
X131591913Y-86289919D01*
X131601337Y-86330097D01*
X131603500Y-86341771D01*
X131607002Y-86367335D01*
X131609099Y-86382646D01*
X131612510Y-86390527D01*
X131612510Y-86390529D01*
X131614595Y-86395347D01*
X131621627Y-86416610D01*
X131622122Y-86418719D01*
X131624790Y-86430093D01*
X131644681Y-86466275D01*
X131649888Y-86476905D01*
X131666280Y-86514783D01*
X131671686Y-86521459D01*
X131671687Y-86521461D01*
X131674992Y-86525542D01*
X131687480Y-86544126D01*
X131694153Y-86556263D01*
X131700836Y-86564005D01*
X131724040Y-86587209D01*
X131732865Y-86597009D01*
X131756888Y-86626675D01*
X131771144Y-86636806D01*
X131787244Y-86650413D01*
X133971040Y-88834209D01*
X134005066Y-88896521D01*
X133998975Y-88969994D01*
X133974006Y-89032579D01*
X133972880Y-89038239D01*
X133972879Y-89038243D01*
X133933907Y-89234169D01*
X133930962Y-89248976D01*
X133930886Y-89254751D01*
X133930886Y-89254755D01*
X133930475Y-89286188D01*
X133928074Y-89469594D01*
X133929053Y-89475291D01*
X133929053Y-89475292D01*
X133949929Y-89596782D01*
X133965438Y-89687043D01*
X134041804Y-89894043D01*
X134044756Y-89899004D01*
X134044756Y-89899005D01*
X134151626Y-90078636D01*
X134154614Y-90083659D01*
X134158424Y-90088003D01*
X134158428Y-90088009D01*
X134175789Y-90107806D01*
X134205665Y-90172210D01*
X134195978Y-90242543D01*
X134170152Y-90279977D01*
X133593624Y-90856506D01*
X133589814Y-90860159D01*
X133546288Y-90900183D01*
X133541760Y-90907486D01*
X133541759Y-90907487D01*
X133524543Y-90935254D01*
X133517820Y-90945036D01*
X133492872Y-90977903D01*
X133489710Y-90985890D01*
X133489708Y-90985893D01*
X133487772Y-90990782D01*
X133477713Y-91010783D01*
X133470418Y-91022549D01*
X133458905Y-91062176D01*
X133455060Y-91073404D01*
X133443033Y-91103783D01*
X133443032Y-91103786D01*
X133439871Y-91111771D01*
X133438974Y-91120308D01*
X133438972Y-91120315D01*
X133438423Y-91125538D01*
X133434112Y-91147514D01*
X133430249Y-91160811D01*
X133429500Y-91171011D01*
X133429500Y-91203838D01*
X133428810Y-91217009D01*
X133424821Y-91254961D01*
X133426253Y-91263427D01*
X133426253Y-91263430D01*
X133427736Y-91272197D01*
X133429500Y-91293209D01*
X133429500Y-99737565D01*
X133429389Y-99742841D01*
X133426913Y-99801919D01*
X133428875Y-99810283D01*
X133428941Y-99810984D01*
X133429500Y-99822840D01*
X133429500Y-107237565D01*
X133429389Y-107242841D01*
X133426913Y-107301919D01*
X133430372Y-107316665D01*
X133436337Y-107342097D01*
X133438500Y-107353771D01*
X133442581Y-107383561D01*
X133444099Y-107394646D01*
X133447510Y-107402527D01*
X133447510Y-107402529D01*
X133449595Y-107407347D01*
X133456627Y-107428610D01*
X133457828Y-107433729D01*
X133459790Y-107442093D01*
X133479681Y-107478275D01*
X133484888Y-107488905D01*
X133501280Y-107526783D01*
X133506686Y-107533459D01*
X133506687Y-107533461D01*
X133509992Y-107537542D01*
X133522480Y-107556126D01*
X133529153Y-107568263D01*
X133535836Y-107576005D01*
X133559040Y-107599209D01*
X133567865Y-107609009D01*
X133591888Y-107638675D01*
X133606144Y-107648806D01*
X133622244Y-107662413D01*
X133971040Y-108011209D01*
X134005066Y-108073521D01*
X133998975Y-108146994D01*
X133974006Y-108209579D01*
X133972880Y-108215239D01*
X133972879Y-108215243D01*
X133932089Y-108420309D01*
X133930962Y-108425976D01*
X133930886Y-108431751D01*
X133930886Y-108431755D01*
X133930475Y-108463188D01*
X133928074Y-108646594D01*
X133929053Y-108652291D01*
X133929053Y-108652292D01*
X133947216Y-108757993D01*
X133965438Y-108864043D01*
X134041804Y-109071043D01*
X134154614Y-109260659D01*
X134300090Y-109426543D01*
X134473360Y-109563137D01*
X134668620Y-109665869D01*
X134674143Y-109667584D01*
X134674148Y-109667586D01*
X134716084Y-109680608D01*
X134775210Y-109719911D01*
X134803700Y-109784940D01*
X134792510Y-109855049D01*
X134745193Y-109907979D01*
X134712925Y-109922208D01*
X134697936Y-109926435D01*
X134500053Y-110024020D01*
X134495427Y-110027474D01*
X134495426Y-110027475D01*
X134327891Y-110152580D01*
X134323267Y-110156033D01*
X134173499Y-110318051D01*
X134055764Y-110504650D01*
X133974006Y-110709579D01*
X133972880Y-110715239D01*
X133972879Y-110715243D01*
X133953120Y-110814581D01*
X133930962Y-110925976D01*
X133930886Y-110931751D01*
X133930886Y-110931755D01*
X133929462Y-111040580D01*
X133928074Y-111146594D01*
X133929053Y-111152291D01*
X133929053Y-111152292D01*
X133947254Y-111258214D01*
X133965438Y-111364043D01*
X134041804Y-111571043D01*
X134044756Y-111576004D01*
X134044756Y-111576005D01*
X134095023Y-111660495D01*
X134154614Y-111760659D01*
X134300090Y-111926543D01*
X134473360Y-112063137D01*
X134668620Y-112165869D01*
X134674141Y-112167583D01*
X134674145Y-112167585D01*
X134690865Y-112172777D01*
X134749990Y-112212080D01*
X134778480Y-112277109D01*
X134779500Y-112293109D01*
X134779500Y-113019627D01*
X134778261Y-113030723D01*
X134778859Y-113030771D01*
X134778139Y-113039717D01*
X134776158Y-113048473D01*
X134776714Y-113057433D01*
X134779258Y-113098440D01*
X134779500Y-113106242D01*
X134779500Y-113121145D01*
X134780841Y-113130508D01*
X134781871Y-113140566D01*
X134784592Y-113184417D01*
X134787641Y-113192862D01*
X134788932Y-113199098D01*
X134790865Y-113206849D01*
X134792646Y-113212938D01*
X134793919Y-113221829D01*
X134797636Y-113230004D01*
X134812108Y-113261836D01*
X134815920Y-113271201D01*
X134827791Y-113304083D01*
X134827793Y-113304086D01*
X134830841Y-113312530D01*
X134836136Y-113319777D01*
X134839129Y-113325407D01*
X134843132Y-113332257D01*
X134846577Y-113337644D01*
X134850294Y-113345820D01*
X134856154Y-113352620D01*
X134856154Y-113352621D01*
X134878981Y-113379113D01*
X134885266Y-113387029D01*
X134889702Y-113393101D01*
X134889708Y-113393108D01*
X134892577Y-113397035D01*
X134902618Y-113407076D01*
X134908976Y-113413923D01*
X134939204Y-113449004D01*
X134946739Y-113453888D01*
X134953501Y-113459787D01*
X134953431Y-113459867D01*
X134963794Y-113468252D01*
X137895127Y-116399586D01*
X137902098Y-116408311D01*
X137902556Y-116407921D01*
X137908375Y-116414758D01*
X137913165Y-116422350D01*
X137919894Y-116428293D01*
X137919895Y-116428294D01*
X137950699Y-116455499D01*
X137956386Y-116460845D01*
X137966915Y-116471374D01*
X137970502Y-116474062D01*
X137974485Y-116477047D01*
X137982327Y-116483432D01*
X138008527Y-116506571D01*
X138015255Y-116512513D01*
X138023381Y-116516328D01*
X138028706Y-116519826D01*
X138035546Y-116523936D01*
X138041122Y-116526988D01*
X138048305Y-116532372D01*
X138056713Y-116535524D01*
X138089454Y-116547798D01*
X138098774Y-116551725D01*
X138138548Y-116570399D01*
X138147418Y-116571780D01*
X138153498Y-116573639D01*
X138161219Y-116575665D01*
X138167432Y-116577031D01*
X138175843Y-116580184D01*
X138202880Y-116582193D01*
X138219676Y-116583441D01*
X138229723Y-116584595D01*
X138237145Y-116585751D01*
X138237147Y-116585751D01*
X138241956Y-116586500D01*
X138256162Y-116586500D01*
X138265500Y-116586846D01*
X138311674Y-116590277D01*
X138320450Y-116588404D01*
X138329407Y-116587793D01*
X138329414Y-116587899D01*
X138342667Y-116586500D01*
X140123133Y-116586500D01*
X140191254Y-116606502D01*
X140237558Y-116659747D01*
X140242810Y-116671139D01*
X140361133Y-116838563D01*
X140507986Y-116981620D01*
X140678449Y-117095520D01*
X140683752Y-117097798D01*
X140683755Y-117097800D01*
X140773324Y-117136282D01*
X140866815Y-117176449D01*
X140873927Y-117178058D01*
X140874555Y-117178408D01*
X140877941Y-117179508D01*
X140877725Y-117180173D01*
X140935954Y-117212597D01*
X140969462Y-117275188D01*
X140963811Y-117345960D01*
X140920796Y-117402442D01*
X140878736Y-117422659D01*
X140781252Y-117448780D01*
X140770963Y-117452525D01*
X140579056Y-117542012D01*
X140569561Y-117547495D01*
X140525081Y-117578640D01*
X140516706Y-117589117D01*
X140523774Y-117602564D01*
X141200188Y-118278978D01*
X141214132Y-118286592D01*
X141215965Y-118286461D01*
X141222580Y-118282210D01*
X141902947Y-117601843D01*
X141909377Y-117590068D01*
X141900084Y-117578055D01*
X141856431Y-117547488D01*
X141846953Y-117542016D01*
X141655038Y-117452525D01*
X141644745Y-117448779D01*
X141541787Y-117421192D01*
X141481164Y-117384240D01*
X141450143Y-117320380D01*
X141458571Y-117249885D01*
X141503774Y-117195138D01*
X141533896Y-117180172D01*
X141554960Y-117173022D01*
X141668659Y-117134426D01*
X141734059Y-117097800D01*
X141842495Y-117037073D01*
X141842499Y-117037070D01*
X141847533Y-117034251D01*
X141851970Y-117030561D01*
X141851974Y-117030558D01*
X142000719Y-116906848D01*
X142005157Y-116903157D01*
X142062805Y-116833843D01*
X142132558Y-116749974D01*
X142132561Y-116749970D01*
X142136251Y-116745533D01*
X142139070Y-116740499D01*
X142139073Y-116740495D01*
X142233603Y-116571700D01*
X142233603Y-116571699D01*
X142236426Y-116566659D01*
X142238282Y-116561192D01*
X142238284Y-116561187D01*
X142300470Y-116377993D01*
X142300471Y-116377988D01*
X142302326Y-116372524D01*
X142303154Y-116366815D01*
X142303155Y-116366810D01*
X142331211Y-116173305D01*
X142331744Y-116169631D01*
X142333279Y-116111000D01*
X142330584Y-116081675D01*
X142633105Y-116081675D01*
X142646513Y-116286250D01*
X142696979Y-116484957D01*
X142699396Y-116490199D01*
X142699396Y-116490200D01*
X142737862Y-116573639D01*
X142782810Y-116671139D01*
X142901133Y-116838563D01*
X143047986Y-116981620D01*
X143218449Y-117095520D01*
X143223752Y-117097798D01*
X143223755Y-117097800D01*
X143313324Y-117136282D01*
X143406815Y-117176449D01*
X143480559Y-117193136D01*
X143601137Y-117220420D01*
X143601142Y-117220421D01*
X143606774Y-117221695D01*
X143612545Y-117221922D01*
X143612547Y-117221922D01*
X143674339Y-117224350D01*
X143811631Y-117229744D01*
X143913077Y-117215035D01*
X144008810Y-117201155D01*
X144008815Y-117201154D01*
X144014524Y-117200326D01*
X144019988Y-117198471D01*
X144019993Y-117198470D01*
X144203187Y-117136284D01*
X144203192Y-117136282D01*
X144208659Y-117134426D01*
X144274059Y-117097800D01*
X144382495Y-117037073D01*
X144382499Y-117037070D01*
X144387533Y-117034251D01*
X144391970Y-117030561D01*
X144391974Y-117030558D01*
X144540719Y-116906848D01*
X144545157Y-116903157D01*
X144602805Y-116833843D01*
X144672558Y-116749974D01*
X144672561Y-116749970D01*
X144676251Y-116745533D01*
X144679070Y-116740499D01*
X144679073Y-116740495D01*
X144773603Y-116571700D01*
X144773603Y-116571699D01*
X144776426Y-116566659D01*
X144778282Y-116561192D01*
X144778284Y-116561187D01*
X144840470Y-116377993D01*
X144840471Y-116377988D01*
X144842326Y-116372524D01*
X144843154Y-116366815D01*
X144843155Y-116366810D01*
X144871211Y-116173305D01*
X144871744Y-116169631D01*
X144873279Y-116111000D01*
X144854520Y-115906845D01*
X144844852Y-115872564D01*
X144800441Y-115715093D01*
X144800439Y-115715088D01*
X144798871Y-115709528D01*
X144708195Y-115525656D01*
X144585530Y-115361387D01*
X144434983Y-115222223D01*
X144261596Y-115112824D01*
X144071176Y-115036854D01*
X144065516Y-115035728D01*
X144065512Y-115035727D01*
X143875769Y-114997985D01*
X143875764Y-114997985D01*
X143870101Y-114996858D01*
X143864326Y-114996782D01*
X143864322Y-114996782D01*
X143761605Y-114995437D01*
X143665104Y-114994174D01*
X143659407Y-114995153D01*
X143659406Y-114995153D01*
X143468747Y-115027915D01*
X143463050Y-115028894D01*
X143270707Y-115099853D01*
X143094517Y-115204675D01*
X142940378Y-115339851D01*
X142936811Y-115344376D01*
X142936806Y-115344381D01*
X142817033Y-115496313D01*
X142813455Y-115500852D01*
X142717997Y-115682288D01*
X142657202Y-115878081D01*
X142633105Y-116081675D01*
X142330584Y-116081675D01*
X142314520Y-115906845D01*
X142304852Y-115872564D01*
X142260441Y-115715093D01*
X142260439Y-115715088D01*
X142258871Y-115709528D01*
X142168195Y-115525656D01*
X142045530Y-115361387D01*
X141894983Y-115222223D01*
X141721596Y-115112824D01*
X141531176Y-115036854D01*
X141525516Y-115035728D01*
X141525512Y-115035727D01*
X141335769Y-114997985D01*
X141335764Y-114997985D01*
X141330101Y-114996858D01*
X141324326Y-114996782D01*
X141324322Y-114996782D01*
X141221605Y-114995437D01*
X141125104Y-114994174D01*
X141119407Y-114995153D01*
X141119406Y-114995153D01*
X140928747Y-115027915D01*
X140923050Y-115028894D01*
X140730707Y-115099853D01*
X140554517Y-115204675D01*
X140400378Y-115339851D01*
X140396811Y-115344376D01*
X140396806Y-115344381D01*
X140309948Y-115454561D01*
X140273455Y-115500852D01*
X140270766Y-115505963D01*
X140270764Y-115505966D01*
X140238038Y-115568168D01*
X140188618Y-115619140D01*
X140126530Y-115635500D01*
X138528148Y-115635500D01*
X138460027Y-115615498D01*
X138439053Y-115598595D01*
X136382133Y-113541675D01*
X140093105Y-113541675D01*
X140106513Y-113746250D01*
X140156979Y-113944957D01*
X140242810Y-114131139D01*
X140361133Y-114298563D01*
X140507986Y-114441620D01*
X140678449Y-114555520D01*
X140683752Y-114557798D01*
X140683755Y-114557800D01*
X140773329Y-114596284D01*
X140866815Y-114636449D01*
X140940559Y-114653136D01*
X141061137Y-114680420D01*
X141061142Y-114680421D01*
X141066774Y-114681695D01*
X141072545Y-114681922D01*
X141072547Y-114681922D01*
X141134339Y-114684350D01*
X141271631Y-114689744D01*
X141373077Y-114675035D01*
X141468810Y-114661155D01*
X141468815Y-114661154D01*
X141474524Y-114660326D01*
X141479988Y-114658471D01*
X141479993Y-114658470D01*
X141663187Y-114596284D01*
X141663192Y-114596282D01*
X141668659Y-114594426D01*
X141734059Y-114557800D01*
X141842495Y-114497073D01*
X141842499Y-114497070D01*
X141847533Y-114494251D01*
X141851970Y-114490561D01*
X141851974Y-114490558D01*
X142000719Y-114366848D01*
X142005157Y-114363157D01*
X142062805Y-114293843D01*
X142132558Y-114209974D01*
X142132561Y-114209970D01*
X142136251Y-114205533D01*
X142139070Y-114200499D01*
X142139073Y-114200495D01*
X142233603Y-114031700D01*
X142233603Y-114031699D01*
X142236426Y-114026659D01*
X142238282Y-114021192D01*
X142238284Y-114021187D01*
X142300470Y-113837993D01*
X142300471Y-113837988D01*
X142302326Y-113832524D01*
X142303154Y-113826815D01*
X142303155Y-113826810D01*
X142331211Y-113633305D01*
X142331744Y-113629631D01*
X142333279Y-113571000D01*
X142330584Y-113541675D01*
X142633105Y-113541675D01*
X142646513Y-113746250D01*
X142696979Y-113944957D01*
X142782810Y-114131139D01*
X142901133Y-114298563D01*
X143047986Y-114441620D01*
X143218449Y-114555520D01*
X143223752Y-114557798D01*
X143223755Y-114557800D01*
X143313329Y-114596284D01*
X143406815Y-114636449D01*
X143480559Y-114653136D01*
X143601137Y-114680420D01*
X143601142Y-114680421D01*
X143606774Y-114681695D01*
X143612545Y-114681922D01*
X143612547Y-114681922D01*
X143674339Y-114684350D01*
X143811631Y-114689744D01*
X143913077Y-114675035D01*
X144008810Y-114661155D01*
X144008815Y-114661154D01*
X144014524Y-114660326D01*
X144019988Y-114658471D01*
X144019993Y-114658470D01*
X144203187Y-114596284D01*
X144203192Y-114596282D01*
X144208659Y-114594426D01*
X144274059Y-114557800D01*
X144382495Y-114497073D01*
X144382499Y-114497070D01*
X144387533Y-114494251D01*
X144391970Y-114490561D01*
X144391974Y-114490558D01*
X144540719Y-114366848D01*
X144545157Y-114363157D01*
X144602805Y-114293843D01*
X144672558Y-114209974D01*
X144672561Y-114209970D01*
X144676251Y-114205533D01*
X144679070Y-114200499D01*
X144679073Y-114200495D01*
X144773603Y-114031700D01*
X144773603Y-114031699D01*
X144776426Y-114026659D01*
X144778282Y-114021192D01*
X144778284Y-114021187D01*
X144840470Y-113837993D01*
X144840471Y-113837988D01*
X144842326Y-113832524D01*
X144843154Y-113826815D01*
X144843155Y-113826810D01*
X144871211Y-113633305D01*
X144871744Y-113629631D01*
X144873279Y-113571000D01*
X144854520Y-113366845D01*
X144852951Y-113361281D01*
X144800441Y-113175093D01*
X144800439Y-113175088D01*
X144798871Y-113169528D01*
X144708195Y-112985656D01*
X144585530Y-112821387D01*
X144434983Y-112682223D01*
X144261596Y-112572824D01*
X144201788Y-112548963D01*
X144073818Y-112497908D01*
X144017958Y-112454087D01*
X143994658Y-112387023D01*
X144011314Y-112318008D01*
X144062638Y-112268953D01*
X144087897Y-112259171D01*
X144184745Y-112233221D01*
X144195038Y-112229475D01*
X144386953Y-112139984D01*
X144396431Y-112134512D01*
X144440920Y-112103359D01*
X144449294Y-112092883D01*
X144442226Y-112079436D01*
X143765812Y-111403022D01*
X143751868Y-111395408D01*
X143750035Y-111395539D01*
X143743420Y-111399790D01*
X143063053Y-112080157D01*
X143056623Y-112091932D01*
X143065916Y-112103945D01*
X143109569Y-112134512D01*
X143119047Y-112139984D01*
X143310962Y-112229475D01*
X143321255Y-112233221D01*
X143421758Y-112260150D01*
X143482380Y-112297101D01*
X143513402Y-112360962D01*
X143504974Y-112431456D01*
X143459771Y-112486203D01*
X143432758Y-112500069D01*
X143304533Y-112547374D01*
X143270707Y-112559853D01*
X143094517Y-112664675D01*
X142940378Y-112799851D01*
X142936811Y-112804376D01*
X142936806Y-112804381D01*
X142817033Y-112956313D01*
X142813455Y-112960852D01*
X142810764Y-112965968D01*
X142810762Y-112965970D01*
X142731481Y-113116659D01*
X142717997Y-113142288D01*
X142657202Y-113338081D01*
X142633105Y-113541675D01*
X142330584Y-113541675D01*
X142314520Y-113366845D01*
X142312951Y-113361281D01*
X142260441Y-113175093D01*
X142260439Y-113175088D01*
X142258871Y-113169528D01*
X142168195Y-112985656D01*
X142045530Y-112821387D01*
X141894983Y-112682223D01*
X141721596Y-112572824D01*
X141626386Y-112534839D01*
X141536540Y-112498994D01*
X141531176Y-112496854D01*
X141525516Y-112495728D01*
X141525512Y-112495727D01*
X141335769Y-112457985D01*
X141335764Y-112457985D01*
X141330101Y-112456858D01*
X141324326Y-112456782D01*
X141324322Y-112456782D01*
X141221605Y-112455437D01*
X141125104Y-112454174D01*
X141119407Y-112455153D01*
X141119406Y-112455153D01*
X140938710Y-112486203D01*
X140923050Y-112488894D01*
X140730707Y-112559853D01*
X140554517Y-112664675D01*
X140400378Y-112799851D01*
X140396811Y-112804376D01*
X140396806Y-112804381D01*
X140277033Y-112956313D01*
X140273455Y-112960852D01*
X140270764Y-112965968D01*
X140270762Y-112965970D01*
X140191481Y-113116659D01*
X140177997Y-113142288D01*
X140117202Y-113338081D01*
X140093105Y-113541675D01*
X136382133Y-113541675D01*
X135767405Y-112926947D01*
X135733379Y-112864635D01*
X135730500Y-112837852D01*
X135730500Y-112294906D01*
X135750502Y-112226785D01*
X135804158Y-112180292D01*
X135807767Y-112178777D01*
X135812064Y-112177565D01*
X136009947Y-112079980D01*
X136032503Y-112063137D01*
X136182109Y-111951420D01*
X136182110Y-111951420D01*
X136186733Y-111947967D01*
X136336501Y-111785949D01*
X136454236Y-111599350D01*
X136535994Y-111394421D01*
X136561332Y-111267042D01*
X136577911Y-111183691D01*
X136577911Y-111183688D01*
X136579038Y-111178024D01*
X136579450Y-111146594D01*
X136581346Y-111001675D01*
X140093105Y-111001675D01*
X140106513Y-111206250D01*
X140156979Y-111404957D01*
X140242810Y-111591139D01*
X140246143Y-111595855D01*
X140333116Y-111718919D01*
X140361133Y-111758563D01*
X140507986Y-111901620D01*
X140678449Y-112015520D01*
X140683752Y-112017798D01*
X140683755Y-112017800D01*
X140856301Y-112091932D01*
X140866815Y-112096449D01*
X140899943Y-112103945D01*
X141061137Y-112140420D01*
X141061142Y-112140421D01*
X141066774Y-112141695D01*
X141072545Y-112141922D01*
X141072547Y-112141922D01*
X141134339Y-112144350D01*
X141271631Y-112149744D01*
X141376685Y-112134512D01*
X141468810Y-112121155D01*
X141468815Y-112121154D01*
X141474524Y-112120326D01*
X141479988Y-112118471D01*
X141479993Y-112118470D01*
X141663187Y-112056284D01*
X141663192Y-112056282D01*
X141668659Y-112054426D01*
X141734059Y-112017800D01*
X141842495Y-111957073D01*
X141842499Y-111957070D01*
X141847533Y-111954251D01*
X141851970Y-111950561D01*
X141851974Y-111950558D01*
X142000719Y-111826848D01*
X142005157Y-111823157D01*
X142032576Y-111790189D01*
X142132558Y-111669974D01*
X142132561Y-111669970D01*
X142136251Y-111665533D01*
X142139070Y-111660499D01*
X142139073Y-111660495D01*
X142233603Y-111491700D01*
X142233603Y-111491699D01*
X142236426Y-111486659D01*
X142282172Y-111351896D01*
X142323009Y-111293820D01*
X142388762Y-111267042D01*
X142458555Y-111280063D01*
X142510228Y-111328750D01*
X142523192Y-111359787D01*
X142550779Y-111462745D01*
X142554525Y-111473037D01*
X142644012Y-111664944D01*
X142649495Y-111674439D01*
X142680640Y-111718919D01*
X142691117Y-111727294D01*
X142704564Y-111720226D01*
X143380978Y-111043812D01*
X143387356Y-111032132D01*
X144117408Y-111032132D01*
X144117539Y-111033965D01*
X144121790Y-111040580D01*
X144802157Y-111720947D01*
X144813932Y-111727377D01*
X144825947Y-111718081D01*
X144856505Y-111674439D01*
X144861988Y-111664944D01*
X144951475Y-111473037D01*
X144955221Y-111462745D01*
X145010025Y-111258214D01*
X145011928Y-111247419D01*
X145030384Y-111036475D01*
X145030384Y-111025525D01*
X145011928Y-110814581D01*
X145010025Y-110803786D01*
X144955221Y-110599255D01*
X144951475Y-110588963D01*
X144861988Y-110397056D01*
X144856505Y-110387561D01*
X144825360Y-110343081D01*
X144814883Y-110334706D01*
X144801436Y-110341774D01*
X144125022Y-111018188D01*
X144117408Y-111032132D01*
X143387356Y-111032132D01*
X143388592Y-111029868D01*
X143388461Y-111028035D01*
X143384210Y-111021420D01*
X142703843Y-110341053D01*
X142692068Y-110334623D01*
X142680053Y-110343919D01*
X142649495Y-110387561D01*
X142644012Y-110397056D01*
X142554525Y-110588963D01*
X142550779Y-110599255D01*
X142522998Y-110702935D01*
X142486046Y-110763558D01*
X142422185Y-110794579D01*
X142351691Y-110786151D01*
X142296944Y-110740948D01*
X142280024Y-110704532D01*
X142258871Y-110629528D01*
X142168195Y-110445656D01*
X142045530Y-110281387D01*
X141909923Y-110156033D01*
X141899223Y-110146142D01*
X141899220Y-110146140D01*
X141894983Y-110142223D01*
X141721596Y-110032824D01*
X141531176Y-109956854D01*
X141525516Y-109955728D01*
X141525512Y-109955727D01*
X141335769Y-109917985D01*
X141335764Y-109917985D01*
X141330101Y-109916858D01*
X141324326Y-109916782D01*
X141324322Y-109916782D01*
X141221605Y-109915437D01*
X141125104Y-109914174D01*
X141119407Y-109915153D01*
X141119406Y-109915153D01*
X140970019Y-109940823D01*
X140923050Y-109948894D01*
X140730707Y-110019853D01*
X140725746Y-110022805D01*
X140725745Y-110022805D01*
X140689382Y-110044439D01*
X140554517Y-110124675D01*
X140400378Y-110259851D01*
X140396811Y-110264376D01*
X140396806Y-110264381D01*
X140292214Y-110397056D01*
X140273455Y-110420852D01*
X140270764Y-110425968D01*
X140270762Y-110425970D01*
X140180689Y-110597171D01*
X140177997Y-110602288D01*
X140117202Y-110798081D01*
X140093105Y-111001675D01*
X136581346Y-111001675D01*
X136581926Y-110957406D01*
X136580947Y-110951708D01*
X136545541Y-110745654D01*
X136545541Y-110745653D01*
X136544562Y-110739957D01*
X136468196Y-110532957D01*
X136448450Y-110499767D01*
X136358340Y-110348306D01*
X136358339Y-110348305D01*
X136355386Y-110343341D01*
X136209910Y-110177457D01*
X136036640Y-110040863D01*
X135841380Y-109938131D01*
X135835857Y-109936416D01*
X135835852Y-109936414D01*
X135793916Y-109923392D01*
X135734790Y-109884089D01*
X135706300Y-109819060D01*
X135717490Y-109748951D01*
X135764807Y-109696021D01*
X135797075Y-109681792D01*
X135812064Y-109677565D01*
X136009947Y-109579980D01*
X136032503Y-109563137D01*
X136182109Y-109451420D01*
X136182110Y-109451420D01*
X136186733Y-109447967D01*
X136336501Y-109285949D01*
X136454236Y-109099350D01*
X136535994Y-108894421D01*
X136579038Y-108678024D01*
X136579450Y-108646594D01*
X136581486Y-108491000D01*
X136581926Y-108457406D01*
X136580947Y-108451708D01*
X136545541Y-108245654D01*
X136545541Y-108245653D01*
X136544562Y-108239957D01*
X136468196Y-108032957D01*
X136355386Y-107843341D01*
X136209910Y-107677457D01*
X136036640Y-107540863D01*
X135962989Y-107502113D01*
X135912017Y-107452693D01*
X135895854Y-107383561D01*
X135919633Y-107316665D01*
X135969907Y-107275723D01*
X136037966Y-107245065D01*
X136047256Y-107239894D01*
X136229575Y-107117150D01*
X136237870Y-107110481D01*
X136396900Y-106958772D01*
X136403941Y-106950814D01*
X136535141Y-106774475D01*
X136540745Y-106765438D01*
X136640357Y-106569516D01*
X136644357Y-106559665D01*
X136709534Y-106349760D01*
X136711817Y-106339376D01*
X136713861Y-106323957D01*
X136711665Y-106309793D01*
X136698478Y-106306000D01*
X135127000Y-106306000D01*
X135058879Y-106285998D01*
X135012386Y-106232342D01*
X135001000Y-106180000D01*
X135001000Y-105924000D01*
X135021002Y-105855879D01*
X135074658Y-105809386D01*
X135127000Y-105798000D01*
X136696192Y-105798000D01*
X136709723Y-105794027D01*
X136711248Y-105783420D01*
X136686523Y-105665579D01*
X136683463Y-105655383D01*
X136602737Y-105450971D01*
X136598006Y-105441439D01*
X136483984Y-105253538D01*
X136477720Y-105244948D01*
X136333673Y-105078948D01*
X136326042Y-105071528D01*
X136156089Y-104932174D01*
X136147322Y-104926150D01*
X135964088Y-104821847D01*
X135914782Y-104770765D01*
X135900920Y-104701135D01*
X135926903Y-104635064D01*
X135970690Y-104599340D01*
X136004766Y-104582535D01*
X136009947Y-104579980D01*
X136100184Y-104512597D01*
X136182109Y-104451420D01*
X136182110Y-104451420D01*
X136186733Y-104447967D01*
X136190651Y-104443729D01*
X136190655Y-104443725D01*
X136247062Y-104382705D01*
X136307990Y-104346260D01*
X136378950Y-104348541D01*
X136428681Y-104379139D01*
X138281883Y-106232342D01*
X140108520Y-108058979D01*
X140142546Y-108121291D01*
X140139758Y-108185437D01*
X140117202Y-108258081D01*
X140093105Y-108461675D01*
X140106513Y-108666250D01*
X140156979Y-108864957D01*
X140242810Y-109051139D01*
X140361133Y-109218563D01*
X140507986Y-109361620D01*
X140678449Y-109475520D01*
X140683752Y-109477798D01*
X140683755Y-109477800D01*
X140773324Y-109516282D01*
X140866815Y-109556449D01*
X140940559Y-109573136D01*
X141061137Y-109600420D01*
X141061142Y-109600421D01*
X141066774Y-109601695D01*
X141072545Y-109601922D01*
X141072547Y-109601922D01*
X141134339Y-109604350D01*
X141271631Y-109609744D01*
X141373077Y-109595035D01*
X141468810Y-109581155D01*
X141468815Y-109581154D01*
X141474524Y-109580326D01*
X141479988Y-109578471D01*
X141479993Y-109578470D01*
X141663187Y-109516284D01*
X141663192Y-109516282D01*
X141668659Y-109514426D01*
X141734059Y-109477800D01*
X141842495Y-109417073D01*
X141842499Y-109417070D01*
X141847533Y-109414251D01*
X141851970Y-109410561D01*
X141851974Y-109410558D01*
X142000719Y-109286848D01*
X142005157Y-109283157D01*
X142062805Y-109213843D01*
X142132558Y-109129974D01*
X142132561Y-109129970D01*
X142136251Y-109125533D01*
X142139070Y-109120499D01*
X142139073Y-109120495D01*
X142233603Y-108951700D01*
X142233603Y-108951699D01*
X142236426Y-108946659D01*
X142238282Y-108941192D01*
X142238284Y-108941187D01*
X142300470Y-108757993D01*
X142300471Y-108757988D01*
X142302326Y-108752524D01*
X142303154Y-108746815D01*
X142303155Y-108746810D01*
X142331211Y-108553305D01*
X142331744Y-108549631D01*
X142333279Y-108491000D01*
X142330584Y-108461675D01*
X142633105Y-108461675D01*
X142646513Y-108666250D01*
X142696979Y-108864957D01*
X142782810Y-109051139D01*
X142901133Y-109218563D01*
X143047986Y-109361620D01*
X143218449Y-109475520D01*
X143223752Y-109477798D01*
X143223755Y-109477800D01*
X143313324Y-109516282D01*
X143406815Y-109556449D01*
X143413927Y-109558058D01*
X143414555Y-109558408D01*
X143417941Y-109559508D01*
X143417725Y-109560173D01*
X143475954Y-109592597D01*
X143509462Y-109655188D01*
X143503811Y-109725960D01*
X143460796Y-109782442D01*
X143418736Y-109802659D01*
X143321252Y-109828780D01*
X143310963Y-109832525D01*
X143119056Y-109922012D01*
X143109561Y-109927495D01*
X143065081Y-109958640D01*
X143056706Y-109969117D01*
X143063774Y-109982564D01*
X143740188Y-110658978D01*
X143754132Y-110666592D01*
X143755965Y-110666461D01*
X143762580Y-110662210D01*
X144442947Y-109981843D01*
X144449377Y-109970068D01*
X144440084Y-109958055D01*
X144396431Y-109927488D01*
X144386953Y-109922016D01*
X144195038Y-109832525D01*
X144184745Y-109828779D01*
X144081787Y-109801192D01*
X144021164Y-109764240D01*
X143990143Y-109700380D01*
X143998571Y-109629885D01*
X144043774Y-109575138D01*
X144073896Y-109560172D01*
X144094960Y-109553022D01*
X144208659Y-109514426D01*
X144274059Y-109477800D01*
X144382495Y-109417073D01*
X144382499Y-109417070D01*
X144387533Y-109414251D01*
X144391970Y-109410561D01*
X144391974Y-109410558D01*
X144540719Y-109286848D01*
X144545157Y-109283157D01*
X144602805Y-109213843D01*
X144672558Y-109129974D01*
X144672561Y-109129970D01*
X144676251Y-109125533D01*
X144679070Y-109120499D01*
X144679073Y-109120495D01*
X144773603Y-108951700D01*
X144773603Y-108951699D01*
X144776426Y-108946659D01*
X144778282Y-108941192D01*
X144778284Y-108941187D01*
X144840470Y-108757993D01*
X144840471Y-108757988D01*
X144842326Y-108752524D01*
X144843154Y-108746815D01*
X144843155Y-108746810D01*
X144871211Y-108553305D01*
X144871744Y-108549631D01*
X144873279Y-108491000D01*
X144854520Y-108286845D01*
X144842903Y-108245654D01*
X144800441Y-108095093D01*
X144800439Y-108095088D01*
X144798871Y-108089528D01*
X144708195Y-107905656D01*
X144585530Y-107741387D01*
X144485372Y-107648802D01*
X144439223Y-107606142D01*
X144439220Y-107606140D01*
X144434983Y-107602223D01*
X144261596Y-107492824D01*
X144161007Y-107452693D01*
X144073818Y-107417908D01*
X144017958Y-107374087D01*
X143994658Y-107307023D01*
X144011314Y-107238008D01*
X144062638Y-107188953D01*
X144087897Y-107179171D01*
X144184745Y-107153221D01*
X144195038Y-107149475D01*
X144386953Y-107059984D01*
X144396431Y-107054512D01*
X144440920Y-107023359D01*
X144449294Y-107012883D01*
X144442226Y-106999436D01*
X143765812Y-106323022D01*
X143751868Y-106315408D01*
X143750035Y-106315539D01*
X143743420Y-106319790D01*
X143063053Y-107000157D01*
X143056623Y-107011932D01*
X143065916Y-107023945D01*
X143109569Y-107054512D01*
X143119047Y-107059984D01*
X143310962Y-107149475D01*
X143321255Y-107153221D01*
X143421758Y-107180150D01*
X143482380Y-107217101D01*
X143513402Y-107280962D01*
X143504974Y-107351456D01*
X143459771Y-107406203D01*
X143432758Y-107420069D01*
X143373060Y-107442093D01*
X143270707Y-107479853D01*
X143265746Y-107482805D01*
X143265745Y-107482805D01*
X143106332Y-107577646D01*
X143094517Y-107584675D01*
X142940378Y-107719851D01*
X142936811Y-107724376D01*
X142936806Y-107724381D01*
X142843026Y-107843341D01*
X142813455Y-107880852D01*
X142717997Y-108062288D01*
X142657202Y-108258081D01*
X142633105Y-108461675D01*
X142330584Y-108461675D01*
X142314520Y-108286845D01*
X142302903Y-108245654D01*
X142260441Y-108095093D01*
X142260439Y-108095088D01*
X142258871Y-108089528D01*
X142168195Y-107905656D01*
X142045530Y-107741387D01*
X141945372Y-107648802D01*
X141899223Y-107606142D01*
X141899220Y-107606140D01*
X141894983Y-107602223D01*
X141721596Y-107492824D01*
X141560643Y-107428610D01*
X141536540Y-107418994D01*
X141531176Y-107416854D01*
X141525516Y-107415728D01*
X141525512Y-107415727D01*
X141335769Y-107377985D01*
X141335764Y-107377985D01*
X141330101Y-107376858D01*
X141324326Y-107376782D01*
X141324322Y-107376782D01*
X141221605Y-107375437D01*
X141125104Y-107374174D01*
X141119407Y-107375153D01*
X141119406Y-107375153D01*
X140928740Y-107407916D01*
X140928737Y-107407917D01*
X140923050Y-107408894D01*
X140911285Y-107413234D01*
X140840455Y-107418049D01*
X140778577Y-107384119D01*
X140529168Y-107134710D01*
X140495142Y-107072398D01*
X140500207Y-107001583D01*
X140542754Y-106944747D01*
X140609274Y-106919936D01*
X140677073Y-106934601D01*
X140678449Y-106935520D01*
X140683752Y-106937798D01*
X140683755Y-106937800D01*
X140856301Y-107011932D01*
X140866815Y-107016449D01*
X140899943Y-107023945D01*
X141061137Y-107060420D01*
X141061142Y-107060421D01*
X141066774Y-107061695D01*
X141072545Y-107061922D01*
X141072547Y-107061922D01*
X141134339Y-107064350D01*
X141271631Y-107069744D01*
X141376685Y-107054512D01*
X141468810Y-107041155D01*
X141468815Y-107041154D01*
X141474524Y-107040326D01*
X141479988Y-107038471D01*
X141479993Y-107038470D01*
X141663187Y-106976284D01*
X141663192Y-106976282D01*
X141668659Y-106974426D01*
X141710821Y-106950814D01*
X141842495Y-106877073D01*
X141842499Y-106877070D01*
X141847533Y-106874251D01*
X141851970Y-106870561D01*
X141851974Y-106870558D01*
X142000719Y-106746848D01*
X142005157Y-106743157D01*
X142058879Y-106678563D01*
X142132558Y-106589974D01*
X142132561Y-106589970D01*
X142136251Y-106585533D01*
X142139070Y-106580499D01*
X142139073Y-106580495D01*
X142233603Y-106411700D01*
X142233603Y-106411699D01*
X142236426Y-106406659D01*
X142282172Y-106271896D01*
X142323009Y-106213820D01*
X142388762Y-106187042D01*
X142458555Y-106200063D01*
X142510228Y-106248750D01*
X142523192Y-106279787D01*
X142550779Y-106382745D01*
X142554525Y-106393037D01*
X142644012Y-106584944D01*
X142649495Y-106594439D01*
X142680640Y-106638919D01*
X142691117Y-106647294D01*
X142704564Y-106640226D01*
X143380978Y-105963812D01*
X143387356Y-105952132D01*
X144117408Y-105952132D01*
X144117539Y-105953965D01*
X144121790Y-105960580D01*
X144802157Y-106640947D01*
X144813932Y-106647377D01*
X144825947Y-106638081D01*
X144856505Y-106594439D01*
X144861988Y-106584944D01*
X144951475Y-106393037D01*
X144955221Y-106382745D01*
X145010025Y-106178214D01*
X145011928Y-106167419D01*
X145030384Y-105956475D01*
X145030384Y-105945525D01*
X145011928Y-105734581D01*
X145010025Y-105723786D01*
X144955221Y-105519255D01*
X144951475Y-105508963D01*
X144861988Y-105317056D01*
X144856505Y-105307561D01*
X144825360Y-105263081D01*
X144814883Y-105254706D01*
X144801436Y-105261774D01*
X144125022Y-105938188D01*
X144117408Y-105952132D01*
X143387356Y-105952132D01*
X143388592Y-105949868D01*
X143388461Y-105948035D01*
X143384210Y-105941420D01*
X142703843Y-105261053D01*
X142692068Y-105254623D01*
X142680053Y-105263919D01*
X142649495Y-105307561D01*
X142644012Y-105317056D01*
X142554525Y-105508963D01*
X142550779Y-105519255D01*
X142522998Y-105622935D01*
X142486046Y-105683558D01*
X142422185Y-105714579D01*
X142351691Y-105706151D01*
X142296944Y-105660948D01*
X142280024Y-105624532D01*
X142258871Y-105549528D01*
X142168195Y-105365656D01*
X142045530Y-105201387D01*
X141906911Y-105073249D01*
X141899223Y-105066142D01*
X141899220Y-105066140D01*
X141894983Y-105062223D01*
X141721596Y-104952824D01*
X141626386Y-104914839D01*
X141536540Y-104878994D01*
X141531176Y-104876854D01*
X141525516Y-104875728D01*
X141525512Y-104875727D01*
X141335769Y-104837985D01*
X141335764Y-104837985D01*
X141330101Y-104836858D01*
X141324326Y-104836782D01*
X141324322Y-104836782D01*
X141221605Y-104835437D01*
X141125104Y-104834174D01*
X141119407Y-104835153D01*
X141119406Y-104835153D01*
X140928740Y-104867916D01*
X140928737Y-104867917D01*
X140923050Y-104868894D01*
X140911285Y-104873234D01*
X140840455Y-104878049D01*
X140778577Y-104844119D01*
X140529168Y-104594710D01*
X140495142Y-104532398D01*
X140500207Y-104461583D01*
X140542754Y-104404747D01*
X140609274Y-104379936D01*
X140677073Y-104394601D01*
X140678449Y-104395520D01*
X140683752Y-104397798D01*
X140683755Y-104397800D01*
X140861508Y-104474169D01*
X140866815Y-104476449D01*
X140940559Y-104493136D01*
X141061137Y-104520420D01*
X141061142Y-104520421D01*
X141066774Y-104521695D01*
X141072545Y-104521922D01*
X141072547Y-104521922D01*
X141134339Y-104524350D01*
X141271631Y-104529744D01*
X141373078Y-104515035D01*
X141468810Y-104501155D01*
X141468815Y-104501154D01*
X141474524Y-104500326D01*
X141479988Y-104498471D01*
X141479993Y-104498470D01*
X141663187Y-104436284D01*
X141663192Y-104436282D01*
X141668659Y-104434426D01*
X141673700Y-104431603D01*
X141842495Y-104337073D01*
X141842499Y-104337070D01*
X141847533Y-104334251D01*
X141851970Y-104330561D01*
X141851974Y-104330558D01*
X142000719Y-104206848D01*
X142005157Y-104203157D01*
X142062805Y-104133843D01*
X142132558Y-104049974D01*
X142132561Y-104049970D01*
X142136251Y-104045533D01*
X142139070Y-104040499D01*
X142139073Y-104040495D01*
X142233603Y-103871700D01*
X142233603Y-103871699D01*
X142236426Y-103866659D01*
X142238282Y-103861192D01*
X142238284Y-103861187D01*
X142300470Y-103677993D01*
X142300471Y-103677988D01*
X142302326Y-103672524D01*
X142303154Y-103666815D01*
X142303155Y-103666810D01*
X142331211Y-103473305D01*
X142331744Y-103469631D01*
X142333279Y-103411000D01*
X142330584Y-103381675D01*
X142633105Y-103381675D01*
X142646513Y-103586250D01*
X142696979Y-103784957D01*
X142782810Y-103971139D01*
X142901133Y-104138563D01*
X143047986Y-104281620D01*
X143052790Y-104284830D01*
X143121227Y-104330558D01*
X143218449Y-104395520D01*
X143223752Y-104397798D01*
X143223755Y-104397800D01*
X143401508Y-104474169D01*
X143406815Y-104476449D01*
X143413927Y-104478058D01*
X143414555Y-104478408D01*
X143417941Y-104479508D01*
X143417725Y-104480173D01*
X143475954Y-104512597D01*
X143509462Y-104575188D01*
X143503811Y-104645960D01*
X143460796Y-104702442D01*
X143418736Y-104722659D01*
X143321252Y-104748780D01*
X143310963Y-104752525D01*
X143119056Y-104842012D01*
X143109561Y-104847495D01*
X143065081Y-104878640D01*
X143056706Y-104889117D01*
X143063774Y-104902564D01*
X143740188Y-105578978D01*
X143754132Y-105586592D01*
X143755965Y-105586461D01*
X143762580Y-105582210D01*
X144442947Y-104901843D01*
X144449377Y-104890068D01*
X144440084Y-104878055D01*
X144396431Y-104847488D01*
X144386953Y-104842016D01*
X144195038Y-104752525D01*
X144184745Y-104748779D01*
X144081787Y-104721192D01*
X144021164Y-104684240D01*
X143990143Y-104620380D01*
X143998571Y-104549885D01*
X144043774Y-104495138D01*
X144073896Y-104480172D01*
X144158596Y-104451420D01*
X144208659Y-104434426D01*
X144213700Y-104431603D01*
X144382495Y-104337073D01*
X144382499Y-104337070D01*
X144387533Y-104334251D01*
X144391970Y-104330561D01*
X144391974Y-104330558D01*
X144540719Y-104206848D01*
X144545157Y-104203157D01*
X144602805Y-104133843D01*
X144672558Y-104049974D01*
X144672561Y-104049970D01*
X144676251Y-104045533D01*
X144679070Y-104040499D01*
X144679073Y-104040495D01*
X144773603Y-103871700D01*
X144773603Y-103871699D01*
X144776426Y-103866659D01*
X144778282Y-103861192D01*
X144778284Y-103861187D01*
X144840470Y-103677993D01*
X144840471Y-103677988D01*
X144842326Y-103672524D01*
X144843154Y-103666815D01*
X144843155Y-103666810D01*
X144871211Y-103473305D01*
X144871744Y-103469631D01*
X144873279Y-103411000D01*
X144854520Y-103206845D01*
X144847774Y-103182925D01*
X144800441Y-103015093D01*
X144800439Y-103015088D01*
X144798871Y-103009528D01*
X144708195Y-102825656D01*
X144585530Y-102661387D01*
X144455148Y-102540863D01*
X144439223Y-102526142D01*
X144439220Y-102526140D01*
X144434983Y-102522223D01*
X144261596Y-102412824D01*
X144107886Y-102351500D01*
X144076540Y-102338994D01*
X144071176Y-102336854D01*
X144065516Y-102335728D01*
X144065512Y-102335727D01*
X143875769Y-102297985D01*
X143875764Y-102297985D01*
X143870101Y-102296858D01*
X143864326Y-102296782D01*
X143864322Y-102296782D01*
X143761605Y-102295437D01*
X143665104Y-102294174D01*
X143659407Y-102295153D01*
X143659406Y-102295153D01*
X143520279Y-102319060D01*
X143463050Y-102328894D01*
X143270707Y-102399853D01*
X143265746Y-102402805D01*
X143265745Y-102402805D01*
X143201843Y-102440823D01*
X143094517Y-102504675D01*
X142940378Y-102639851D01*
X142936811Y-102644376D01*
X142936806Y-102644381D01*
X142817033Y-102796313D01*
X142813455Y-102800852D01*
X142717997Y-102982288D01*
X142657202Y-103178081D01*
X142633105Y-103381675D01*
X142330584Y-103381675D01*
X142314520Y-103206845D01*
X142307774Y-103182925D01*
X142260441Y-103015093D01*
X142260439Y-103015088D01*
X142258871Y-103009528D01*
X142168195Y-102825656D01*
X142045530Y-102661387D01*
X141915148Y-102540863D01*
X141899223Y-102526142D01*
X141899220Y-102526140D01*
X141894983Y-102522223D01*
X141721596Y-102412824D01*
X141621032Y-102372703D01*
X141533818Y-102337908D01*
X141477958Y-102294087D01*
X141454658Y-102227023D01*
X141471314Y-102158008D01*
X141522638Y-102108953D01*
X141547897Y-102099171D01*
X141644745Y-102073221D01*
X141655038Y-102069475D01*
X141846953Y-101979984D01*
X141856431Y-101974512D01*
X141900920Y-101943359D01*
X141909294Y-101932883D01*
X141902226Y-101919436D01*
X140942885Y-100960095D01*
X140908859Y-100897783D01*
X140910694Y-100872132D01*
X141577408Y-100872132D01*
X141577539Y-100873965D01*
X141581790Y-100880580D01*
X142262157Y-101560947D01*
X142273932Y-101567377D01*
X142285947Y-101558081D01*
X142316505Y-101514439D01*
X142321988Y-101504944D01*
X142411475Y-101313037D01*
X142415220Y-101302748D01*
X142442436Y-101201177D01*
X142479388Y-101140555D01*
X142543249Y-101109533D01*
X142613743Y-101117962D01*
X142668490Y-101163165D01*
X142686266Y-101202775D01*
X142696979Y-101244957D01*
X142782810Y-101431139D01*
X142901133Y-101598563D01*
X143047986Y-101741620D01*
X143218449Y-101855520D01*
X143223752Y-101857798D01*
X143223755Y-101857800D01*
X143313329Y-101896284D01*
X143406815Y-101936449D01*
X143480559Y-101953136D01*
X143601137Y-101980420D01*
X143601142Y-101980421D01*
X143606774Y-101981695D01*
X143612545Y-101981922D01*
X143612547Y-101981922D01*
X143674339Y-101984350D01*
X143811631Y-101989744D01*
X143916685Y-101974512D01*
X144008810Y-101961155D01*
X144008815Y-101961154D01*
X144014524Y-101960326D01*
X144019988Y-101958471D01*
X144019993Y-101958470D01*
X144203187Y-101896284D01*
X144203192Y-101896282D01*
X144208659Y-101894426D01*
X144274059Y-101857800D01*
X144382495Y-101797073D01*
X144382499Y-101797070D01*
X144387533Y-101794251D01*
X144391970Y-101790561D01*
X144391974Y-101790558D01*
X144540719Y-101666848D01*
X144545157Y-101663157D01*
X144555859Y-101650289D01*
X144672558Y-101509974D01*
X144672561Y-101509970D01*
X144676251Y-101505533D01*
X144679070Y-101500499D01*
X144679073Y-101500495D01*
X144773603Y-101331700D01*
X144773603Y-101331699D01*
X144776426Y-101326659D01*
X144778282Y-101321192D01*
X144778284Y-101321187D01*
X144840470Y-101137993D01*
X144840471Y-101137988D01*
X144842326Y-101132524D01*
X144843154Y-101126815D01*
X144843155Y-101126810D01*
X144871211Y-100933305D01*
X144871744Y-100929631D01*
X144873279Y-100871000D01*
X144854520Y-100666845D01*
X144829235Y-100577191D01*
X144800441Y-100475093D01*
X144800439Y-100475088D01*
X144798871Y-100469528D01*
X144708195Y-100285656D01*
X144585530Y-100121387D01*
X144434983Y-99982223D01*
X144261596Y-99872824D01*
X144071176Y-99796854D01*
X144065516Y-99795728D01*
X144065512Y-99795727D01*
X143875769Y-99757985D01*
X143875764Y-99757985D01*
X143870101Y-99756858D01*
X143864326Y-99756782D01*
X143864322Y-99756782D01*
X143761605Y-99755437D01*
X143665104Y-99754174D01*
X143659407Y-99755153D01*
X143659406Y-99755153D01*
X143468747Y-99787915D01*
X143463050Y-99788894D01*
X143270707Y-99859853D01*
X143265746Y-99862805D01*
X143265745Y-99862805D01*
X143223378Y-99888011D01*
X143094517Y-99964675D01*
X142940378Y-100099851D01*
X142936811Y-100104376D01*
X142936806Y-100104381D01*
X142832214Y-100237056D01*
X142813455Y-100260852D01*
X142810764Y-100265968D01*
X142810762Y-100265970D01*
X142720689Y-100437171D01*
X142717997Y-100442288D01*
X142716283Y-100447807D01*
X142716280Y-100447815D01*
X142685146Y-100548082D01*
X142645843Y-100607208D01*
X142580814Y-100635698D01*
X142510705Y-100624508D01*
X142457775Y-100577191D01*
X142443107Y-100543329D01*
X142415221Y-100439255D01*
X142411475Y-100428963D01*
X142321988Y-100237056D01*
X142316505Y-100227561D01*
X142285360Y-100183081D01*
X142274883Y-100174706D01*
X142261436Y-100181774D01*
X141585022Y-100858188D01*
X141577408Y-100872132D01*
X140910694Y-100872132D01*
X140913924Y-100826968D01*
X140942885Y-100781905D01*
X141902947Y-99821843D01*
X141909377Y-99810068D01*
X141900084Y-99798055D01*
X141856431Y-99767488D01*
X141846953Y-99762016D01*
X141655038Y-99672525D01*
X141644745Y-99668779D01*
X141541787Y-99641192D01*
X141481164Y-99604240D01*
X141450143Y-99540380D01*
X141458571Y-99469885D01*
X141503774Y-99415138D01*
X141533896Y-99400172D01*
X141578865Y-99384907D01*
X141668659Y-99354426D01*
X141735870Y-99316786D01*
X141842495Y-99257073D01*
X141842499Y-99257070D01*
X141847533Y-99254251D01*
X141851970Y-99250561D01*
X141851974Y-99250558D01*
X142000719Y-99126848D01*
X142005157Y-99123157D01*
X142062805Y-99053843D01*
X142132558Y-98969974D01*
X142132561Y-98969970D01*
X142136251Y-98965533D01*
X142139070Y-98960499D01*
X142139073Y-98960495D01*
X142233603Y-98791700D01*
X142233603Y-98791699D01*
X142236426Y-98786659D01*
X142238282Y-98781192D01*
X142238284Y-98781187D01*
X142300470Y-98597993D01*
X142300471Y-98597988D01*
X142302326Y-98592524D01*
X142303154Y-98586815D01*
X142303155Y-98586810D01*
X142331211Y-98393305D01*
X142331744Y-98389631D01*
X142333279Y-98331000D01*
X142330584Y-98301675D01*
X142633105Y-98301675D01*
X142646513Y-98506250D01*
X142696979Y-98704957D01*
X142782810Y-98891139D01*
X142901133Y-99058563D01*
X143047986Y-99201620D01*
X143218449Y-99315520D01*
X143223752Y-99317798D01*
X143223755Y-99317800D01*
X143313324Y-99356282D01*
X143406815Y-99396449D01*
X143480559Y-99413136D01*
X143601137Y-99440420D01*
X143601142Y-99440421D01*
X143606774Y-99441695D01*
X143612545Y-99441922D01*
X143612547Y-99441922D01*
X143674339Y-99444350D01*
X143811631Y-99449744D01*
X143913077Y-99435035D01*
X144008810Y-99421155D01*
X144008815Y-99421154D01*
X144014524Y-99420326D01*
X144019988Y-99418471D01*
X144019993Y-99418470D01*
X144203187Y-99356284D01*
X144203192Y-99356282D01*
X144208659Y-99354426D01*
X144275870Y-99316786D01*
X144382495Y-99257073D01*
X144382499Y-99257070D01*
X144387533Y-99254251D01*
X144391970Y-99250561D01*
X144391974Y-99250558D01*
X144540719Y-99126848D01*
X144545157Y-99123157D01*
X144602805Y-99053843D01*
X144672558Y-98969974D01*
X144672561Y-98969970D01*
X144676251Y-98965533D01*
X144679070Y-98960499D01*
X144679073Y-98960495D01*
X144773603Y-98791700D01*
X144773603Y-98791699D01*
X144776426Y-98786659D01*
X144778282Y-98781192D01*
X144778284Y-98781187D01*
X144840470Y-98597993D01*
X144840471Y-98597988D01*
X144842326Y-98592524D01*
X144843154Y-98586815D01*
X144843155Y-98586810D01*
X144871211Y-98393305D01*
X144871744Y-98389631D01*
X144873279Y-98331000D01*
X144854520Y-98126845D01*
X144844852Y-98092564D01*
X144800441Y-97935093D01*
X144800439Y-97935088D01*
X144798871Y-97929528D01*
X144708195Y-97745656D01*
X144585530Y-97581387D01*
X144480386Y-97484193D01*
X144439223Y-97446142D01*
X144439220Y-97446140D01*
X144434983Y-97442223D01*
X144261596Y-97332824D01*
X144071176Y-97256854D01*
X144065516Y-97255728D01*
X144065512Y-97255727D01*
X143875769Y-97217985D01*
X143875764Y-97217985D01*
X143870101Y-97216858D01*
X143864326Y-97216782D01*
X143864322Y-97216782D01*
X143761605Y-97215437D01*
X143665104Y-97214174D01*
X143659407Y-97215153D01*
X143659406Y-97215153D01*
X143468747Y-97247915D01*
X143463050Y-97248894D01*
X143270707Y-97319853D01*
X143094517Y-97424675D01*
X142940378Y-97559851D01*
X142936811Y-97564376D01*
X142936806Y-97564381D01*
X142817033Y-97716313D01*
X142813455Y-97720852D01*
X142717997Y-97902288D01*
X142657202Y-98098081D01*
X142633105Y-98301675D01*
X142330584Y-98301675D01*
X142314520Y-98126845D01*
X142304852Y-98092564D01*
X142260441Y-97935093D01*
X142260439Y-97935088D01*
X142258871Y-97929528D01*
X142168195Y-97745656D01*
X142045530Y-97581387D01*
X141940386Y-97484193D01*
X141899223Y-97446142D01*
X141899220Y-97446140D01*
X141894983Y-97442223D01*
X141721596Y-97332824D01*
X141531176Y-97256854D01*
X141525516Y-97255728D01*
X141525512Y-97255727D01*
X141335769Y-97217985D01*
X141335764Y-97217985D01*
X141330101Y-97216858D01*
X141324326Y-97216782D01*
X141324322Y-97216782D01*
X141221605Y-97215437D01*
X141125104Y-97214174D01*
X141119407Y-97215153D01*
X141119406Y-97215153D01*
X140928747Y-97247915D01*
X140923050Y-97248894D01*
X140730707Y-97319853D01*
X140619922Y-97385763D01*
X140551153Y-97403403D01*
X140483763Y-97381063D01*
X140439149Y-97325835D01*
X140429500Y-97277478D01*
X140429500Y-96844907D01*
X140449502Y-96776786D01*
X140503158Y-96730293D01*
X140573432Y-96720189D01*
X140625502Y-96740142D01*
X140678449Y-96775520D01*
X140683752Y-96777798D01*
X140683755Y-96777800D01*
X140773329Y-96816284D01*
X140866815Y-96856449D01*
X140940559Y-96873136D01*
X141061137Y-96900420D01*
X141061142Y-96900421D01*
X141066774Y-96901695D01*
X141072545Y-96901922D01*
X141072547Y-96901922D01*
X141134339Y-96904350D01*
X141271631Y-96909744D01*
X141373077Y-96895035D01*
X141468810Y-96881155D01*
X141468815Y-96881154D01*
X141474524Y-96880326D01*
X141479988Y-96878471D01*
X141479993Y-96878470D01*
X141663187Y-96816284D01*
X141663192Y-96816282D01*
X141668659Y-96814426D01*
X141735870Y-96776786D01*
X141842495Y-96717073D01*
X141842499Y-96717070D01*
X141847533Y-96714251D01*
X141851970Y-96710561D01*
X141851974Y-96710558D01*
X142000719Y-96586848D01*
X142005157Y-96583157D01*
X142062805Y-96513843D01*
X142132558Y-96429974D01*
X142132561Y-96429970D01*
X142136251Y-96425533D01*
X142139070Y-96420499D01*
X142139073Y-96420495D01*
X142233603Y-96251700D01*
X142233603Y-96251699D01*
X142236426Y-96246659D01*
X142238282Y-96241192D01*
X142238284Y-96241187D01*
X142300470Y-96057993D01*
X142300471Y-96057988D01*
X142302326Y-96052524D01*
X142303154Y-96046815D01*
X142303155Y-96046810D01*
X142331211Y-95853305D01*
X142331744Y-95849631D01*
X142333279Y-95791000D01*
X142330584Y-95761675D01*
X142633105Y-95761675D01*
X142646513Y-95966250D01*
X142696979Y-96164957D01*
X142782810Y-96351139D01*
X142901133Y-96518563D01*
X143047986Y-96661620D01*
X143218449Y-96775520D01*
X143223752Y-96777798D01*
X143223755Y-96777800D01*
X143313329Y-96816284D01*
X143406815Y-96856449D01*
X143480559Y-96873136D01*
X143601137Y-96900420D01*
X143601142Y-96900421D01*
X143606774Y-96901695D01*
X143612545Y-96901922D01*
X143612547Y-96901922D01*
X143674339Y-96904350D01*
X143811631Y-96909744D01*
X143913077Y-96895035D01*
X144008810Y-96881155D01*
X144008815Y-96881154D01*
X144014524Y-96880326D01*
X144019988Y-96878471D01*
X144019993Y-96878470D01*
X144203187Y-96816284D01*
X144203192Y-96816282D01*
X144208659Y-96814426D01*
X144275870Y-96776786D01*
X144382495Y-96717073D01*
X144382499Y-96717070D01*
X144387533Y-96714251D01*
X144391970Y-96710561D01*
X144391974Y-96710558D01*
X144540719Y-96586848D01*
X144545157Y-96583157D01*
X144602805Y-96513843D01*
X144672558Y-96429974D01*
X144672561Y-96429970D01*
X144676251Y-96425533D01*
X144679070Y-96420499D01*
X144679073Y-96420495D01*
X144773603Y-96251700D01*
X144773603Y-96251699D01*
X144776426Y-96246659D01*
X144778282Y-96241192D01*
X144778284Y-96241187D01*
X144840470Y-96057993D01*
X144840471Y-96057988D01*
X144842326Y-96052524D01*
X144843154Y-96046815D01*
X144843155Y-96046810D01*
X144871211Y-95853305D01*
X144871744Y-95849631D01*
X144873279Y-95791000D01*
X144854520Y-95586845D01*
X144844852Y-95552564D01*
X144800441Y-95395093D01*
X144800439Y-95395088D01*
X144798871Y-95389528D01*
X144708195Y-95205656D01*
X144585530Y-95041387D01*
X144434983Y-94902223D01*
X144261596Y-94792824D01*
X144122870Y-94737478D01*
X144073818Y-94717908D01*
X144017958Y-94674087D01*
X143994658Y-94607023D01*
X144011314Y-94538008D01*
X144062638Y-94488953D01*
X144087897Y-94479171D01*
X144184745Y-94453221D01*
X144195038Y-94449475D01*
X144386953Y-94359984D01*
X144396431Y-94354512D01*
X144440920Y-94323359D01*
X144449294Y-94312883D01*
X144442226Y-94299436D01*
X143765812Y-93623022D01*
X143751868Y-93615408D01*
X143750035Y-93615539D01*
X143743420Y-93619790D01*
X143063053Y-94300157D01*
X143056623Y-94311932D01*
X143065916Y-94323945D01*
X143109569Y-94354512D01*
X143119047Y-94359984D01*
X143310962Y-94449475D01*
X143321255Y-94453221D01*
X143421758Y-94480150D01*
X143482380Y-94517101D01*
X143513402Y-94580962D01*
X143504974Y-94651456D01*
X143459771Y-94706203D01*
X143432758Y-94720069D01*
X143304533Y-94767374D01*
X143270707Y-94779853D01*
X143094517Y-94884675D01*
X142940378Y-95019851D01*
X142936811Y-95024376D01*
X142936806Y-95024381D01*
X142817033Y-95176313D01*
X142813455Y-95180852D01*
X142717997Y-95362288D01*
X142657202Y-95558081D01*
X142633105Y-95761675D01*
X142330584Y-95761675D01*
X142314520Y-95586845D01*
X142304852Y-95552564D01*
X142260441Y-95395093D01*
X142260439Y-95395088D01*
X142258871Y-95389528D01*
X142168195Y-95205656D01*
X142045530Y-95041387D01*
X141894983Y-94902223D01*
X141721596Y-94792824D01*
X141582870Y-94737478D01*
X141536540Y-94718994D01*
X141531176Y-94716854D01*
X141525516Y-94715728D01*
X141525512Y-94715727D01*
X141335769Y-94677985D01*
X141335764Y-94677985D01*
X141330101Y-94676858D01*
X141324326Y-94676782D01*
X141324322Y-94676782D01*
X141221605Y-94675437D01*
X141125104Y-94674174D01*
X141119407Y-94675153D01*
X141119406Y-94675153D01*
X140938710Y-94706203D01*
X140923050Y-94708894D01*
X140730707Y-94779853D01*
X140619922Y-94845763D01*
X140551153Y-94863403D01*
X140483763Y-94841063D01*
X140439149Y-94785835D01*
X140429500Y-94737478D01*
X140429500Y-94304907D01*
X140449502Y-94236786D01*
X140503158Y-94190293D01*
X140573432Y-94180189D01*
X140625502Y-94200142D01*
X140678449Y-94235520D01*
X140683752Y-94237798D01*
X140683755Y-94237800D01*
X140839950Y-94304907D01*
X140866815Y-94316449D01*
X140899943Y-94323945D01*
X141061137Y-94360420D01*
X141061142Y-94360421D01*
X141066774Y-94361695D01*
X141072545Y-94361922D01*
X141072547Y-94361922D01*
X141134339Y-94364350D01*
X141271631Y-94369744D01*
X141376685Y-94354512D01*
X141468810Y-94341155D01*
X141468815Y-94341154D01*
X141474524Y-94340326D01*
X141479988Y-94338471D01*
X141479993Y-94338470D01*
X141663187Y-94276284D01*
X141663192Y-94276282D01*
X141668659Y-94274426D01*
X141735870Y-94236786D01*
X141842495Y-94177073D01*
X141842499Y-94177070D01*
X141847533Y-94174251D01*
X141851970Y-94170561D01*
X141851974Y-94170558D01*
X142000719Y-94046848D01*
X142005157Y-94043157D01*
X142090164Y-93940947D01*
X142132558Y-93889974D01*
X142132561Y-93889970D01*
X142136251Y-93885533D01*
X142139070Y-93880499D01*
X142139073Y-93880495D01*
X142233603Y-93711700D01*
X142233603Y-93711699D01*
X142236426Y-93706659D01*
X142282172Y-93571896D01*
X142323009Y-93513820D01*
X142388762Y-93487042D01*
X142458555Y-93500063D01*
X142510228Y-93548750D01*
X142523192Y-93579787D01*
X142550779Y-93682745D01*
X142554525Y-93693037D01*
X142644012Y-93884944D01*
X142649495Y-93894439D01*
X142680640Y-93938919D01*
X142691117Y-93947294D01*
X142704564Y-93940226D01*
X143392658Y-93252132D01*
X144117408Y-93252132D01*
X144117539Y-93253965D01*
X144121790Y-93260580D01*
X144802157Y-93940947D01*
X144813932Y-93947377D01*
X144825947Y-93938081D01*
X144856505Y-93894439D01*
X144861988Y-93884944D01*
X144951475Y-93693037D01*
X144955221Y-93682745D01*
X145010025Y-93478214D01*
X145011928Y-93467419D01*
X145030384Y-93256475D01*
X145030384Y-93245525D01*
X145011928Y-93034581D01*
X145010025Y-93023786D01*
X144955221Y-92819255D01*
X144951475Y-92808963D01*
X144861988Y-92617056D01*
X144856505Y-92607561D01*
X144825360Y-92563081D01*
X144814883Y-92554706D01*
X144801436Y-92561774D01*
X144125022Y-93238188D01*
X144117408Y-93252132D01*
X143392658Y-93252132D01*
X144282290Y-92362500D01*
X144342612Y-92328924D01*
X144382101Y-92319662D01*
X144393771Y-92317500D01*
X144426136Y-92313067D01*
X144426138Y-92313066D01*
X144434646Y-92311901D01*
X144442527Y-92308490D01*
X144442529Y-92308490D01*
X144447347Y-92306405D01*
X144468610Y-92299373D01*
X144473729Y-92298172D01*
X144473731Y-92298171D01*
X144482093Y-92296210D01*
X144518275Y-92276319D01*
X144528905Y-92271112D01*
X144566783Y-92254720D01*
X144573459Y-92249314D01*
X144573461Y-92249313D01*
X144577542Y-92246008D01*
X144596126Y-92233520D01*
X144608263Y-92226847D01*
X144616005Y-92220164D01*
X144639209Y-92196960D01*
X144649010Y-92188134D01*
X144671999Y-92169518D01*
X144678675Y-92164112D01*
X144688800Y-92149865D01*
X144702410Y-92133759D01*
X145395388Y-91440782D01*
X145399197Y-91437130D01*
X145436385Y-91402934D01*
X145442712Y-91397116D01*
X145464458Y-91362044D01*
X145471187Y-91352254D01*
X145473145Y-91349675D01*
X145530268Y-91307514D01*
X145601116Y-91302929D01*
X145663197Y-91337375D01*
X145696799Y-91399916D01*
X145699500Y-91425865D01*
X145699500Y-123075721D01*
X145679498Y-123143842D01*
X145625842Y-123190335D01*
X145555568Y-123200439D01*
X145490988Y-123170945D01*
X145452604Y-123111219D01*
X145448864Y-123094209D01*
X145425811Y-122938795D01*
X145425810Y-122938791D01*
X145425356Y-122935729D01*
X145417182Y-122903094D01*
X145365879Y-122698286D01*
X145353821Y-122650146D01*
X145337402Y-122604256D01*
X145289223Y-122469606D01*
X145254639Y-122372950D01*
X145253323Y-122370167D01*
X145253319Y-122370158D01*
X145130080Y-122109592D01*
X145130078Y-122109589D01*
X145128764Y-122106810D01*
X145116995Y-122087175D01*
X144978998Y-121856939D01*
X144978992Y-121856930D01*
X144977409Y-121854289D01*
X144802031Y-121617820D01*
X144604320Y-121399680D01*
X144386180Y-121201969D01*
X144149711Y-121026591D01*
X144147070Y-121025008D01*
X144147061Y-121025002D01*
X143899831Y-120876819D01*
X143899832Y-120876819D01*
X143897190Y-120875236D01*
X143894408Y-120873920D01*
X143633842Y-120750681D01*
X143633833Y-120750677D01*
X143631050Y-120749361D01*
X143481600Y-120695887D01*
X143356759Y-120651218D01*
X143356751Y-120651216D01*
X143353854Y-120650179D01*
X143212351Y-120614734D01*
X143071274Y-120579396D01*
X143071270Y-120579395D01*
X143068271Y-120578644D01*
X143065209Y-120578190D01*
X143065205Y-120578189D01*
X142870790Y-120549351D01*
X142777051Y-120535446D01*
X142773965Y-120535294D01*
X142773961Y-120535294D01*
X142486094Y-120521152D01*
X142483000Y-120521000D01*
X142479906Y-120521152D01*
X142192039Y-120535294D01*
X142192035Y-120535294D01*
X142188949Y-120535446D01*
X142095210Y-120549351D01*
X141900795Y-120578189D01*
X141900791Y-120578190D01*
X141897729Y-120578644D01*
X141894730Y-120579395D01*
X141894726Y-120579396D01*
X141753649Y-120614734D01*
X141612146Y-120650179D01*
X141609249Y-120651216D01*
X141609241Y-120651218D01*
X141484400Y-120695887D01*
X141334950Y-120749361D01*
X141332167Y-120750677D01*
X141332158Y-120750681D01*
X141071592Y-120873920D01*
X141068810Y-120875236D01*
X141066168Y-120876819D01*
X141066169Y-120876819D01*
X140818939Y-121025002D01*
X140818930Y-121025008D01*
X140816289Y-121026591D01*
X140579820Y-121201969D01*
X140361680Y-121399680D01*
X140163969Y-121617820D01*
X139988591Y-121854289D01*
X139987008Y-121856930D01*
X139987002Y-121856939D01*
X139849005Y-122087175D01*
X139837236Y-122106810D01*
X139835922Y-122109589D01*
X139835920Y-122109592D01*
X139712681Y-122370158D01*
X139712677Y-122370167D01*
X139711361Y-122372950D01*
X139676777Y-122469606D01*
X139628599Y-122604256D01*
X139612179Y-122650146D01*
X139600121Y-122698286D01*
X139548819Y-122903094D01*
X139540644Y-122935729D01*
X139540190Y-122938791D01*
X139540189Y-122938795D01*
X139519878Y-123075721D01*
X139497446Y-123226949D01*
X139483000Y-123521000D01*
X139483152Y-123524094D01*
X139493489Y-123734498D01*
X139497446Y-123815051D01*
X139540644Y-124106271D01*
X139541395Y-124109270D01*
X139541396Y-124109274D01*
X139543291Y-124116839D01*
X139612179Y-124391854D01*
X139613216Y-124394751D01*
X139613218Y-124394759D01*
X139627457Y-124434554D01*
X139711361Y-124669050D01*
X139712677Y-124671833D01*
X139712681Y-124671842D01*
X139835920Y-124932408D01*
X139837236Y-124935190D01*
X139838819Y-124937831D01*
X139987002Y-125185061D01*
X139987008Y-125185070D01*
X139988591Y-125187711D01*
X139990434Y-125190196D01*
X140088642Y-125322613D01*
X140163969Y-125424180D01*
X140361680Y-125642320D01*
X140579820Y-125840031D01*
X140816289Y-126015409D01*
X140818930Y-126016992D01*
X140818939Y-126016998D01*
X141049175Y-126154995D01*
X141068810Y-126166764D01*
X141071589Y-126168078D01*
X141071592Y-126168080D01*
X141332158Y-126291319D01*
X141332167Y-126291323D01*
X141334950Y-126292639D01*
X141450608Y-126334022D01*
X141609241Y-126390782D01*
X141609249Y-126390784D01*
X141612146Y-126391821D01*
X141639074Y-126398566D01*
X141649892Y-126401276D01*
X141711111Y-126437231D01*
X141743173Y-126500576D01*
X141735899Y-126571199D01*
X141691597Y-126626678D01*
X141619276Y-126649500D01*
X128053503Y-126649500D01*
X128033792Y-126647949D01*
X128025794Y-126646682D01*
X128025792Y-126646682D01*
X128016000Y-126645131D01*
X128006203Y-126646683D01*
X128001856Y-126646683D01*
X127982050Y-126647721D01*
X127687534Y-126632286D01*
X127674418Y-126630908D01*
X127356061Y-126580485D01*
X127343161Y-126577743D01*
X127294797Y-126564784D01*
X127031818Y-126494319D01*
X127019284Y-126490247D01*
X126718371Y-126374736D01*
X126706324Y-126369373D01*
X126419133Y-126223041D01*
X126407712Y-126216447D01*
X126137387Y-126040897D01*
X126126717Y-126033144D01*
X125876233Y-125830306D01*
X125866432Y-125821481D01*
X125638519Y-125593568D01*
X125629694Y-125583767D01*
X125426856Y-125333283D01*
X125419103Y-125322613D01*
X125243553Y-125052288D01*
X125236959Y-125040867D01*
X125200789Y-124969880D01*
X128745749Y-124969880D01*
X128748260Y-124979990D01*
X128748663Y-124985107D01*
X128750140Y-124995794D01*
X128751140Y-125000827D01*
X128751464Y-125011233D01*
X128755141Y-125020971D01*
X128755142Y-125020977D01*
X128762168Y-125039586D01*
X128766573Y-125053714D01*
X128771367Y-125073012D01*
X128771369Y-125073017D01*
X128773880Y-125083125D01*
X128779531Y-125091877D01*
X128781581Y-125096614D01*
X128786425Y-125106217D01*
X128789004Y-125110661D01*
X128792681Y-125120398D01*
X128799314Y-125128420D01*
X128799315Y-125128422D01*
X128811995Y-125143757D01*
X128820736Y-125155693D01*
X128837175Y-125181152D01*
X128845352Y-125187598D01*
X128848812Y-125191401D01*
X128856522Y-125198933D01*
X128860401Y-125202300D01*
X128867036Y-125210325D01*
X128889624Y-125224175D01*
X128892871Y-125226166D01*
X128905013Y-125234631D01*
X128928811Y-125253392D01*
X128938637Y-125256843D01*
X128943145Y-125259321D01*
X128952871Y-125263946D01*
X128957632Y-125265876D01*
X128966511Y-125271320D01*
X128976674Y-125273595D01*
X128976675Y-125273595D01*
X128996081Y-125277938D01*
X129010310Y-125282013D01*
X129031427Y-125289429D01*
X129031430Y-125289430D01*
X129038906Y-125292055D01*
X129044044Y-125292500D01*
X129047220Y-125292500D01*
X129047518Y-125292533D01*
X129049486Y-125292618D01*
X129049480Y-125292750D01*
X129060950Y-125294017D01*
X129070218Y-125294530D01*
X129080381Y-125296804D01*
X129090732Y-125295664D01*
X129108946Y-125293658D01*
X129130023Y-125293112D01*
X129160067Y-125294852D01*
X129160071Y-125294852D01*
X129167986Y-125295310D01*
X129173047Y-125294318D01*
X129175648Y-125293570D01*
X129175662Y-125293567D01*
X129200277Y-125286492D01*
X129214395Y-125283299D01*
X129218755Y-125282573D01*
X129245103Y-125278188D01*
X129254269Y-125273242D01*
X129260199Y-125271212D01*
X129276334Y-125264630D01*
X132142748Y-124440721D01*
X134994822Y-123620934D01*
X135017367Y-123616630D01*
X135032179Y-123615182D01*
X135060612Y-123602233D01*
X135062230Y-123601559D01*
X135064808Y-123600818D01*
X135069507Y-123598578D01*
X135069510Y-123598577D01*
X135076247Y-123595365D01*
X135087174Y-123590157D01*
X135089018Y-123589297D01*
X135138372Y-123566820D01*
X135140655Y-123564662D01*
X135143496Y-123563308D01*
X135182209Y-123525415D01*
X135183797Y-123523887D01*
X135217416Y-123492112D01*
X135223175Y-123486669D01*
X135225398Y-123483140D01*
X135226884Y-123481686D01*
X135253193Y-123429407D01*
X135253735Y-123428343D01*
X137067988Y-119908025D01*
X137169048Y-119711932D01*
X140516623Y-119711932D01*
X140525916Y-119723945D01*
X140569569Y-119754512D01*
X140579047Y-119759984D01*
X140770962Y-119849475D01*
X140781255Y-119853221D01*
X140985786Y-119908025D01*
X140996581Y-119909928D01*
X141207525Y-119928384D01*
X141218475Y-119928384D01*
X141429419Y-119909928D01*
X141440214Y-119908025D01*
X141644745Y-119853221D01*
X141655038Y-119849475D01*
X141846953Y-119759984D01*
X141856431Y-119754512D01*
X141900920Y-119723359D01*
X141909294Y-119712883D01*
X141902226Y-119699436D01*
X141225812Y-119023022D01*
X141211868Y-119015408D01*
X141210035Y-119015539D01*
X141203420Y-119019790D01*
X140523053Y-119700157D01*
X140516623Y-119711932D01*
X137169048Y-119711932D01*
X137429404Y-119206747D01*
X137429994Y-119205617D01*
X137457062Y-119154514D01*
X137460452Y-119133133D01*
X137464940Y-119114312D01*
X137468380Y-119103609D01*
X137471566Y-119093695D01*
X137471359Y-119082745D01*
X137471258Y-119077438D01*
X137472790Y-119055318D01*
X137473704Y-119049554D01*
X137475335Y-119039268D01*
X137471615Y-119017933D01*
X137469766Y-118998683D01*
X137469553Y-118987444D01*
X137469356Y-118977030D01*
X137463795Y-118961739D01*
X137458085Y-118940332D01*
X137455292Y-118924316D01*
X137450277Y-118915191D01*
X137450276Y-118915187D01*
X137444867Y-118905344D01*
X137436878Y-118887723D01*
X137433037Y-118877162D01*
X137429476Y-118867370D01*
X137419272Y-118854718D01*
X137406924Y-118836301D01*
X137399095Y-118822053D01*
X137395566Y-118818293D01*
X137382720Y-118806783D01*
X137368728Y-118792045D01*
X137362763Y-118784648D01*
X137356225Y-118776541D01*
X137347412Y-118770988D01*
X137347410Y-118770986D01*
X137340756Y-118766793D01*
X137323848Y-118754035D01*
X137214961Y-118656475D01*
X139935616Y-118656475D01*
X139954072Y-118867419D01*
X139955975Y-118878214D01*
X140010779Y-119082745D01*
X140014525Y-119093037D01*
X140104012Y-119284944D01*
X140109495Y-119294439D01*
X140140640Y-119338919D01*
X140151117Y-119347294D01*
X140164564Y-119340226D01*
X140840978Y-118663812D01*
X140847356Y-118652132D01*
X141577408Y-118652132D01*
X141577539Y-118653965D01*
X141581790Y-118660580D01*
X142262157Y-119340947D01*
X142273932Y-119347377D01*
X142285947Y-119338081D01*
X142316505Y-119294439D01*
X142321988Y-119284944D01*
X142411475Y-119093037D01*
X142415220Y-119082748D01*
X142442436Y-118981177D01*
X142479388Y-118920555D01*
X142543249Y-118889533D01*
X142613743Y-118897962D01*
X142668490Y-118943165D01*
X142686266Y-118982775D01*
X142696979Y-119024957D01*
X142782810Y-119211139D01*
X142786143Y-119215855D01*
X142873116Y-119338919D01*
X142901133Y-119378563D01*
X143047986Y-119521620D01*
X143218449Y-119635520D01*
X143223752Y-119637798D01*
X143223755Y-119637800D01*
X143396301Y-119711932D01*
X143406815Y-119716449D01*
X143439943Y-119723945D01*
X143601137Y-119760420D01*
X143601142Y-119760421D01*
X143606774Y-119761695D01*
X143612545Y-119761922D01*
X143612547Y-119761922D01*
X143674339Y-119764350D01*
X143811631Y-119769744D01*
X143916685Y-119754512D01*
X144008810Y-119741155D01*
X144008815Y-119741154D01*
X144014524Y-119740326D01*
X144019988Y-119738471D01*
X144019993Y-119738470D01*
X144203187Y-119676284D01*
X144203192Y-119676282D01*
X144208659Y-119674426D01*
X144274059Y-119637800D01*
X144382495Y-119577073D01*
X144382499Y-119577070D01*
X144387533Y-119574251D01*
X144391970Y-119570561D01*
X144391974Y-119570558D01*
X144540719Y-119446848D01*
X144545157Y-119443157D01*
X144630164Y-119340947D01*
X144672558Y-119289974D01*
X144672561Y-119289970D01*
X144676251Y-119285533D01*
X144679070Y-119280499D01*
X144679073Y-119280495D01*
X144773603Y-119111700D01*
X144773603Y-119111699D01*
X144776426Y-119106659D01*
X144778282Y-119101192D01*
X144778284Y-119101187D01*
X144840470Y-118917993D01*
X144840471Y-118917988D01*
X144842326Y-118912524D01*
X144843154Y-118906815D01*
X144843155Y-118906810D01*
X144871211Y-118713305D01*
X144871744Y-118709631D01*
X144873279Y-118651000D01*
X144854520Y-118446845D01*
X144851745Y-118437005D01*
X144800441Y-118255093D01*
X144800439Y-118255088D01*
X144798871Y-118249528D01*
X144708195Y-118065656D01*
X144585530Y-117901387D01*
X144466155Y-117791038D01*
X144439223Y-117766142D01*
X144439220Y-117766140D01*
X144434983Y-117762223D01*
X144261596Y-117652824D01*
X144071176Y-117576854D01*
X144065516Y-117575728D01*
X144065512Y-117575727D01*
X143875769Y-117537985D01*
X143875764Y-117537985D01*
X143870101Y-117536858D01*
X143864326Y-117536782D01*
X143864322Y-117536782D01*
X143761605Y-117535437D01*
X143665104Y-117534174D01*
X143659407Y-117535153D01*
X143659406Y-117535153D01*
X143587582Y-117547495D01*
X143463050Y-117568894D01*
X143270707Y-117639853D01*
X143094517Y-117744675D01*
X142940378Y-117879851D01*
X142936811Y-117884376D01*
X142936806Y-117884381D01*
X142835172Y-118013304D01*
X142813455Y-118040852D01*
X142810764Y-118045968D01*
X142810762Y-118045970D01*
X142720689Y-118217171D01*
X142717997Y-118222288D01*
X142716283Y-118227807D01*
X142716280Y-118227815D01*
X142685146Y-118328082D01*
X142645843Y-118387208D01*
X142580814Y-118415698D01*
X142510705Y-118404508D01*
X142457775Y-118357191D01*
X142443107Y-118323329D01*
X142415221Y-118219255D01*
X142411475Y-118208963D01*
X142321988Y-118017056D01*
X142316505Y-118007561D01*
X142285360Y-117963081D01*
X142274883Y-117954706D01*
X142261436Y-117961774D01*
X141585022Y-118638188D01*
X141577408Y-118652132D01*
X140847356Y-118652132D01*
X140848592Y-118649868D01*
X140848461Y-118648035D01*
X140844210Y-118641420D01*
X140163843Y-117961053D01*
X140152068Y-117954623D01*
X140140053Y-117963919D01*
X140109495Y-118007561D01*
X140104012Y-118017056D01*
X140014525Y-118208963D01*
X140010779Y-118219255D01*
X139955975Y-118423786D01*
X139954072Y-118434581D01*
X139935616Y-118645525D01*
X139935616Y-118656475D01*
X137214961Y-118656475D01*
X134411392Y-116144554D01*
X134397718Y-116129431D01*
X134394966Y-116126732D01*
X134388829Y-116118317D01*
X134380295Y-116112342D01*
X134380294Y-116112341D01*
X134364273Y-116101124D01*
X134360323Y-116097994D01*
X134360220Y-116098130D01*
X134356074Y-116094991D01*
X134352206Y-116091525D01*
X134336937Y-116081831D01*
X134332258Y-116078711D01*
X134293242Y-116051395D01*
X134285455Y-116049148D01*
X134278613Y-116044804D01*
X134232345Y-116033688D01*
X134226875Y-116032243D01*
X134181130Y-116019042D01*
X134173032Y-116019439D01*
X134165155Y-116017546D01*
X134154787Y-116018524D01*
X134154784Y-116018524D01*
X134117782Y-116022015D01*
X134112112Y-116022421D01*
X134072501Y-116024361D01*
X134072499Y-116024361D01*
X134064583Y-116024749D01*
X134059657Y-116026274D01*
X134057124Y-116027305D01*
X134055476Y-116027895D01*
X134048985Y-116028507D01*
X134039492Y-116032792D01*
X134039490Y-116032792D01*
X134003321Y-116049116D01*
X133999002Y-116050969D01*
X132816610Y-116532372D01*
X129812966Y-117755284D01*
X129810953Y-117756084D01*
X129768827Y-117772381D01*
X129768825Y-117772382D01*
X129759114Y-117776139D01*
X129751145Y-117782838D01*
X129751143Y-117782839D01*
X129741390Y-117791038D01*
X129726339Y-117801903D01*
X129706622Y-117814034D01*
X129699994Y-117822075D01*
X129699993Y-117822076D01*
X129697238Y-117825418D01*
X129681086Y-117841728D01*
X129669793Y-117851221D01*
X129664423Y-117860140D01*
X129664420Y-117860144D01*
X129657848Y-117871061D01*
X129647130Y-117886213D01*
X129632406Y-117904077D01*
X129628743Y-117913824D01*
X129627217Y-117917885D01*
X129617214Y-117938555D01*
X129609608Y-117951189D01*
X129607417Y-117961367D01*
X129607416Y-117961369D01*
X129604736Y-117973820D01*
X129599503Y-117991629D01*
X129591357Y-118013304D01*
X129591049Y-118023717D01*
X129590920Y-118028055D01*
X129588153Y-118050840D01*
X129587240Y-118055079D01*
X129587240Y-118055086D01*
X129585049Y-118065261D01*
X129586273Y-118075602D01*
X129586273Y-118075603D01*
X129587770Y-118088256D01*
X129588588Y-118106791D01*
X129588211Y-118119532D01*
X129587903Y-118129939D01*
X129590981Y-118139881D01*
X129590982Y-118139888D01*
X129592268Y-118144041D01*
X129597030Y-118166490D01*
X129598764Y-118181138D01*
X129608785Y-118202007D01*
X129615562Y-118219278D01*
X129618206Y-118227815D01*
X129622414Y-118241405D01*
X129628549Y-118249818D01*
X129628551Y-118249821D01*
X129631107Y-118253325D01*
X129642888Y-118273027D01*
X129649274Y-118286326D01*
X129652592Y-118290274D01*
X129665837Y-118303519D01*
X129678544Y-118318369D01*
X129681249Y-118322078D01*
X129684387Y-118326634D01*
X129684499Y-118326744D01*
X129687825Y-118331864D01*
X129689136Y-118332892D01*
X129691171Y-118335682D01*
X129702649Y-118343717D01*
X129708108Y-118347764D01*
X129710877Y-118349935D01*
X129711287Y-118350257D01*
X129714989Y-118353539D01*
X129715110Y-118353396D01*
X129719070Y-118356752D01*
X129722746Y-118360428D01*
X129726967Y-118363445D01*
X129726977Y-118363453D01*
X129737607Y-118371049D01*
X129742084Y-118374401D01*
X129779656Y-118403855D01*
X129787181Y-118406475D01*
X129793669Y-118411111D01*
X129826696Y-118420988D01*
X129839442Y-118424800D01*
X129844747Y-118426515D01*
X129889856Y-118442219D01*
X129897826Y-118442260D01*
X129905463Y-118444544D01*
X129953220Y-118442668D01*
X129958775Y-118442573D01*
X130006541Y-118442819D01*
X130011543Y-118441562D01*
X130014113Y-118440674D01*
X130015658Y-118440215D01*
X130022060Y-118439963D01*
X130068966Y-118421816D01*
X130073259Y-118420245D01*
X133932464Y-117087235D01*
X134003382Y-117083901D01*
X134059848Y-117114475D01*
X136209067Y-119132443D01*
X136245036Y-119193653D01*
X136242203Y-119264593D01*
X136235049Y-119281576D01*
X135945215Y-119849475D01*
X134534619Y-122613386D01*
X134521435Y-122639218D01*
X134472652Y-122690801D01*
X134444384Y-122702931D01*
X130895430Y-123734688D01*
X130824435Y-123734498D01*
X130764812Y-123695954D01*
X130735492Y-123631295D01*
X130745784Y-123561048D01*
X130749779Y-123553112D01*
X130930320Y-123223889D01*
X131028197Y-123045406D01*
X131039720Y-123027995D01*
X131051392Y-123013189D01*
X131054844Y-123003360D01*
X131061219Y-122985209D01*
X131061244Y-122985145D01*
X131061322Y-122985003D01*
X131061481Y-122984548D01*
X131061486Y-122984536D01*
X131070692Y-122958232D01*
X131070736Y-122958106D01*
X131090055Y-122903094D01*
X131090076Y-122902848D01*
X131090119Y-122902726D01*
X131090122Y-122902323D01*
X131090500Y-122897956D01*
X131090500Y-122861608D01*
X131092217Y-122840881D01*
X131093633Y-122832389D01*
X131093633Y-122832385D01*
X131095346Y-122822113D01*
X131090851Y-122795053D01*
X131090912Y-122786043D01*
X131087828Y-122776831D01*
X131085637Y-122763669D01*
X131076224Y-122707004D01*
X131076198Y-122706955D01*
X131076188Y-122706897D01*
X131048345Y-122655296D01*
X131020848Y-122604296D01*
X131020805Y-122604256D01*
X131020778Y-122604206D01*
X130978458Y-122565086D01*
X130978411Y-122565042D01*
X130942794Y-122532097D01*
X130935188Y-122525061D01*
X130935134Y-122525037D01*
X130935093Y-122524999D01*
X130882115Y-122501578D01*
X130882086Y-122501553D01*
X130882082Y-122501563D01*
X130837982Y-122482050D01*
X130837980Y-122482050D01*
X130828480Y-122477846D01*
X130828423Y-122477841D01*
X130828371Y-122477818D01*
X130818087Y-122476927D01*
X130818086Y-122476927D01*
X130769160Y-122472689D01*
X130769123Y-122472686D01*
X130722277Y-122468614D01*
X130712233Y-122467741D01*
X130712180Y-122467754D01*
X130712120Y-122467749D01*
X130660632Y-122480539D01*
X130654550Y-122482050D01*
X130654300Y-122482112D01*
X130598979Y-122495835D01*
X130598931Y-122495866D01*
X130598875Y-122495880D01*
X130590165Y-122501504D01*
X130550269Y-122527264D01*
X130550237Y-122527285D01*
X130500931Y-122559099D01*
X130500880Y-122559155D01*
X130500848Y-122559175D01*
X130500775Y-122559268D01*
X130497429Y-122562885D01*
X130495721Y-122565086D01*
X130466141Y-122603195D01*
X130465577Y-122603916D01*
X130428608Y-122650811D01*
X130428191Y-122651999D01*
X130427811Y-122652577D01*
X128853898Y-124680316D01*
X128842026Y-124693563D01*
X128829921Y-124705288D01*
X128824224Y-124710806D01*
X128821528Y-124715203D01*
X128811003Y-124736253D01*
X128807956Y-124741544D01*
X128802999Y-124746907D01*
X128798789Y-124756431D01*
X128790620Y-124774908D01*
X128786248Y-124783828D01*
X128773849Y-124806790D01*
X128772643Y-124814020D01*
X128771327Y-124818297D01*
X128770462Y-124820504D01*
X128760029Y-124844102D01*
X128760028Y-124844107D01*
X128755818Y-124853629D01*
X128754920Y-124864002D01*
X128753637Y-124868998D01*
X128751580Y-124879546D01*
X128750892Y-124884655D01*
X128747829Y-124894603D01*
X128748153Y-124905008D01*
X128748153Y-124905010D01*
X128748773Y-124924891D01*
X128748364Y-124939689D01*
X128745749Y-124969880D01*
X125200789Y-124969880D01*
X125090627Y-124753676D01*
X125085263Y-124741628D01*
X125075119Y-124715203D01*
X124969753Y-124440716D01*
X124965679Y-124428177D01*
X124955947Y-124391854D01*
X124882257Y-124116839D01*
X124879515Y-124103939D01*
X124829092Y-123785582D01*
X124827714Y-123772465D01*
X124817135Y-123570600D01*
X124812279Y-123477950D01*
X124813317Y-123458144D01*
X124813317Y-123453797D01*
X124814869Y-123444000D01*
X124812051Y-123426208D01*
X124810500Y-123406497D01*
X124810500Y-105260966D01*
X127404500Y-105260966D01*
X127404738Y-105263683D01*
X127404738Y-105263690D01*
X127409407Y-105317056D01*
X127419937Y-105437408D01*
X127421361Y-105442722D01*
X127421361Y-105442723D01*
X127478343Y-105655383D01*
X127481097Y-105665663D01*
X127483419Y-105670643D01*
X127483420Y-105670645D01*
X127548117Y-105809386D01*
X127580965Y-105879829D01*
X127716505Y-106073401D01*
X127883599Y-106240495D01*
X127888107Y-106243652D01*
X127888110Y-106243654D01*
X128039645Y-106349760D01*
X128077170Y-106376035D01*
X128082152Y-106378358D01*
X128082157Y-106378361D01*
X128286355Y-106473580D01*
X128291337Y-106475903D01*
X128296645Y-106477325D01*
X128296647Y-106477326D01*
X128422841Y-106511139D01*
X128519592Y-106537063D01*
X128755000Y-106557659D01*
X128990408Y-106537063D01*
X129087159Y-106511139D01*
X129213353Y-106477326D01*
X129213355Y-106477325D01*
X129218663Y-106475903D01*
X129356346Y-106411700D01*
X129427848Y-106378358D01*
X129427851Y-106378356D01*
X129432829Y-106376035D01*
X129626401Y-106240495D01*
X129793495Y-106073401D01*
X129929035Y-105879829D01*
X129961884Y-105809386D01*
X130026580Y-105670645D01*
X130026581Y-105670643D01*
X130028903Y-105665663D01*
X130031658Y-105655383D01*
X130088639Y-105442723D01*
X130088639Y-105442722D01*
X130090063Y-105437408D01*
X130100593Y-105317056D01*
X130105262Y-105263690D01*
X130105262Y-105263683D01*
X130105500Y-105260966D01*
X130105500Y-104343034D01*
X130104979Y-104337073D01*
X130093585Y-104206848D01*
X130090063Y-104166592D01*
X130028903Y-103938337D01*
X130026580Y-103933355D01*
X129931358Y-103729152D01*
X129931356Y-103729149D01*
X129929035Y-103724171D01*
X129793495Y-103530599D01*
X129626401Y-103363505D01*
X129621893Y-103360348D01*
X129621890Y-103360346D01*
X129437339Y-103231122D01*
X129437336Y-103231120D01*
X129432830Y-103227965D01*
X129427848Y-103225642D01*
X129427843Y-103225639D01*
X129223645Y-103130420D01*
X129223644Y-103130419D01*
X129218663Y-103128097D01*
X129213355Y-103126675D01*
X129213353Y-103126674D01*
X128995723Y-103068361D01*
X128995722Y-103068361D01*
X128990408Y-103066937D01*
X128755000Y-103046341D01*
X128519592Y-103066937D01*
X128514278Y-103068361D01*
X128514277Y-103068361D01*
X128296647Y-103126674D01*
X128296645Y-103126675D01*
X128291337Y-103128097D01*
X128286357Y-103130419D01*
X128286355Y-103130420D01*
X128082152Y-103225642D01*
X128082149Y-103225644D01*
X128077171Y-103227965D01*
X127883599Y-103363505D01*
X127716505Y-103530599D01*
X127580965Y-103724171D01*
X127578644Y-103729149D01*
X127578642Y-103729152D01*
X127483420Y-103933355D01*
X127481097Y-103938337D01*
X127419937Y-104166592D01*
X127416415Y-104206848D01*
X127405022Y-104337073D01*
X127404500Y-104343034D01*
X127404500Y-105260966D01*
X124810500Y-105260966D01*
X124810500Y-93001503D01*
X124812051Y-92981792D01*
X124813306Y-92973869D01*
X124813306Y-92973868D01*
X124814869Y-92964000D01*
X124814846Y-92963857D01*
X124810372Y-92889894D01*
X124797682Y-92680093D01*
X124797681Y-92680088D01*
X124797452Y-92676296D01*
X124745497Y-92392788D01*
X124659748Y-92117610D01*
X124649121Y-92093996D01*
X124543019Y-91858249D01*
X124541455Y-91854773D01*
X124392343Y-91608112D01*
X124357510Y-91563650D01*
X124312285Y-91505925D01*
X124214587Y-91381222D01*
X124010778Y-91177413D01*
X123798100Y-91010791D01*
X123786893Y-91002011D01*
X123786890Y-91002009D01*
X123783888Y-90999657D01*
X123596290Y-90886250D01*
X123540488Y-90852516D01*
X123540484Y-90852514D01*
X123537227Y-90850545D01*
X123405809Y-90791399D01*
X123277866Y-90733816D01*
X123277860Y-90733814D01*
X123274390Y-90732252D01*
X122999212Y-90646503D01*
X122715704Y-90594548D01*
X122711912Y-90594319D01*
X122711907Y-90594318D01*
X122440054Y-90577874D01*
X122440052Y-90577874D01*
X122428143Y-90577154D01*
X122428000Y-90577131D01*
X122418132Y-90578694D01*
X122418131Y-90578694D01*
X122410208Y-90579949D01*
X122390497Y-90581500D01*
X93255503Y-90581500D01*
X93235792Y-90579949D01*
X93227793Y-90578682D01*
X93227792Y-90578682D01*
X93218000Y-90577131D01*
X93208206Y-90578682D01*
X93202356Y-90578682D01*
X93184179Y-90579600D01*
X93009193Y-90569774D01*
X92894599Y-90563339D01*
X92880566Y-90561758D01*
X92724383Y-90535221D01*
X92568205Y-90508685D01*
X92554430Y-90505541D01*
X92249979Y-90417830D01*
X92236642Y-90413163D01*
X92056414Y-90338511D01*
X91943925Y-90291916D01*
X91931202Y-90285789D01*
X91748526Y-90184827D01*
X91653899Y-90132528D01*
X91641936Y-90125011D01*
X91417845Y-89966011D01*
X91383542Y-89941672D01*
X91372496Y-89932863D01*
X91136250Y-89721741D01*
X91126259Y-89711750D01*
X91054003Y-89630895D01*
X90915136Y-89475503D01*
X90906327Y-89464456D01*
X90722989Y-89206064D01*
X90715472Y-89194101D01*
X90642991Y-89062957D01*
X90562211Y-88916798D01*
X90556082Y-88904071D01*
X90551846Y-88893843D01*
X90486405Y-88735855D01*
X90434837Y-88611358D01*
X90430170Y-88598021D01*
X90342459Y-88293570D01*
X90339315Y-88279795D01*
X90289811Y-87988439D01*
X90286242Y-87967434D01*
X90284661Y-87953397D01*
X90268400Y-87663821D01*
X90269318Y-87645644D01*
X90269318Y-87639794D01*
X90270869Y-87630000D01*
X90268051Y-87612208D01*
X90266500Y-87592497D01*
X90266500Y-86380669D01*
X92861001Y-86380669D01*
X92861371Y-86387490D01*
X92866895Y-86438352D01*
X92870521Y-86453604D01*
X92915676Y-86574054D01*
X92924214Y-86589649D01*
X93000715Y-86691724D01*
X93013276Y-86704285D01*
X93115351Y-86780786D01*
X93130946Y-86789324D01*
X93251394Y-86834478D01*
X93266649Y-86838105D01*
X93317514Y-86843631D01*
X93324328Y-86844000D01*
X94596885Y-86844000D01*
X94612124Y-86839525D01*
X94613329Y-86838135D01*
X94615000Y-86830452D01*
X94615000Y-86825884D01*
X95123000Y-86825884D01*
X95127475Y-86841123D01*
X95128865Y-86842328D01*
X95136548Y-86843999D01*
X96413669Y-86843999D01*
X96420490Y-86843629D01*
X96471352Y-86838105D01*
X96486604Y-86834479D01*
X96607054Y-86789324D01*
X96622649Y-86780786D01*
X96724724Y-86704285D01*
X96737285Y-86691724D01*
X96813786Y-86589649D01*
X96822324Y-86574054D01*
X96867478Y-86453606D01*
X96871105Y-86438351D01*
X96876631Y-86387486D01*
X96877000Y-86380672D01*
X96877000Y-86083966D01*
X127404500Y-86083966D01*
X127404738Y-86086683D01*
X127404738Y-86086690D01*
X127410498Y-86152525D01*
X127419937Y-86260408D01*
X127421361Y-86265722D01*
X127421361Y-86265723D01*
X127478343Y-86478383D01*
X127481097Y-86488663D01*
X127483419Y-86493643D01*
X127483420Y-86493645D01*
X127576927Y-86694169D01*
X127580965Y-86702829D01*
X127716505Y-86896401D01*
X127883599Y-87063495D01*
X127888107Y-87066652D01*
X127888110Y-87066654D01*
X128072661Y-87195878D01*
X128077170Y-87199035D01*
X128082152Y-87201358D01*
X128082157Y-87201361D01*
X128263971Y-87286142D01*
X128291337Y-87298903D01*
X128296645Y-87300325D01*
X128296647Y-87300326D01*
X128482711Y-87350181D01*
X128519592Y-87360063D01*
X128755000Y-87380659D01*
X128990408Y-87360063D01*
X129027289Y-87350181D01*
X129213353Y-87300326D01*
X129213355Y-87300325D01*
X129218663Y-87298903D01*
X129254433Y-87282223D01*
X129427848Y-87201358D01*
X129427851Y-87201356D01*
X129432829Y-87199035D01*
X129626401Y-87063495D01*
X129793495Y-86896401D01*
X129929035Y-86702829D01*
X129933074Y-86694169D01*
X130026580Y-86493645D01*
X130026581Y-86493643D01*
X130028903Y-86488663D01*
X130031658Y-86478383D01*
X130088639Y-86265723D01*
X130088639Y-86265722D01*
X130090063Y-86260408D01*
X130099502Y-86152525D01*
X130105262Y-86086690D01*
X130105262Y-86086683D01*
X130105500Y-86083966D01*
X130105500Y-85166034D01*
X130090063Y-84989592D01*
X130088639Y-84984277D01*
X130030326Y-84766647D01*
X130030325Y-84766645D01*
X130028903Y-84761337D01*
X129993153Y-84684672D01*
X129931358Y-84552152D01*
X129931356Y-84552149D01*
X129929035Y-84547171D01*
X129793495Y-84353599D01*
X129626401Y-84186505D01*
X129621893Y-84183348D01*
X129621890Y-84183346D01*
X129437339Y-84054122D01*
X129437336Y-84054120D01*
X129432830Y-84050965D01*
X129427848Y-84048642D01*
X129427843Y-84048639D01*
X129223645Y-83953420D01*
X129223644Y-83953419D01*
X129218663Y-83951097D01*
X129213355Y-83949675D01*
X129213353Y-83949674D01*
X128995723Y-83891361D01*
X128995722Y-83891361D01*
X128990408Y-83889937D01*
X128755000Y-83869341D01*
X128519592Y-83889937D01*
X128514278Y-83891361D01*
X128514277Y-83891361D01*
X128296647Y-83949674D01*
X128296645Y-83949675D01*
X128291337Y-83951097D01*
X128286357Y-83953419D01*
X128286355Y-83953420D01*
X128082152Y-84048642D01*
X128082149Y-84048644D01*
X128077171Y-84050965D01*
X127883599Y-84186505D01*
X127716505Y-84353599D01*
X127580965Y-84547171D01*
X127578644Y-84552149D01*
X127578642Y-84552152D01*
X127516847Y-84684672D01*
X127481097Y-84761337D01*
X127479675Y-84766645D01*
X127479674Y-84766647D01*
X127421361Y-84984277D01*
X127419937Y-84989592D01*
X127404500Y-85166034D01*
X127404500Y-86083966D01*
X96877000Y-86083966D01*
X96877000Y-85108115D01*
X96872525Y-85092876D01*
X96871135Y-85091671D01*
X96863452Y-85090000D01*
X95141115Y-85090000D01*
X95125876Y-85094475D01*
X95124671Y-85095865D01*
X95123000Y-85103548D01*
X95123000Y-86825884D01*
X94615000Y-86825884D01*
X94615000Y-85108115D01*
X94610525Y-85092876D01*
X94609135Y-85091671D01*
X94601452Y-85090000D01*
X92879116Y-85090000D01*
X92863877Y-85094475D01*
X92862672Y-85095865D01*
X92861001Y-85103548D01*
X92861001Y-86380669D01*
X90266500Y-86380669D01*
X90266500Y-84563885D01*
X92861000Y-84563885D01*
X92865475Y-84579124D01*
X92866865Y-84580329D01*
X92874548Y-84582000D01*
X94596885Y-84582000D01*
X94612124Y-84577525D01*
X94613329Y-84576135D01*
X94615000Y-84568452D01*
X94615000Y-84563885D01*
X95123000Y-84563885D01*
X95127475Y-84579124D01*
X95128865Y-84580329D01*
X95136548Y-84582000D01*
X96858884Y-84582000D01*
X96874123Y-84577525D01*
X96875328Y-84576135D01*
X96876999Y-84568452D01*
X96876999Y-83291331D01*
X96876629Y-83284510D01*
X96871105Y-83233648D01*
X96867479Y-83218396D01*
X96822324Y-83097946D01*
X96813786Y-83082351D01*
X96737285Y-82980276D01*
X96724724Y-82967715D01*
X96622649Y-82891214D01*
X96607054Y-82882676D01*
X96486606Y-82837522D01*
X96471351Y-82833895D01*
X96420486Y-82828369D01*
X96413672Y-82828000D01*
X95141115Y-82828000D01*
X95125876Y-82832475D01*
X95124671Y-82833865D01*
X95123000Y-82841548D01*
X95123000Y-84563885D01*
X94615000Y-84563885D01*
X94615000Y-82846116D01*
X94610525Y-82830877D01*
X94609135Y-82829672D01*
X94601452Y-82828001D01*
X93324331Y-82828001D01*
X93317510Y-82828371D01*
X93266648Y-82833895D01*
X93251396Y-82837521D01*
X93130946Y-82882676D01*
X93115351Y-82891214D01*
X93013276Y-82967715D01*
X93000715Y-82980276D01*
X92924214Y-83082351D01*
X92915676Y-83097946D01*
X92870522Y-83218394D01*
X92866895Y-83233649D01*
X92861369Y-83284514D01*
X92861000Y-83291328D01*
X92861000Y-84563885D01*
X90266500Y-84563885D01*
X90266500Y-65966279D01*
X90286502Y-65898158D01*
X90340158Y-65851665D01*
X90410432Y-65841561D01*
X90475012Y-65871055D01*
X90513396Y-65930781D01*
X90517136Y-65947790D01*
X90540644Y-66106271D01*
X90612179Y-66391854D01*
X90613216Y-66394751D01*
X90613218Y-66394759D01*
X90616989Y-66405298D01*
X90711361Y-66669050D01*
X90712677Y-66671833D01*
X90712681Y-66671842D01*
X90835920Y-66932408D01*
X90837236Y-66935190D01*
X90838819Y-66937831D01*
X90987002Y-67185061D01*
X90987008Y-67185070D01*
X90988591Y-67187711D01*
X91163969Y-67424180D01*
X91361680Y-67642320D01*
X91579820Y-67840031D01*
X91816289Y-68015409D01*
X91818930Y-68016992D01*
X91818939Y-68016998D01*
X92049175Y-68154995D01*
X92068810Y-68166764D01*
X92071589Y-68168078D01*
X92071592Y-68168080D01*
X92332158Y-68291319D01*
X92332167Y-68291323D01*
X92334950Y-68292639D01*
X92484400Y-68346113D01*
X92609241Y-68390782D01*
X92609249Y-68390784D01*
X92612146Y-68391821D01*
X92753649Y-68427266D01*
X92894726Y-68462604D01*
X92894730Y-68462605D01*
X92897729Y-68463356D01*
X92900791Y-68463810D01*
X92900795Y-68463811D01*
X93095210Y-68492649D01*
X93188949Y-68506554D01*
X93192035Y-68506706D01*
X93192039Y-68506706D01*
X93479906Y-68520848D01*
X93483000Y-68521000D01*
X93486094Y-68520848D01*
X93773961Y-68506706D01*
X93773965Y-68506706D01*
X93777051Y-68506554D01*
X93870790Y-68492649D01*
X94065205Y-68463811D01*
X94065209Y-68463810D01*
X94068271Y-68463356D01*
X94071270Y-68462605D01*
X94071274Y-68462604D01*
X94212351Y-68427266D01*
X94353854Y-68391821D01*
X94356751Y-68390784D01*
X94356759Y-68390782D01*
X94481600Y-68346113D01*
X94631050Y-68292639D01*
X94633833Y-68291323D01*
X94633842Y-68291319D01*
X94894408Y-68168080D01*
X94894411Y-68168078D01*
X94897190Y-68166764D01*
X94916825Y-68154995D01*
X95147061Y-68016998D01*
X95147070Y-68016992D01*
X95149711Y-68015409D01*
X95386180Y-67840031D01*
X95604320Y-67642320D01*
X95802031Y-67424180D01*
X95977409Y-67187711D01*
X95978992Y-67185070D01*
X95978998Y-67185061D01*
X96127181Y-66937831D01*
X96128764Y-66935190D01*
X96130080Y-66932408D01*
X96253319Y-66671842D01*
X96253323Y-66671833D01*
X96254639Y-66669050D01*
X96349011Y-66405298D01*
X96352782Y-66394759D01*
X96352784Y-66394751D01*
X96353821Y-66391854D01*
X96425356Y-66106271D01*
X96468554Y-65815051D01*
X96482558Y-65530000D01*
X107210341Y-65530000D01*
X107230937Y-65765408D01*
X107232361Y-65770722D01*
X107232361Y-65770723D01*
X107284760Y-65966279D01*
X107292097Y-65993663D01*
X107294419Y-65998643D01*
X107294420Y-65998645D01*
X107346008Y-66109274D01*
X107391965Y-66207829D01*
X107527505Y-66401401D01*
X107694599Y-66568495D01*
X107888171Y-66704035D01*
X107893149Y-66706356D01*
X107893152Y-66706358D01*
X108097355Y-66801580D01*
X108102337Y-66803903D01*
X108107645Y-66805325D01*
X108107647Y-66805326D01*
X108325277Y-66863639D01*
X108330592Y-66865063D01*
X108433682Y-66874082D01*
X108504310Y-66880262D01*
X108504317Y-66880262D01*
X108507034Y-66880500D01*
X109424966Y-66880500D01*
X109427683Y-66880262D01*
X109427690Y-66880262D01*
X109498318Y-66874082D01*
X109601408Y-66865063D01*
X109606723Y-66863639D01*
X109824353Y-66805326D01*
X109824355Y-66805325D01*
X109829663Y-66803903D01*
X109834645Y-66801580D01*
X110038848Y-66706358D01*
X110038851Y-66706356D01*
X110043829Y-66704035D01*
X110237401Y-66568495D01*
X110404495Y-66401401D01*
X110407655Y-66396889D01*
X110536878Y-66212339D01*
X110536881Y-66212334D01*
X110540035Y-66207830D01*
X110542358Y-66202848D01*
X110542361Y-66202843D01*
X110637580Y-65998645D01*
X110637581Y-65998644D01*
X110639903Y-65993663D01*
X110647241Y-65966279D01*
X110699639Y-65770723D01*
X110699639Y-65770722D01*
X110701063Y-65765408D01*
X110721659Y-65530000D01*
X127149341Y-65530000D01*
X127169937Y-65765408D01*
X127171361Y-65770722D01*
X127171361Y-65770723D01*
X127223760Y-65966279D01*
X127231097Y-65993663D01*
X127233419Y-65998643D01*
X127233420Y-65998645D01*
X127285008Y-66109274D01*
X127330965Y-66207829D01*
X127466505Y-66401401D01*
X127633599Y-66568495D01*
X127827171Y-66704035D01*
X127832149Y-66706356D01*
X127832152Y-66706358D01*
X128036355Y-66801580D01*
X128041337Y-66803903D01*
X128046645Y-66805325D01*
X128046647Y-66805326D01*
X128264277Y-66863639D01*
X128269592Y-66865063D01*
X128372682Y-66874082D01*
X128443310Y-66880262D01*
X128443317Y-66880262D01*
X128446034Y-66880500D01*
X129363966Y-66880500D01*
X129366683Y-66880262D01*
X129366690Y-66880262D01*
X129437318Y-66874082D01*
X129540408Y-66865063D01*
X129545723Y-66863639D01*
X129763353Y-66805326D01*
X129763355Y-66805325D01*
X129768663Y-66803903D01*
X129773645Y-66801580D01*
X129977848Y-66706358D01*
X129977851Y-66706356D01*
X129982829Y-66704035D01*
X130176401Y-66568495D01*
X130343495Y-66401401D01*
X130346655Y-66396889D01*
X130475878Y-66212339D01*
X130475881Y-66212334D01*
X130479035Y-66207830D01*
X130481358Y-66202848D01*
X130481361Y-66202843D01*
X130576580Y-65998645D01*
X130576581Y-65998644D01*
X130578903Y-65993663D01*
X130586241Y-65966279D01*
X130638639Y-65770723D01*
X130638639Y-65770722D01*
X130640063Y-65765408D01*
X130660659Y-65530000D01*
X130640063Y-65294592D01*
X130621938Y-65226949D01*
X130580326Y-65071647D01*
X130580325Y-65071645D01*
X130578903Y-65066337D01*
X130479035Y-64852171D01*
X130343495Y-64658599D01*
X130176401Y-64491505D01*
X129982829Y-64355965D01*
X129977851Y-64353644D01*
X129977848Y-64353642D01*
X129773645Y-64258420D01*
X129773643Y-64258419D01*
X129768663Y-64256097D01*
X129763355Y-64254675D01*
X129763353Y-64254674D01*
X129545723Y-64196361D01*
X129545722Y-64196361D01*
X129540408Y-64194937D01*
X129437318Y-64185918D01*
X129366690Y-64179738D01*
X129366683Y-64179738D01*
X129363966Y-64179500D01*
X128446034Y-64179500D01*
X128443317Y-64179738D01*
X128443310Y-64179738D01*
X128372682Y-64185918D01*
X128269592Y-64194937D01*
X128264278Y-64196361D01*
X128264277Y-64196361D01*
X128046647Y-64254674D01*
X128046645Y-64254675D01*
X128041337Y-64256097D01*
X128036357Y-64258419D01*
X128036355Y-64258420D01*
X127832152Y-64353642D01*
X127832149Y-64353644D01*
X127827171Y-64355965D01*
X127633599Y-64491505D01*
X127466505Y-64658599D01*
X127463348Y-64663107D01*
X127463346Y-64663110D01*
X127358101Y-64813416D01*
X127330965Y-64852170D01*
X127328642Y-64857152D01*
X127328639Y-64857157D01*
X127290571Y-64938795D01*
X127231097Y-65066337D01*
X127229675Y-65071645D01*
X127229674Y-65071647D01*
X127188062Y-65226949D01*
X127169937Y-65294592D01*
X127149341Y-65530000D01*
X110721659Y-65530000D01*
X110701063Y-65294592D01*
X110682938Y-65226949D01*
X110641326Y-65071647D01*
X110641325Y-65071645D01*
X110639903Y-65066337D01*
X110540035Y-64852171D01*
X110404495Y-64658599D01*
X110237401Y-64491505D01*
X110043829Y-64355965D01*
X110038851Y-64353644D01*
X110038848Y-64353642D01*
X109834645Y-64258420D01*
X109834643Y-64258419D01*
X109829663Y-64256097D01*
X109824355Y-64254675D01*
X109824353Y-64254674D01*
X109606723Y-64196361D01*
X109606722Y-64196361D01*
X109601408Y-64194937D01*
X109498318Y-64185918D01*
X109427690Y-64179738D01*
X109427683Y-64179738D01*
X109424966Y-64179500D01*
X108507034Y-64179500D01*
X108504317Y-64179738D01*
X108504310Y-64179738D01*
X108433682Y-64185918D01*
X108330592Y-64194937D01*
X108325278Y-64196361D01*
X108325277Y-64196361D01*
X108107647Y-64254674D01*
X108107645Y-64254675D01*
X108102337Y-64256097D01*
X108097357Y-64258419D01*
X108097355Y-64258420D01*
X107893152Y-64353642D01*
X107893149Y-64353644D01*
X107888171Y-64355965D01*
X107694599Y-64491505D01*
X107527505Y-64658599D01*
X107524348Y-64663107D01*
X107524346Y-64663110D01*
X107419101Y-64813416D01*
X107391965Y-64852170D01*
X107389642Y-64857152D01*
X107389639Y-64857157D01*
X107351571Y-64938795D01*
X107292097Y-65066337D01*
X107290675Y-65071645D01*
X107290674Y-65071647D01*
X107249062Y-65226949D01*
X107230937Y-65294592D01*
X107210341Y-65530000D01*
X96482558Y-65530000D01*
X96483000Y-65521000D01*
X96482522Y-65511274D01*
X96468706Y-65230039D01*
X96468706Y-65230035D01*
X96468554Y-65226949D01*
X96425356Y-64935729D01*
X96405674Y-64857152D01*
X96389266Y-64791649D01*
X96353821Y-64650146D01*
X96254639Y-64372950D01*
X96253323Y-64370167D01*
X96253319Y-64370158D01*
X96130080Y-64109592D01*
X96130078Y-64109589D01*
X96128764Y-64106810D01*
X96022339Y-63929250D01*
X95978998Y-63856939D01*
X95978992Y-63856930D01*
X95977409Y-63854289D01*
X95802031Y-63617820D01*
X95604320Y-63399680D01*
X95386180Y-63201969D01*
X95149711Y-63026591D01*
X95147070Y-63025008D01*
X95147061Y-63025002D01*
X94899831Y-62876819D01*
X94899832Y-62876819D01*
X94897190Y-62875236D01*
X94894408Y-62873920D01*
X94633842Y-62750681D01*
X94633833Y-62750677D01*
X94631050Y-62749361D01*
X94481600Y-62695887D01*
X94356759Y-62651218D01*
X94356751Y-62651216D01*
X94353854Y-62650179D01*
X94212351Y-62614734D01*
X94071274Y-62579396D01*
X94071270Y-62579395D01*
X94068271Y-62578644D01*
X94065209Y-62578190D01*
X94065205Y-62578189D01*
X94058105Y-62577136D01*
X93993656Y-62547355D01*
X93955540Y-62487458D01*
X93955857Y-62416462D01*
X93994506Y-62356908D01*
X94059218Y-62327704D01*
X94076593Y-62326500D01*
X141889407Y-62326500D01*
X141957528Y-62346502D01*
G37*
%TD.AperFunction*%
%TA.AperFunction,Conductor*%
G36*
X139191973Y-92370502D02*
G01*
X139212947Y-92387405D01*
X139441595Y-92616053D01*
X139475621Y-92678365D01*
X139478500Y-92705148D01*
X139478500Y-104624627D01*
X139477261Y-104635723D01*
X139477859Y-104635771D01*
X139477139Y-104644717D01*
X139475158Y-104653473D01*
X139475714Y-104662433D01*
X139478258Y-104703440D01*
X139478500Y-104711242D01*
X139478500Y-104726145D01*
X139479238Y-104731297D01*
X139479841Y-104735508D01*
X139480871Y-104745566D01*
X139483592Y-104789417D01*
X139486641Y-104797862D01*
X139487932Y-104804098D01*
X139489865Y-104811849D01*
X139491646Y-104817938D01*
X139492919Y-104826829D01*
X139496636Y-104835004D01*
X139511108Y-104866836D01*
X139514920Y-104876201D01*
X139526791Y-104909083D01*
X139526793Y-104909086D01*
X139529841Y-104917530D01*
X139535136Y-104924777D01*
X139538129Y-104930407D01*
X139542132Y-104937257D01*
X139545577Y-104942644D01*
X139549294Y-104950820D01*
X139555154Y-104957620D01*
X139555154Y-104957621D01*
X139577981Y-104984113D01*
X139584266Y-104992029D01*
X139588702Y-104998101D01*
X139588708Y-104998108D01*
X139591577Y-105002035D01*
X139601618Y-105012076D01*
X139607976Y-105018923D01*
X139632345Y-105047205D01*
X139632347Y-105047207D01*
X139638204Y-105054004D01*
X139645733Y-105058884D01*
X139652500Y-105064788D01*
X139652431Y-105064867D01*
X139662790Y-105073249D01*
X139906598Y-105317056D01*
X140108521Y-105518979D01*
X140142546Y-105581292D01*
X140139758Y-105645439D01*
X140127922Y-105683558D01*
X140117202Y-105718081D01*
X140093105Y-105921675D01*
X140106513Y-106126250D01*
X140107935Y-106131849D01*
X140147085Y-106285998D01*
X140156979Y-106324957D01*
X140159396Y-106330199D01*
X140159396Y-106330200D01*
X140235836Y-106496011D01*
X140246191Y-106566248D01*
X140216928Y-106630934D01*
X140157340Y-106669531D01*
X140086344Y-106669784D01*
X140032315Y-106637857D01*
X136657872Y-103263414D01*
X136650900Y-103254688D01*
X136650442Y-103255077D01*
X136644626Y-103248243D01*
X136639835Y-103240650D01*
X136602293Y-103207494D01*
X136596606Y-103202148D01*
X136586085Y-103191627D01*
X136578513Y-103185952D01*
X136570682Y-103179576D01*
X136544475Y-103156431D01*
X136537745Y-103150487D01*
X136536220Y-103149771D01*
X136492642Y-103098451D01*
X136489561Y-103090869D01*
X136470193Y-103038370D01*
X136468196Y-103032957D01*
X136355386Y-102843341D01*
X136209910Y-102677457D01*
X136036640Y-102540863D01*
X135841380Y-102438131D01*
X135835857Y-102436416D01*
X135835852Y-102436414D01*
X135793916Y-102423392D01*
X135734790Y-102384089D01*
X135706300Y-102319060D01*
X135717490Y-102248951D01*
X135764807Y-102196021D01*
X135797075Y-102181792D01*
X135812064Y-102177565D01*
X136009947Y-102079980D01*
X136018999Y-102073221D01*
X136182109Y-101951420D01*
X136182110Y-101951420D01*
X136186733Y-101947967D01*
X136328827Y-101794251D01*
X136332582Y-101790189D01*
X136332584Y-101790186D01*
X136336501Y-101785949D01*
X136454236Y-101599350D01*
X136535994Y-101394421D01*
X136552183Y-101313037D01*
X136577911Y-101183691D01*
X136577911Y-101183688D01*
X136579038Y-101178024D01*
X136579529Y-101140555D01*
X136581850Y-100963188D01*
X136581926Y-100957406D01*
X136577785Y-100933305D01*
X136545541Y-100745654D01*
X136545541Y-100745653D01*
X136544562Y-100739957D01*
X136468196Y-100532957D01*
X136465244Y-100527995D01*
X136358340Y-100348306D01*
X136358339Y-100348305D01*
X136355386Y-100343341D01*
X136209910Y-100177457D01*
X136123177Y-100109083D01*
X136082064Y-100051204D01*
X136078770Y-99980284D01*
X136114341Y-99918841D01*
X136161307Y-99890610D01*
X136296784Y-99845412D01*
X136309962Y-99839239D01*
X136447807Y-99753937D01*
X136459208Y-99744901D01*
X136573739Y-99630171D01*
X136582751Y-99618760D01*
X136667816Y-99480757D01*
X136673963Y-99467576D01*
X136725138Y-99313290D01*
X136728005Y-99299914D01*
X136737672Y-99205562D01*
X136738000Y-99199146D01*
X136738000Y-98824115D01*
X136733525Y-98808876D01*
X136732135Y-98807671D01*
X136724452Y-98806000D01*
X135127000Y-98806000D01*
X135058879Y-98785998D01*
X135012386Y-98732342D01*
X135001000Y-98680000D01*
X135001000Y-98279885D01*
X135509000Y-98279885D01*
X135513475Y-98295124D01*
X135514865Y-98296329D01*
X135522548Y-98298000D01*
X136719884Y-98298000D01*
X136735123Y-98293525D01*
X136736328Y-98292135D01*
X136737999Y-98284452D01*
X136737999Y-97904905D01*
X136737662Y-97898386D01*
X136727743Y-97802794D01*
X136724851Y-97789400D01*
X136673412Y-97635216D01*
X136667239Y-97622038D01*
X136581937Y-97484193D01*
X136572901Y-97472792D01*
X136458171Y-97358261D01*
X136446760Y-97349249D01*
X136308757Y-97264184D01*
X136295576Y-97258037D01*
X136141290Y-97206862D01*
X136127914Y-97203995D01*
X136033562Y-97194328D01*
X136027145Y-97194000D01*
X135527115Y-97194000D01*
X135511876Y-97198475D01*
X135510671Y-97199865D01*
X135509000Y-97207548D01*
X135509000Y-98279885D01*
X135001000Y-98279885D01*
X135001000Y-97212116D01*
X134996525Y-97196877D01*
X134995135Y-97195672D01*
X134987452Y-97194001D01*
X134606500Y-97194001D01*
X134538379Y-97173999D01*
X134491886Y-97120343D01*
X134480500Y-97068001D01*
X134480500Y-93098561D01*
X134500502Y-93030440D01*
X134554158Y-92983947D01*
X134624432Y-92973843D01*
X134657876Y-92984687D01*
X134658173Y-92983969D01*
X134663503Y-92986177D01*
X134668620Y-92988869D01*
X134802501Y-93030440D01*
X134855334Y-93046845D01*
X134879333Y-93054297D01*
X134885070Y-93054976D01*
X135054789Y-93075064D01*
X135054795Y-93075064D01*
X135058476Y-93075500D01*
X135435970Y-93075500D01*
X135599711Y-93060454D01*
X135605273Y-93058885D01*
X135605275Y-93058885D01*
X135706134Y-93030440D01*
X135812064Y-93000565D01*
X136009947Y-92902980D01*
X136135851Y-92808963D01*
X136182109Y-92774420D01*
X136182110Y-92774420D01*
X136186733Y-92770967D01*
X136288360Y-92661028D01*
X136332582Y-92613189D01*
X136332584Y-92613186D01*
X136336501Y-92608949D01*
X136389614Y-92524770D01*
X136451155Y-92427234D01*
X136451157Y-92427229D01*
X136454236Y-92422350D01*
X136455641Y-92418829D01*
X136503945Y-92367682D01*
X136567465Y-92350500D01*
X139123852Y-92350500D01*
X139191973Y-92370502D01*
G37*
%TD.AperFunction*%
%TA.AperFunction,Conductor*%
G36*
X134042116Y-82420502D02*
G01*
X134082280Y-82462077D01*
X134108207Y-82505656D01*
X134154614Y-82583659D01*
X134300090Y-82749543D01*
X134473360Y-82886137D01*
X134668620Y-82988869D01*
X134674143Y-82990584D01*
X134674148Y-82990586D01*
X134716084Y-83003608D01*
X134775210Y-83042911D01*
X134803700Y-83107940D01*
X134792510Y-83178049D01*
X134745193Y-83230979D01*
X134712925Y-83245208D01*
X134697936Y-83249435D01*
X134500053Y-83347020D01*
X134495427Y-83350474D01*
X134495426Y-83350475D01*
X134472709Y-83367439D01*
X134323267Y-83479033D01*
X134303463Y-83500457D01*
X134182012Y-83631842D01*
X134173499Y-83641051D01*
X134055764Y-83827650D01*
X133974006Y-84032579D01*
X133972880Y-84038239D01*
X133972879Y-84038243D01*
X133934759Y-84229885D01*
X133930962Y-84248976D01*
X133928074Y-84469594D01*
X133929053Y-84475291D01*
X133929053Y-84475292D01*
X133942529Y-84553716D01*
X133965438Y-84687043D01*
X134041804Y-84894043D01*
X134044756Y-84899004D01*
X134044756Y-84899005D01*
X134132005Y-85045656D01*
X134154614Y-85083659D01*
X134300090Y-85249543D01*
X134473360Y-85386137D01*
X134540611Y-85421520D01*
X134547011Y-85424887D01*
X134597983Y-85474307D01*
X134614146Y-85543439D01*
X134590367Y-85610335D01*
X134540093Y-85651277D01*
X134472034Y-85681935D01*
X134462744Y-85687106D01*
X134280425Y-85809850D01*
X134272130Y-85816519D01*
X134113100Y-85968228D01*
X134106059Y-85976186D01*
X133974859Y-86152525D01*
X133969255Y-86161562D01*
X133869643Y-86357484D01*
X133865643Y-86367335D01*
X133800466Y-86577240D01*
X133798183Y-86587624D01*
X133796139Y-86603043D01*
X133798335Y-86617207D01*
X133811522Y-86621000D01*
X136696192Y-86621000D01*
X136709723Y-86617027D01*
X136711248Y-86606420D01*
X136686523Y-86488579D01*
X136683463Y-86478383D01*
X136602737Y-86273971D01*
X136598006Y-86264439D01*
X136483984Y-86076538D01*
X136477720Y-86067948D01*
X136333673Y-85901948D01*
X136326042Y-85894528D01*
X136156089Y-85755174D01*
X136147322Y-85749150D01*
X135964088Y-85644847D01*
X135914782Y-85593765D01*
X135900920Y-85524135D01*
X135926903Y-85458064D01*
X135970690Y-85422340D01*
X136004766Y-85405535D01*
X136009947Y-85402980D01*
X136032503Y-85386137D01*
X136182109Y-85274420D01*
X136182110Y-85274420D01*
X136186733Y-85270967D01*
X136336501Y-85108949D01*
X136415163Y-84984277D01*
X136451155Y-84927234D01*
X136451157Y-84927229D01*
X136454236Y-84922350D01*
X136455641Y-84918829D01*
X136503945Y-84867682D01*
X136567465Y-84850500D01*
X137167852Y-84850500D01*
X137235973Y-84870502D01*
X137256947Y-84887405D01*
X140108520Y-87738979D01*
X140142546Y-87801291D01*
X140139758Y-87865437D01*
X140117202Y-87938081D01*
X140093105Y-88141675D01*
X140106513Y-88346250D01*
X140156979Y-88544957D01*
X140242810Y-88731139D01*
X140246143Y-88735855D01*
X140357132Y-88892901D01*
X140361133Y-88898563D01*
X140507986Y-89041620D01*
X140678449Y-89155520D01*
X140683752Y-89157798D01*
X140683755Y-89157800D01*
X140861508Y-89234169D01*
X140866815Y-89236449D01*
X140940559Y-89253136D01*
X141061137Y-89280420D01*
X141061142Y-89280421D01*
X141066774Y-89281695D01*
X141072545Y-89281922D01*
X141072547Y-89281922D01*
X141134339Y-89284350D01*
X141271631Y-89289744D01*
X141375333Y-89274708D01*
X141468810Y-89261155D01*
X141468815Y-89261154D01*
X141474524Y-89260326D01*
X141479988Y-89258471D01*
X141479993Y-89258470D01*
X141663187Y-89196284D01*
X141663192Y-89196282D01*
X141668659Y-89194426D01*
X141734059Y-89157800D01*
X141842495Y-89097073D01*
X141842499Y-89097070D01*
X141847533Y-89094251D01*
X141851970Y-89090561D01*
X141851974Y-89090558D01*
X142000719Y-88966848D01*
X142005157Y-88963157D01*
X142043710Y-88916802D01*
X142132558Y-88809974D01*
X142132561Y-88809970D01*
X142136251Y-88805533D01*
X142139070Y-88800499D01*
X142139073Y-88800495D01*
X142233603Y-88631700D01*
X142233603Y-88631699D01*
X142236426Y-88626659D01*
X142238282Y-88621192D01*
X142238284Y-88621187D01*
X142300470Y-88437993D01*
X142300471Y-88437988D01*
X142302326Y-88432524D01*
X142303154Y-88426815D01*
X142303155Y-88426810D01*
X142323459Y-88286771D01*
X142331744Y-88229631D01*
X142333279Y-88171000D01*
X142314520Y-87966845D01*
X142312720Y-87960463D01*
X142260441Y-87775093D01*
X142260439Y-87775088D01*
X142258871Y-87769528D01*
X142168195Y-87585656D01*
X142045530Y-87421387D01*
X141914567Y-87300326D01*
X141899223Y-87286142D01*
X141899220Y-87286140D01*
X141894983Y-87282223D01*
X141721596Y-87172824D01*
X141539375Y-87100125D01*
X141536540Y-87098994D01*
X141531176Y-87096854D01*
X141525516Y-87095728D01*
X141525512Y-87095727D01*
X141335769Y-87057985D01*
X141335764Y-87057985D01*
X141330101Y-87056858D01*
X141324326Y-87056782D01*
X141324322Y-87056782D01*
X141221605Y-87055437D01*
X141125104Y-87054174D01*
X141119407Y-87055153D01*
X141119406Y-87055153D01*
X141052476Y-87066654D01*
X140923050Y-87088894D01*
X140917624Y-87090896D01*
X140917623Y-87090896D01*
X140911282Y-87093235D01*
X140840449Y-87098047D01*
X140778577Y-87064118D01*
X140529170Y-86814711D01*
X140495144Y-86752399D01*
X140500209Y-86681584D01*
X140542756Y-86624748D01*
X140609276Y-86599937D01*
X140677075Y-86614602D01*
X140678449Y-86615520D01*
X140683752Y-86617798D01*
X140683755Y-86617800D01*
X140832216Y-86681584D01*
X140866815Y-86696449D01*
X140914920Y-86707334D01*
X141061137Y-86740420D01*
X141061142Y-86740421D01*
X141066774Y-86741695D01*
X141072545Y-86741922D01*
X141072547Y-86741922D01*
X141134339Y-86744350D01*
X141271631Y-86749744D01*
X141376685Y-86734512D01*
X141468810Y-86721155D01*
X141468815Y-86721154D01*
X141474524Y-86720326D01*
X141479988Y-86718471D01*
X141479993Y-86718470D01*
X141663187Y-86656284D01*
X141663192Y-86656282D01*
X141668659Y-86654426D01*
X141675825Y-86650413D01*
X141842495Y-86557073D01*
X141842499Y-86557070D01*
X141847533Y-86554251D01*
X141851970Y-86550561D01*
X141851974Y-86550558D01*
X142000719Y-86426848D01*
X142005157Y-86423157D01*
X142045927Y-86374136D01*
X142132558Y-86269974D01*
X142132561Y-86269970D01*
X142136251Y-86265533D01*
X142139070Y-86260499D01*
X142139073Y-86260495D01*
X142233603Y-86091700D01*
X142233603Y-86091699D01*
X142236426Y-86086659D01*
X142282172Y-85951896D01*
X142323009Y-85893820D01*
X142388762Y-85867042D01*
X142458555Y-85880063D01*
X142510228Y-85928750D01*
X142523192Y-85959787D01*
X142550779Y-86062745D01*
X142554525Y-86073037D01*
X142644012Y-86264944D01*
X142649495Y-86274439D01*
X142680640Y-86318919D01*
X142691117Y-86327294D01*
X142704564Y-86320226D01*
X143663905Y-85360885D01*
X143726217Y-85326859D01*
X143797032Y-85331924D01*
X143842095Y-85360885D01*
X144023115Y-85541905D01*
X144057141Y-85604217D01*
X144052076Y-85675032D01*
X144023115Y-85720095D01*
X143063053Y-86680157D01*
X143056623Y-86691932D01*
X143065916Y-86703945D01*
X143109569Y-86734512D01*
X143119047Y-86739984D01*
X143310962Y-86829475D01*
X143321255Y-86833221D01*
X143421758Y-86860150D01*
X143482380Y-86897101D01*
X143513402Y-86960962D01*
X143504974Y-87031456D01*
X143459771Y-87086203D01*
X143432758Y-87100069D01*
X143344056Y-87132793D01*
X143270707Y-87159853D01*
X143265746Y-87162805D01*
X143265745Y-87162805D01*
X143161469Y-87224843D01*
X143094517Y-87264675D01*
X142940378Y-87399851D01*
X142936811Y-87404376D01*
X142936806Y-87404381D01*
X142817033Y-87556313D01*
X142813455Y-87560852D01*
X142810764Y-87565968D01*
X142810762Y-87565970D01*
X142759280Y-87663821D01*
X142717997Y-87742288D01*
X142657202Y-87938081D01*
X142633105Y-88141675D01*
X142646513Y-88346250D01*
X142696979Y-88544957D01*
X142782810Y-88731139D01*
X142786143Y-88735855D01*
X142897132Y-88892901D01*
X142901133Y-88898563D01*
X143047986Y-89041620D01*
X143218449Y-89155520D01*
X143223752Y-89157798D01*
X143223755Y-89157800D01*
X143401508Y-89234169D01*
X143406815Y-89236449D01*
X143480559Y-89253136D01*
X143601137Y-89280420D01*
X143601142Y-89280421D01*
X143606774Y-89281695D01*
X143612545Y-89281922D01*
X143612547Y-89281922D01*
X143674339Y-89284350D01*
X143811631Y-89289744D01*
X143915333Y-89274708D01*
X144008810Y-89261155D01*
X144008815Y-89261154D01*
X144014524Y-89260326D01*
X144019988Y-89258471D01*
X144019993Y-89258470D01*
X144203187Y-89196284D01*
X144203192Y-89196282D01*
X144208659Y-89194426D01*
X144320933Y-89131549D01*
X144390142Y-89115715D01*
X144456924Y-89139812D01*
X144500077Y-89196188D01*
X144508500Y-89241483D01*
X144508500Y-89640125D01*
X144488498Y-89708246D01*
X144434842Y-89754739D01*
X144364568Y-89764843D01*
X144315264Y-89746686D01*
X144261596Y-89712824D01*
X144071176Y-89636854D01*
X144065516Y-89635728D01*
X144065512Y-89635727D01*
X143875769Y-89597985D01*
X143875764Y-89597985D01*
X143870101Y-89596858D01*
X143864326Y-89596782D01*
X143864322Y-89596782D01*
X143761605Y-89595437D01*
X143665104Y-89594174D01*
X143659407Y-89595153D01*
X143659406Y-89595153D01*
X143468747Y-89627915D01*
X143463050Y-89628894D01*
X143270707Y-89699853D01*
X143265746Y-89702805D01*
X143265745Y-89702805D01*
X143161469Y-89764843D01*
X143094517Y-89804675D01*
X142940378Y-89939851D01*
X142936811Y-89944376D01*
X142936806Y-89944381D01*
X142819592Y-90093067D01*
X142813455Y-90100852D01*
X142810764Y-90105968D01*
X142810762Y-90105970D01*
X142764385Y-90194119D01*
X142717997Y-90282288D01*
X142657202Y-90478081D01*
X142633105Y-90681675D01*
X142646513Y-90886250D01*
X142696979Y-91084957D01*
X142702416Y-91096750D01*
X142712769Y-91166988D01*
X142683506Y-91231673D01*
X142623917Y-91270269D01*
X142587989Y-91275500D01*
X142375312Y-91275500D01*
X142307191Y-91255498D01*
X142260698Y-91201842D01*
X142250594Y-91131568D01*
X142255999Y-91108999D01*
X142300470Y-90977993D01*
X142300471Y-90977988D01*
X142302326Y-90972524D01*
X142303154Y-90966815D01*
X142303155Y-90966810D01*
X142331211Y-90773305D01*
X142331744Y-90769631D01*
X142333279Y-90711000D01*
X142314520Y-90506845D01*
X142292515Y-90428821D01*
X142260441Y-90315093D01*
X142260439Y-90315088D01*
X142258871Y-90309528D01*
X142168195Y-90125656D01*
X142045530Y-89961387D01*
X141894983Y-89822223D01*
X141721596Y-89712824D01*
X141531176Y-89636854D01*
X141525516Y-89635728D01*
X141525512Y-89635727D01*
X141335769Y-89597985D01*
X141335764Y-89597985D01*
X141330101Y-89596858D01*
X141324326Y-89596782D01*
X141324322Y-89596782D01*
X141221605Y-89595437D01*
X141125104Y-89594174D01*
X141119407Y-89595153D01*
X141119406Y-89595153D01*
X140928747Y-89627915D01*
X140923050Y-89628894D01*
X140730707Y-89699853D01*
X140725746Y-89702805D01*
X140725745Y-89702805D01*
X140621469Y-89764843D01*
X140554517Y-89804675D01*
X140400378Y-89939851D01*
X140396811Y-89944376D01*
X140396806Y-89944381D01*
X140279592Y-90093067D01*
X140273455Y-90100852D01*
X140199688Y-90241061D01*
X140191441Y-90256735D01*
X140142022Y-90307707D01*
X140072889Y-90323870D01*
X140005993Y-90300091D01*
X139990838Y-90287162D01*
X139892312Y-90188636D01*
X139888659Y-90184827D01*
X139854441Y-90147615D01*
X139848623Y-90141288D01*
X139813551Y-90119542D01*
X139803769Y-90112819D01*
X139777747Y-90093067D01*
X139770903Y-90087872D01*
X139762916Y-90084710D01*
X139762913Y-90084708D01*
X139758024Y-90082772D01*
X139738023Y-90072713D01*
X139726257Y-90065418D01*
X139686626Y-90053904D01*
X139675402Y-90050060D01*
X139645023Y-90038033D01*
X139645020Y-90038032D01*
X139637035Y-90034871D01*
X139628498Y-90033974D01*
X139628491Y-90033972D01*
X139623268Y-90033423D01*
X139601291Y-90029112D01*
X139594329Y-90027089D01*
X139594327Y-90027089D01*
X139587995Y-90025249D01*
X139581180Y-90024749D01*
X139580103Y-90024669D01*
X139580090Y-90024669D01*
X139577795Y-90024500D01*
X139544968Y-90024500D01*
X139531797Y-90023810D01*
X139493845Y-90019821D01*
X139485379Y-90021253D01*
X139485376Y-90021253D01*
X139476609Y-90022736D01*
X139455597Y-90024500D01*
X136599408Y-90024500D01*
X136531287Y-90004498D01*
X136484794Y-89950842D01*
X136474690Y-89880568D01*
X136482378Y-89851810D01*
X136492619Y-89826142D01*
X136535994Y-89717421D01*
X136538902Y-89702805D01*
X136577911Y-89506691D01*
X136577911Y-89506688D01*
X136579038Y-89501024D01*
X136579450Y-89469594D01*
X136580563Y-89384504D01*
X136581926Y-89280406D01*
X136578157Y-89258470D01*
X136545541Y-89068654D01*
X136545541Y-89068653D01*
X136544562Y-89062957D01*
X136468196Y-88855957D01*
X136438197Y-88805533D01*
X136358340Y-88671306D01*
X136358339Y-88671305D01*
X136355386Y-88666341D01*
X136209910Y-88500457D01*
X136036640Y-88363863D01*
X135962989Y-88325113D01*
X135912017Y-88275693D01*
X135895854Y-88206561D01*
X135919633Y-88139665D01*
X135969907Y-88098723D01*
X136037966Y-88068065D01*
X136047256Y-88062894D01*
X136229575Y-87940150D01*
X136237870Y-87933481D01*
X136396900Y-87781772D01*
X136403941Y-87773814D01*
X136535141Y-87597475D01*
X136540745Y-87588438D01*
X136640357Y-87392516D01*
X136644357Y-87382665D01*
X136709534Y-87172760D01*
X136711817Y-87162376D01*
X136713861Y-87146957D01*
X136711665Y-87132793D01*
X136698478Y-87129000D01*
X133804359Y-87129000D01*
X133736238Y-87108998D01*
X133715264Y-87092095D01*
X132682405Y-86059236D01*
X132648379Y-85996924D01*
X132645500Y-85970141D01*
X132645500Y-82526500D01*
X132665502Y-82458379D01*
X132719158Y-82411886D01*
X132771500Y-82400500D01*
X133973995Y-82400500D01*
X134042116Y-82420502D01*
G37*
%TD.AperFunction*%
%TA.AperFunction,Conductor*%
G36*
X142461262Y-72386502D02*
G01*
X142482236Y-72403405D01*
X142631767Y-72552936D01*
X142665793Y-72615248D01*
X142663004Y-72679396D01*
X142660638Y-72687017D01*
X142657202Y-72698081D01*
X142633105Y-72901675D01*
X142646513Y-73106250D01*
X142647935Y-73111849D01*
X142694294Y-73294383D01*
X142696979Y-73304957D01*
X142699396Y-73310199D01*
X142699396Y-73310200D01*
X142703712Y-73319562D01*
X142782810Y-73491139D01*
X142797078Y-73511328D01*
X142848276Y-73583771D01*
X142901133Y-73658563D01*
X143047986Y-73801620D01*
X143218449Y-73915520D01*
X143223752Y-73917798D01*
X143223755Y-73917800D01*
X143379203Y-73984586D01*
X143406815Y-73996449D01*
X143413927Y-73998058D01*
X143414555Y-73998408D01*
X143417941Y-73999508D01*
X143417725Y-74000173D01*
X143475954Y-74032597D01*
X143509462Y-74095188D01*
X143503811Y-74165960D01*
X143460796Y-74222442D01*
X143418736Y-74242659D01*
X143321252Y-74268780D01*
X143310963Y-74272525D01*
X143119056Y-74362012D01*
X143109561Y-74367495D01*
X143065081Y-74398640D01*
X143056706Y-74409117D01*
X143063774Y-74422564D01*
X144023115Y-75381905D01*
X144057141Y-75444217D01*
X144052076Y-75515032D01*
X144023115Y-75560095D01*
X143063053Y-76520157D01*
X143056623Y-76531932D01*
X143065916Y-76543945D01*
X143109569Y-76574512D01*
X143119047Y-76579984D01*
X143310962Y-76669475D01*
X143321255Y-76673221D01*
X143421758Y-76700150D01*
X143482380Y-76737101D01*
X143513402Y-76800962D01*
X143504974Y-76871456D01*
X143459771Y-76926203D01*
X143432758Y-76940069D01*
X143304533Y-76987374D01*
X143270707Y-76999853D01*
X143265746Y-77002805D01*
X143265745Y-77002805D01*
X143161469Y-77064843D01*
X143094517Y-77104675D01*
X142940378Y-77239851D01*
X142936811Y-77244376D01*
X142936806Y-77244381D01*
X142828676Y-77381544D01*
X142813455Y-77400852D01*
X142810764Y-77405968D01*
X142810762Y-77405970D01*
X142747491Y-77526229D01*
X142717997Y-77582288D01*
X142657202Y-77778081D01*
X142633105Y-77981675D01*
X142646513Y-78186250D01*
X142696979Y-78384957D01*
X142699396Y-78390199D01*
X142699396Y-78390200D01*
X142772120Y-78547951D01*
X142782810Y-78571139D01*
X142786143Y-78575855D01*
X142893601Y-78727905D01*
X142901133Y-78738563D01*
X143047986Y-78881620D01*
X143218449Y-78995520D01*
X143223752Y-78997798D01*
X143223755Y-78997800D01*
X143313324Y-79036282D01*
X143406815Y-79076449D01*
X143480559Y-79093136D01*
X143601137Y-79120420D01*
X143601142Y-79120421D01*
X143606774Y-79121695D01*
X143612545Y-79121922D01*
X143612547Y-79121922D01*
X143674339Y-79124350D01*
X143811631Y-79129744D01*
X143913077Y-79115035D01*
X144008810Y-79101155D01*
X144008815Y-79101154D01*
X144014524Y-79100326D01*
X144019988Y-79098471D01*
X144019993Y-79098470D01*
X144203187Y-79036284D01*
X144203192Y-79036282D01*
X144208659Y-79034426D01*
X144320933Y-78971549D01*
X144390142Y-78955715D01*
X144456924Y-78979812D01*
X144500077Y-79036188D01*
X144508500Y-79081483D01*
X144508500Y-79480125D01*
X144488498Y-79548246D01*
X144434842Y-79594739D01*
X144364568Y-79604843D01*
X144315264Y-79586686D01*
X144266482Y-79555907D01*
X144261596Y-79552824D01*
X144071176Y-79476854D01*
X144065516Y-79475728D01*
X144065512Y-79475727D01*
X143875769Y-79437985D01*
X143875764Y-79437985D01*
X143870101Y-79436858D01*
X143864326Y-79436782D01*
X143864322Y-79436782D01*
X143761605Y-79435437D01*
X143665104Y-79434174D01*
X143659407Y-79435153D01*
X143659406Y-79435153D01*
X143587582Y-79447495D01*
X143463050Y-79468894D01*
X143270707Y-79539853D01*
X143265746Y-79542805D01*
X143265745Y-79542805D01*
X143113343Y-79633475D01*
X143094517Y-79644675D01*
X142940378Y-79779851D01*
X142936811Y-79784376D01*
X142936806Y-79784381D01*
X142832214Y-79917056D01*
X142813455Y-79940852D01*
X142810764Y-79945968D01*
X142810762Y-79945970D01*
X142720689Y-80117171D01*
X142717997Y-80122288D01*
X142716283Y-80127807D01*
X142716280Y-80127815D01*
X142685146Y-80228082D01*
X142645843Y-80287208D01*
X142580814Y-80315698D01*
X142510705Y-80304508D01*
X142457775Y-80257191D01*
X142443107Y-80223329D01*
X142415221Y-80119255D01*
X142411475Y-80108963D01*
X142321988Y-79917056D01*
X142316505Y-79907561D01*
X142285360Y-79863081D01*
X142274883Y-79854706D01*
X142261436Y-79861774D01*
X141585022Y-80538188D01*
X141577408Y-80552132D01*
X141577539Y-80553965D01*
X141581790Y-80560580D01*
X142262157Y-81240947D01*
X142273932Y-81247377D01*
X142285947Y-81238081D01*
X142316505Y-81194439D01*
X142321988Y-81184944D01*
X142411475Y-80993037D01*
X142415220Y-80982748D01*
X142442436Y-80881177D01*
X142479388Y-80820555D01*
X142543249Y-80789533D01*
X142613743Y-80797962D01*
X142668490Y-80843165D01*
X142686266Y-80882775D01*
X142696979Y-80924957D01*
X142782810Y-81111139D01*
X142786143Y-81115855D01*
X142895816Y-81271039D01*
X142901133Y-81278563D01*
X142905275Y-81282598D01*
X142953420Y-81329498D01*
X143047986Y-81421620D01*
X143218449Y-81535520D01*
X143223752Y-81537798D01*
X143223755Y-81537800D01*
X143389621Y-81609062D01*
X143406815Y-81616449D01*
X143480559Y-81633136D01*
X143601137Y-81660420D01*
X143601142Y-81660421D01*
X143606774Y-81661695D01*
X143612545Y-81661922D01*
X143612547Y-81661922D01*
X143674339Y-81664350D01*
X143811631Y-81669744D01*
X143916685Y-81654512D01*
X144008810Y-81641155D01*
X144008815Y-81641154D01*
X144014524Y-81640326D01*
X144019988Y-81638471D01*
X144019993Y-81638470D01*
X144203187Y-81576284D01*
X144203192Y-81576282D01*
X144208659Y-81574426D01*
X144233169Y-81560700D01*
X144320933Y-81511549D01*
X144390142Y-81495715D01*
X144456924Y-81519812D01*
X144500077Y-81576188D01*
X144508500Y-81621483D01*
X144508500Y-82020125D01*
X144488498Y-82088246D01*
X144434842Y-82134739D01*
X144364568Y-82144843D01*
X144315264Y-82126686D01*
X144266482Y-82095907D01*
X144261596Y-82092824D01*
X144071176Y-82016854D01*
X144065516Y-82015728D01*
X144065512Y-82015727D01*
X143875769Y-81977985D01*
X143875764Y-81977985D01*
X143870101Y-81976858D01*
X143864326Y-81976782D01*
X143864322Y-81976782D01*
X143761605Y-81975437D01*
X143665104Y-81974174D01*
X143659407Y-81975153D01*
X143659406Y-81975153D01*
X143475870Y-82006691D01*
X143463050Y-82008894D01*
X143270707Y-82079853D01*
X143265746Y-82082805D01*
X143265745Y-82082805D01*
X143161469Y-82144843D01*
X143094517Y-82184675D01*
X142940378Y-82319851D01*
X142936811Y-82324376D01*
X142936806Y-82324381D01*
X142831171Y-82458379D01*
X142813455Y-82480852D01*
X142810764Y-82485968D01*
X142810762Y-82485970D01*
X142757080Y-82588003D01*
X142717997Y-82662288D01*
X142657202Y-82858081D01*
X142633105Y-83061675D01*
X142646513Y-83266250D01*
X142647935Y-83271847D01*
X142647935Y-83271850D01*
X142681287Y-83403172D01*
X142678669Y-83474121D01*
X142648259Y-83523283D01*
X142502947Y-83668595D01*
X142440635Y-83702621D01*
X142413852Y-83705500D01*
X142358339Y-83705500D01*
X142290218Y-83685498D01*
X142243725Y-83631842D01*
X142233621Y-83561568D01*
X142239025Y-83539004D01*
X142302326Y-83352524D01*
X142303154Y-83346815D01*
X142303155Y-83346810D01*
X142325064Y-83195703D01*
X142331744Y-83149631D01*
X142333279Y-83091000D01*
X142314520Y-82886845D01*
X142304852Y-82852564D01*
X142260441Y-82695093D01*
X142260439Y-82695088D01*
X142258871Y-82689528D01*
X142168195Y-82505656D01*
X142045530Y-82341387D01*
X141894983Y-82202223D01*
X141721596Y-82092824D01*
X141533818Y-82017908D01*
X141477958Y-81974087D01*
X141454658Y-81907023D01*
X141471314Y-81838008D01*
X141522638Y-81788953D01*
X141547897Y-81779171D01*
X141644745Y-81753221D01*
X141655038Y-81749475D01*
X141846953Y-81659984D01*
X141856431Y-81654512D01*
X141900920Y-81623359D01*
X141909294Y-81612883D01*
X141902226Y-81599436D01*
X140163843Y-79861053D01*
X140152068Y-79854623D01*
X140140053Y-79863919D01*
X140109495Y-79907561D01*
X140104012Y-79917056D01*
X140014525Y-80108963D01*
X140010779Y-80119255D01*
X139955975Y-80323786D01*
X139954072Y-80334581D01*
X139935616Y-80545525D01*
X139935616Y-80556475D01*
X139954072Y-80767419D01*
X139955976Y-80778222D01*
X139974567Y-80847601D01*
X139972878Y-80918578D01*
X139933084Y-80977374D01*
X139867820Y-81005322D01*
X139797807Y-80993549D01*
X139763766Y-80969308D01*
X139069405Y-80274947D01*
X139035379Y-80212635D01*
X139032500Y-80185852D01*
X139032500Y-77981675D01*
X140093105Y-77981675D01*
X140106513Y-78186250D01*
X140156979Y-78384957D01*
X140159396Y-78390199D01*
X140159396Y-78390200D01*
X140232120Y-78547951D01*
X140242810Y-78571139D01*
X140246143Y-78575855D01*
X140353601Y-78727905D01*
X140361133Y-78738563D01*
X140507986Y-78881620D01*
X140678449Y-78995520D01*
X140683752Y-78997798D01*
X140683755Y-78997800D01*
X140773324Y-79036282D01*
X140866815Y-79076449D01*
X140873927Y-79078058D01*
X140874555Y-79078408D01*
X140877941Y-79079508D01*
X140877725Y-79080173D01*
X140935954Y-79112597D01*
X140969462Y-79175188D01*
X140963811Y-79245960D01*
X140920796Y-79302442D01*
X140878736Y-79322659D01*
X140781252Y-79348780D01*
X140770963Y-79352525D01*
X140579056Y-79442012D01*
X140569561Y-79447495D01*
X140525081Y-79478640D01*
X140516706Y-79489117D01*
X140523774Y-79502564D01*
X141200188Y-80178978D01*
X141214132Y-80186592D01*
X141215965Y-80186461D01*
X141222580Y-80182210D01*
X141902947Y-79501843D01*
X141909377Y-79490068D01*
X141900084Y-79478055D01*
X141856431Y-79447488D01*
X141846953Y-79442016D01*
X141655038Y-79352525D01*
X141644745Y-79348779D01*
X141541787Y-79321192D01*
X141481164Y-79284240D01*
X141450143Y-79220380D01*
X141458571Y-79149885D01*
X141503774Y-79095138D01*
X141533896Y-79080172D01*
X141554960Y-79073022D01*
X141668659Y-79034426D01*
X141734059Y-78997800D01*
X141842495Y-78937073D01*
X141842499Y-78937070D01*
X141847533Y-78934251D01*
X141851970Y-78930561D01*
X141851974Y-78930558D01*
X142000719Y-78806848D01*
X142005157Y-78803157D01*
X142015859Y-78790289D01*
X142132558Y-78649974D01*
X142132561Y-78649970D01*
X142136251Y-78645533D01*
X142139070Y-78640499D01*
X142139073Y-78640495D01*
X142233603Y-78471700D01*
X142233603Y-78471699D01*
X142236426Y-78466659D01*
X142238282Y-78461192D01*
X142238284Y-78461187D01*
X142300470Y-78277993D01*
X142300471Y-78277988D01*
X142302326Y-78272524D01*
X142303154Y-78266815D01*
X142303155Y-78266810D01*
X142331211Y-78073305D01*
X142331744Y-78069631D01*
X142333279Y-78011000D01*
X142314520Y-77806845D01*
X142275068Y-77666958D01*
X142260441Y-77615093D01*
X142260439Y-77615088D01*
X142258871Y-77609528D01*
X142168195Y-77425656D01*
X142078480Y-77305513D01*
X142048983Y-77266011D01*
X142048982Y-77266010D01*
X142045530Y-77261387D01*
X141935812Y-77159965D01*
X141899223Y-77126142D01*
X141899220Y-77126140D01*
X141894983Y-77122223D01*
X141721596Y-77012824D01*
X141539375Y-76940125D01*
X141536540Y-76938994D01*
X141531176Y-76936854D01*
X141525516Y-76935728D01*
X141525512Y-76935727D01*
X141335769Y-76897985D01*
X141335764Y-76897985D01*
X141330101Y-76896858D01*
X141324326Y-76896782D01*
X141324322Y-76896782D01*
X141221605Y-76895437D01*
X141125104Y-76894174D01*
X141119407Y-76895153D01*
X141119406Y-76895153D01*
X140938710Y-76926203D01*
X140923050Y-76928894D01*
X140730707Y-76999853D01*
X140725746Y-77002805D01*
X140725745Y-77002805D01*
X140621469Y-77064843D01*
X140554517Y-77104675D01*
X140400378Y-77239851D01*
X140396811Y-77244376D01*
X140396806Y-77244381D01*
X140288676Y-77381544D01*
X140273455Y-77400852D01*
X140270764Y-77405968D01*
X140270762Y-77405970D01*
X140207491Y-77526229D01*
X140177997Y-77582288D01*
X140117202Y-77778081D01*
X140093105Y-77981675D01*
X139032500Y-77981675D01*
X139032500Y-77537373D01*
X139033739Y-77526277D01*
X139033141Y-77526229D01*
X139033861Y-77517283D01*
X139035842Y-77508527D01*
X139032742Y-77458559D01*
X139032500Y-77450758D01*
X139032500Y-77435855D01*
X139031158Y-77426486D01*
X139030128Y-77416427D01*
X139027964Y-77381544D01*
X139027408Y-77372583D01*
X139024359Y-77364138D01*
X139023068Y-77357902D01*
X139021135Y-77350151D01*
X139019354Y-77344062D01*
X139018081Y-77335171D01*
X139004597Y-77305513D01*
X138999892Y-77295164D01*
X138996080Y-77285799D01*
X138984209Y-77252917D01*
X138984207Y-77252914D01*
X138981159Y-77244470D01*
X138975864Y-77237223D01*
X138972871Y-77231593D01*
X138968868Y-77224743D01*
X138965423Y-77219356D01*
X138961706Y-77211180D01*
X138933019Y-77177887D01*
X138926734Y-77169971D01*
X138922298Y-77163899D01*
X138922292Y-77163892D01*
X138919423Y-77159965D01*
X138915986Y-77156528D01*
X138915980Y-77156521D01*
X138909382Y-77149924D01*
X138903024Y-77143077D01*
X138878657Y-77114798D01*
X138872796Y-77107996D01*
X138865261Y-77103112D01*
X138858499Y-77097213D01*
X138858569Y-77097133D01*
X138848206Y-77088748D01*
X137924872Y-76165414D01*
X137917900Y-76156688D01*
X137917442Y-76157077D01*
X137914962Y-76154163D01*
X137913799Y-76151556D01*
X137907405Y-76143553D01*
X137906834Y-76142648D01*
X137909169Y-76141175D01*
X137886044Y-76089323D01*
X137896772Y-76019141D01*
X137943740Y-75965901D01*
X138010916Y-75946500D01*
X140123133Y-75946500D01*
X140191254Y-75966502D01*
X140237558Y-76019747D01*
X140242810Y-76031139D01*
X140246143Y-76035855D01*
X140333116Y-76158919D01*
X140361133Y-76198563D01*
X140507986Y-76341620D01*
X140678449Y-76455520D01*
X140683752Y-76457798D01*
X140683755Y-76457800D01*
X140856301Y-76531932D01*
X140866815Y-76536449D01*
X140899943Y-76543945D01*
X141061137Y-76580420D01*
X141061142Y-76580421D01*
X141066774Y-76581695D01*
X141072545Y-76581922D01*
X141072547Y-76581922D01*
X141134339Y-76584350D01*
X141271631Y-76589744D01*
X141376685Y-76574512D01*
X141468810Y-76561155D01*
X141468815Y-76561154D01*
X141474524Y-76560326D01*
X141479988Y-76558471D01*
X141479993Y-76558470D01*
X141663187Y-76496284D01*
X141663192Y-76496282D01*
X141668659Y-76494426D01*
X141734059Y-76457800D01*
X141842495Y-76397073D01*
X141842499Y-76397070D01*
X141847533Y-76394251D01*
X141851970Y-76390561D01*
X141851974Y-76390558D01*
X142000719Y-76266848D01*
X142005157Y-76263157D01*
X142086449Y-76165414D01*
X142132558Y-76109974D01*
X142132561Y-76109970D01*
X142136251Y-76105533D01*
X142139070Y-76100499D01*
X142139073Y-76100495D01*
X142233603Y-75931700D01*
X142233603Y-75931699D01*
X142236426Y-75926659D01*
X142282172Y-75791896D01*
X142323009Y-75733820D01*
X142388762Y-75707042D01*
X142458555Y-75720063D01*
X142510228Y-75768750D01*
X142523192Y-75799787D01*
X142550779Y-75902745D01*
X142554525Y-75913037D01*
X142644012Y-76104944D01*
X142649495Y-76114439D01*
X142680640Y-76158919D01*
X142691117Y-76167294D01*
X142704564Y-76160226D01*
X143380978Y-75483812D01*
X143388592Y-75469868D01*
X143388461Y-75468035D01*
X143384210Y-75461420D01*
X142703843Y-74781053D01*
X142692068Y-74774623D01*
X142680053Y-74783919D01*
X142649495Y-74827561D01*
X142644012Y-74837056D01*
X142554525Y-75028963D01*
X142550779Y-75039255D01*
X142522998Y-75142935D01*
X142486046Y-75203558D01*
X142422185Y-75234579D01*
X142351691Y-75226151D01*
X142296944Y-75180948D01*
X142280024Y-75144532D01*
X142258871Y-75069528D01*
X142168195Y-74885656D01*
X142045530Y-74721387D01*
X141952756Y-74635628D01*
X141899223Y-74586142D01*
X141899220Y-74586140D01*
X141894983Y-74582223D01*
X141721596Y-74472824D01*
X141531176Y-74396854D01*
X141525516Y-74395728D01*
X141525512Y-74395727D01*
X141335769Y-74357985D01*
X141335764Y-74357985D01*
X141330101Y-74356858D01*
X141324326Y-74356782D01*
X141324322Y-74356782D01*
X141221605Y-74355437D01*
X141125104Y-74354174D01*
X141119407Y-74355153D01*
X141119406Y-74355153D01*
X141047582Y-74367495D01*
X140923050Y-74388894D01*
X140730707Y-74459853D01*
X140554517Y-74564675D01*
X140400378Y-74699851D01*
X140396811Y-74704376D01*
X140396806Y-74704381D01*
X140346327Y-74768414D01*
X140273455Y-74860852D01*
X140270766Y-74865963D01*
X140270764Y-74865966D01*
X140238038Y-74928168D01*
X140188618Y-74979140D01*
X140126530Y-74995500D01*
X131345148Y-74995500D01*
X131277027Y-74975498D01*
X131256053Y-74958595D01*
X129851474Y-73554016D01*
X129817448Y-73491704D01*
X129822513Y-73420889D01*
X129865060Y-73364053D01*
X129931580Y-73339242D01*
X129965148Y-73341342D01*
X130028976Y-73354038D01*
X130034751Y-73354114D01*
X130034755Y-73354114D01*
X130145496Y-73355563D01*
X130249594Y-73356926D01*
X130255292Y-73355947D01*
X130461346Y-73320541D01*
X130461347Y-73320541D01*
X130467043Y-73319562D01*
X130614220Y-73265266D01*
X130685051Y-73260454D01*
X130746924Y-73294383D01*
X131437127Y-73984586D01*
X131444098Y-73993311D01*
X131444556Y-73992921D01*
X131450375Y-73999758D01*
X131455165Y-74007350D01*
X131461894Y-74013293D01*
X131461895Y-74013294D01*
X131492699Y-74040499D01*
X131498386Y-74045845D01*
X131508915Y-74056374D01*
X131515486Y-74061298D01*
X131516485Y-74062047D01*
X131524327Y-74068432D01*
X131557255Y-74097513D01*
X131565381Y-74101328D01*
X131570706Y-74104826D01*
X131577546Y-74108936D01*
X131583122Y-74111988D01*
X131590305Y-74117372D01*
X131598713Y-74120524D01*
X131631454Y-74132798D01*
X131640774Y-74136725D01*
X131643990Y-74138235D01*
X131680548Y-74155399D01*
X131689418Y-74156780D01*
X131695498Y-74158639D01*
X131703219Y-74160665D01*
X131709432Y-74162031D01*
X131717843Y-74165184D01*
X131741801Y-74166964D01*
X131761676Y-74168441D01*
X131771723Y-74169595D01*
X131779145Y-74170751D01*
X131779147Y-74170751D01*
X131783956Y-74171500D01*
X131798162Y-74171500D01*
X131807499Y-74171846D01*
X131816120Y-74172487D01*
X131853674Y-74175277D01*
X131862450Y-74173404D01*
X131871407Y-74172793D01*
X131871414Y-74172899D01*
X131884667Y-74171500D01*
X140380627Y-74171500D01*
X140391723Y-74172739D01*
X140391771Y-74172141D01*
X140400717Y-74172861D01*
X140409473Y-74174842D01*
X140459441Y-74171742D01*
X140467242Y-74171500D01*
X140482145Y-74171500D01*
X140491514Y-74170158D01*
X140501566Y-74169129D01*
X140545417Y-74166408D01*
X140553862Y-74163359D01*
X140560098Y-74162068D01*
X140567849Y-74160135D01*
X140573938Y-74158354D01*
X140582829Y-74157081D01*
X140594917Y-74151585D01*
X140622836Y-74138892D01*
X140632201Y-74135080D01*
X140665083Y-74123209D01*
X140665086Y-74123207D01*
X140673530Y-74120159D01*
X140680777Y-74114864D01*
X140686407Y-74111871D01*
X140693257Y-74107868D01*
X140698644Y-74104423D01*
X140706820Y-74100706D01*
X140740113Y-74072019D01*
X140748029Y-74065734D01*
X140754101Y-74061298D01*
X140754108Y-74061292D01*
X140758035Y-74058423D01*
X140768076Y-74048382D01*
X140774922Y-74042025D01*
X140787813Y-74030917D01*
X140852474Y-74001603D01*
X140897870Y-74003476D01*
X141061137Y-74040420D01*
X141061142Y-74040421D01*
X141066774Y-74041695D01*
X141072545Y-74041922D01*
X141072547Y-74041922D01*
X141134339Y-74044350D01*
X141271631Y-74049744D01*
X141373078Y-74035035D01*
X141468810Y-74021155D01*
X141468815Y-74021154D01*
X141474524Y-74020326D01*
X141479988Y-74018471D01*
X141479993Y-74018470D01*
X141663187Y-73956284D01*
X141663192Y-73956282D01*
X141668659Y-73954426D01*
X141676500Y-73950035D01*
X141842495Y-73857073D01*
X141842499Y-73857070D01*
X141847533Y-73854251D01*
X141851970Y-73850561D01*
X141851974Y-73850558D01*
X142000719Y-73726848D01*
X142005157Y-73723157D01*
X142055523Y-73662598D01*
X142132558Y-73569974D01*
X142132561Y-73569970D01*
X142136251Y-73565533D01*
X142139070Y-73560499D01*
X142139073Y-73560495D01*
X142233603Y-73391700D01*
X142233603Y-73391699D01*
X142236426Y-73386659D01*
X142238282Y-73381192D01*
X142238284Y-73381187D01*
X142300470Y-73197993D01*
X142300471Y-73197988D01*
X142302326Y-73192524D01*
X142303154Y-73186815D01*
X142303155Y-73186810D01*
X142323530Y-73046282D01*
X142331744Y-72989631D01*
X142333279Y-72931000D01*
X142314520Y-72726845D01*
X142303288Y-72687017D01*
X142258871Y-72529528D01*
X142260721Y-72529006D01*
X142255687Y-72466883D01*
X142289120Y-72404252D01*
X142351108Y-72369638D01*
X142379055Y-72366500D01*
X142393141Y-72366500D01*
X142461262Y-72386502D01*
G37*
%TD.AperFunction*%
%TA.AperFunction,Conductor*%
G36*
X111939262Y-70268502D02*
G01*
X111960236Y-70285405D01*
X112153595Y-70478764D01*
X112187621Y-70541076D01*
X112190500Y-70567859D01*
X112190500Y-70748995D01*
X112170498Y-70817116D01*
X112128923Y-70857280D01*
X112012306Y-70926660D01*
X112007341Y-70929614D01*
X111841457Y-71075090D01*
X111704863Y-71248360D01*
X111602131Y-71443620D01*
X111600418Y-71449138D01*
X111600414Y-71449148D01*
X111587392Y-71491084D01*
X111548089Y-71550210D01*
X111483060Y-71578700D01*
X111412951Y-71567510D01*
X111360021Y-71520193D01*
X111345792Y-71487925D01*
X111341565Y-71472936D01*
X111243980Y-71275053D01*
X111231330Y-71258112D01*
X111115420Y-71102891D01*
X111115420Y-71102890D01*
X111111967Y-71098267D01*
X111000911Y-70995608D01*
X110954189Y-70952418D01*
X110954186Y-70952416D01*
X110949949Y-70948499D01*
X110763350Y-70830764D01*
X110558421Y-70749006D01*
X110552761Y-70747880D01*
X110552757Y-70747879D01*
X110347691Y-70707089D01*
X110347688Y-70707089D01*
X110342024Y-70705962D01*
X110336249Y-70705886D01*
X110336245Y-70705886D01*
X110225504Y-70704437D01*
X110121406Y-70703074D01*
X110115709Y-70704053D01*
X110115708Y-70704053D01*
X109909654Y-70739459D01*
X109909653Y-70739459D01*
X109903957Y-70740438D01*
X109696957Y-70816804D01*
X109691996Y-70819756D01*
X109691995Y-70819756D01*
X109577120Y-70888100D01*
X109507341Y-70929614D01*
X109341457Y-71075090D01*
X109204863Y-71248360D01*
X109191712Y-71273356D01*
X109166113Y-71322011D01*
X109116693Y-71372983D01*
X109047561Y-71389146D01*
X108980665Y-71365367D01*
X108939723Y-71315093D01*
X108909065Y-71247034D01*
X108903894Y-71237744D01*
X108781150Y-71055425D01*
X108774481Y-71047130D01*
X108622772Y-70888100D01*
X108614814Y-70881059D01*
X108438475Y-70749859D01*
X108429438Y-70744255D01*
X108233516Y-70644643D01*
X108223665Y-70640643D01*
X108013760Y-70575466D01*
X108003376Y-70573183D01*
X107987957Y-70571139D01*
X107973793Y-70573335D01*
X107970000Y-70586522D01*
X107970000Y-73471192D01*
X107973973Y-73484723D01*
X107984580Y-73486248D01*
X108102421Y-73461523D01*
X108112617Y-73458463D01*
X108317029Y-73377737D01*
X108326561Y-73373006D01*
X108514462Y-73258984D01*
X108523052Y-73252720D01*
X108689052Y-73108673D01*
X108696472Y-73101042D01*
X108835826Y-72931089D01*
X108841850Y-72922322D01*
X108946153Y-72739088D01*
X108997235Y-72689782D01*
X109066865Y-72675920D01*
X109132936Y-72701903D01*
X109168660Y-72745690D01*
X109185465Y-72779766D01*
X109188020Y-72784947D01*
X109191474Y-72789573D01*
X109191475Y-72789574D01*
X109290603Y-72922322D01*
X109320033Y-72961733D01*
X109375353Y-73012870D01*
X109476371Y-73106250D01*
X109482051Y-73111501D01*
X109511982Y-73130386D01*
X109663766Y-73226155D01*
X109663771Y-73226157D01*
X109668650Y-73229236D01*
X109672171Y-73230641D01*
X109723318Y-73278945D01*
X109740500Y-73342465D01*
X109740500Y-73572627D01*
X109739261Y-73583723D01*
X109739859Y-73583771D01*
X109739139Y-73592717D01*
X109737158Y-73601473D01*
X109737714Y-73610433D01*
X109740258Y-73651440D01*
X109740500Y-73659242D01*
X109740500Y-73674145D01*
X109741841Y-73683508D01*
X109742871Y-73693566D01*
X109745592Y-73737417D01*
X109748641Y-73745862D01*
X109749932Y-73752098D01*
X109751865Y-73759849D01*
X109753646Y-73765938D01*
X109754919Y-73774829D01*
X109758636Y-73783004D01*
X109773108Y-73814836D01*
X109776920Y-73824201D01*
X109788791Y-73857083D01*
X109788793Y-73857086D01*
X109791841Y-73865530D01*
X109797136Y-73872777D01*
X109800129Y-73878407D01*
X109804132Y-73885257D01*
X109807577Y-73890644D01*
X109811294Y-73898820D01*
X109817154Y-73905620D01*
X109817154Y-73905621D01*
X109839981Y-73932113D01*
X109846266Y-73940029D01*
X109850702Y-73946101D01*
X109850708Y-73946108D01*
X109853577Y-73950035D01*
X109863618Y-73960076D01*
X109869976Y-73966923D01*
X109900204Y-74002004D01*
X109907739Y-74006888D01*
X109914501Y-74012787D01*
X109914431Y-74012867D01*
X109924794Y-74021252D01*
X111249127Y-75345586D01*
X111256098Y-75354311D01*
X111256556Y-75353921D01*
X111262375Y-75360758D01*
X111267165Y-75368350D01*
X111273894Y-75374293D01*
X111273895Y-75374294D01*
X111304699Y-75401499D01*
X111310386Y-75406845D01*
X111320915Y-75417374D01*
X111324502Y-75420062D01*
X111328485Y-75423047D01*
X111336327Y-75429432D01*
X111369255Y-75458513D01*
X111377381Y-75462328D01*
X111382706Y-75465826D01*
X111389546Y-75469936D01*
X111395122Y-75472988D01*
X111402305Y-75478372D01*
X111410713Y-75481524D01*
X111443454Y-75493798D01*
X111452774Y-75497725D01*
X111492548Y-75516399D01*
X111501418Y-75517780D01*
X111507498Y-75519639D01*
X111515219Y-75521665D01*
X111521432Y-75523031D01*
X111529843Y-75526184D01*
X111556880Y-75528193D01*
X111573676Y-75529441D01*
X111583723Y-75530595D01*
X111591145Y-75531751D01*
X111591147Y-75531751D01*
X111595956Y-75532500D01*
X111610162Y-75532500D01*
X111619500Y-75532846D01*
X111665674Y-75536277D01*
X111674450Y-75534404D01*
X111683407Y-75533793D01*
X111683414Y-75533899D01*
X111696667Y-75532500D01*
X123829852Y-75532500D01*
X123897973Y-75552502D01*
X123918947Y-75569405D01*
X125542128Y-77192586D01*
X125549100Y-77201312D01*
X125549558Y-77200923D01*
X125555374Y-77207757D01*
X125560165Y-77215350D01*
X125566894Y-77221292D01*
X125566894Y-77221293D01*
X125597707Y-77248506D01*
X125603394Y-77253852D01*
X125613915Y-77264373D01*
X125621487Y-77270048D01*
X125629318Y-77276424D01*
X125662255Y-77305513D01*
X125670382Y-77309329D01*
X125675719Y-77312834D01*
X125682546Y-77316936D01*
X125688125Y-77319991D01*
X125695305Y-77325372D01*
X125703706Y-77328521D01*
X125703709Y-77328523D01*
X125736455Y-77340798D01*
X125745778Y-77344727D01*
X125777423Y-77359585D01*
X125777428Y-77359586D01*
X125785548Y-77363399D01*
X125794416Y-77364780D01*
X125800477Y-77366633D01*
X125808229Y-77368667D01*
X125814436Y-77370032D01*
X125822843Y-77373183D01*
X125866660Y-77376439D01*
X125876709Y-77377593D01*
X125888956Y-77379500D01*
X125903166Y-77379500D01*
X125912504Y-77379846D01*
X125958674Y-77383277D01*
X125967449Y-77381404D01*
X125976409Y-77380793D01*
X125976416Y-77380899D01*
X125989668Y-77379500D01*
X136090852Y-77379500D01*
X136158973Y-77399502D01*
X136179947Y-77416405D01*
X137282595Y-78519054D01*
X137316621Y-78581366D01*
X137319500Y-78608149D01*
X137319500Y-80760852D01*
X137299498Y-80828973D01*
X137245842Y-80875466D01*
X137175568Y-80885570D01*
X137110988Y-80856076D01*
X137104405Y-80849947D01*
X136695347Y-80440889D01*
X136661321Y-80378577D01*
X136666386Y-80307762D01*
X136670249Y-80298541D01*
X136673962Y-80290580D01*
X136725138Y-80136290D01*
X136728005Y-80122914D01*
X136737672Y-80028562D01*
X136738000Y-80022146D01*
X136738000Y-79647115D01*
X136733525Y-79631876D01*
X136732135Y-79630671D01*
X136724452Y-79629000D01*
X133790116Y-79629000D01*
X133774877Y-79633475D01*
X133773672Y-79634865D01*
X133772001Y-79642548D01*
X133772001Y-80022095D01*
X133772338Y-80028614D01*
X133778240Y-80085497D01*
X133765375Y-80155318D01*
X133716804Y-80207100D01*
X133652913Y-80224500D01*
X111635149Y-80224500D01*
X111567028Y-80204498D01*
X111546054Y-80187595D01*
X110461344Y-79102885D01*
X133772000Y-79102885D01*
X133776475Y-79118124D01*
X133777865Y-79119329D01*
X133785548Y-79121000D01*
X134982885Y-79121000D01*
X134998124Y-79116525D01*
X134999329Y-79115135D01*
X135001000Y-79107452D01*
X135001000Y-79102885D01*
X135509000Y-79102885D01*
X135513475Y-79118124D01*
X135514865Y-79119329D01*
X135522548Y-79121000D01*
X136719884Y-79121000D01*
X136735123Y-79116525D01*
X136736328Y-79115135D01*
X136737999Y-79107452D01*
X136737999Y-78727905D01*
X136737662Y-78721386D01*
X136727743Y-78625794D01*
X136724851Y-78612400D01*
X136673412Y-78458216D01*
X136667239Y-78445038D01*
X136581937Y-78307193D01*
X136572901Y-78295792D01*
X136458171Y-78181261D01*
X136446760Y-78172249D01*
X136308757Y-78087184D01*
X136295576Y-78081037D01*
X136141290Y-78029862D01*
X136127914Y-78026995D01*
X136033562Y-78017328D01*
X136027145Y-78017000D01*
X135527115Y-78017000D01*
X135511876Y-78021475D01*
X135510671Y-78022865D01*
X135509000Y-78030548D01*
X135509000Y-79102885D01*
X135001000Y-79102885D01*
X135001000Y-78035116D01*
X134996525Y-78019877D01*
X134995135Y-78018672D01*
X134987452Y-78017001D01*
X134482905Y-78017001D01*
X134476386Y-78017338D01*
X134380794Y-78027257D01*
X134367400Y-78030149D01*
X134213216Y-78081588D01*
X134200038Y-78087761D01*
X134062193Y-78173063D01*
X134050792Y-78182099D01*
X133936261Y-78296829D01*
X133927249Y-78308240D01*
X133842184Y-78446243D01*
X133836037Y-78459424D01*
X133784862Y-78613710D01*
X133781995Y-78627086D01*
X133772328Y-78721438D01*
X133772000Y-78727855D01*
X133772000Y-79102885D01*
X110461344Y-79102885D01*
X108229915Y-76871456D01*
X104912474Y-73554016D01*
X104878448Y-73491704D01*
X104883513Y-73420889D01*
X104926060Y-73364053D01*
X104992580Y-73339242D01*
X105026148Y-73341342D01*
X105089976Y-73354038D01*
X105095751Y-73354114D01*
X105095755Y-73354114D01*
X105206496Y-73355563D01*
X105310594Y-73356926D01*
X105316292Y-73355947D01*
X105522346Y-73320541D01*
X105522347Y-73320541D01*
X105528043Y-73319562D01*
X105735043Y-73243196D01*
X105740005Y-73240244D01*
X105919694Y-73133340D01*
X105919695Y-73133339D01*
X105924659Y-73130386D01*
X106090543Y-72984910D01*
X106227137Y-72811640D01*
X106265887Y-72737989D01*
X106315307Y-72687017D01*
X106384439Y-72670854D01*
X106451335Y-72694633D01*
X106492277Y-72744907D01*
X106522935Y-72812966D01*
X106528106Y-72822256D01*
X106650850Y-73004575D01*
X106657519Y-73012870D01*
X106809228Y-73171900D01*
X106817186Y-73178941D01*
X106993525Y-73310141D01*
X107002562Y-73315745D01*
X107198484Y-73415357D01*
X107208335Y-73419357D01*
X107418240Y-73484534D01*
X107428624Y-73486817D01*
X107444043Y-73488861D01*
X107458207Y-73486665D01*
X107462000Y-73473478D01*
X107462000Y-70588808D01*
X107458027Y-70575277D01*
X107447420Y-70573752D01*
X107329579Y-70598477D01*
X107319383Y-70601537D01*
X107114971Y-70682263D01*
X107105439Y-70686994D01*
X106917538Y-70801016D01*
X106908948Y-70807280D01*
X106742948Y-70951327D01*
X106735528Y-70958958D01*
X106596174Y-71128911D01*
X106590150Y-71137678D01*
X106485847Y-71320912D01*
X106434765Y-71370218D01*
X106365135Y-71384080D01*
X106299064Y-71358097D01*
X106263340Y-71314310D01*
X106246535Y-71280234D01*
X106243980Y-71275053D01*
X106231330Y-71258112D01*
X106115420Y-71102891D01*
X106115420Y-71102890D01*
X106111967Y-71098267D01*
X106000911Y-70995608D01*
X105954189Y-70952418D01*
X105954186Y-70952416D01*
X105949949Y-70948499D01*
X105845860Y-70882824D01*
X105798923Y-70829559D01*
X105788233Y-70759371D01*
X105817187Y-70694547D01*
X105824001Y-70687168D01*
X106225764Y-70285405D01*
X106288076Y-70251379D01*
X106314859Y-70248500D01*
X111871141Y-70248500D01*
X111939262Y-70268502D01*
G37*
%TD.AperFunction*%
%TD*%
M02*
